<?xml version="1.0" encoding="UTF-8"?>
<svg width="71px" height="93px" viewBox="0 0 71 93" version="1.1" xmlns="http://www.w3.org/2000/svg" xmlns:xlink="http://www.w3.org/1999/xlink">
    <!-- Generator: Sketch 49.3 (51167) - http://www.bohemiancoding.com/sketch -->
    <title>author</title>
    <desc>Created with Sketch.</desc>
    <defs></defs>
    <g id="Page-1" stroke="none" stroke-width="1" fill="none" fill-rule="evenodd">
        <g id="png" transform="translate(-483.000000, -1088.000000)">
            <g id="files" transform="translate(43.000000, 230.000000)">
                <g id="author" transform="translate(440.000000, 858.000000)">
                    <path d="M3,0 L55.7339131,0 L71,18.640625 L71,90 C71,91.6568542 69.6568542,93 68,93 L3,93 C1.34314575,93 2.02906125e-16,91.6568542 0,90 L0,3 C-2.02906125e-16,1.34314575 1.34314575,3.04359188e-16 3,0 Z" id="Rectangle-2" fill="#1D2F44"></path>
                    <path d="M56.1679688,0.083984375 L56.1679688,15.6293945 C56.1679688,17.2862488 57.5111145,18.6293945 59.1679688,18.6293945 L71.0048828,18.6293945 L56.1679688,0.083984375 Z" id="Rectangle-2-Copy" fill="#3A6291"></path>
                    <path d="M8.1,36.84 L10.68,36.84 L16.84,51 L13.32,51 L12.1,48 L6.6,48 L5.42,51 L1.98,51 L8.1,36.84 Z M9.3,40.96 L7.58,45.36 L11.04,45.36 L9.3,40.96 Z M27.24,51 L24.36,51 L24.36,49.68 L24.32,49.68 C24.2133328,49.8666676 24.0766675,50.0533324 23.91,50.24 C23.7433325,50.4266676 23.5400012,50.5933326 23.3,50.74 C23.0599988,50.8866674 22.7866682,51.0066662 22.48,51.1 C22.1733318,51.1933338 21.8400018,51.24 21.48,51.24 C20.7199962,51.24 20.1033357,51.1233345 19.63,50.89 C19.1566643,50.6566655 18.7900013,50.3333354 18.53,49.92 C18.2699987,49.5066646 18.0966671,49.0200028 18.01,48.46 C17.9233329,47.8999972 17.88,47.2933366 17.88,46.64 L17.88,41.28 L20.88,41.28 L20.88,46.04 C20.88,46.3200014 20.8899999,46.6099985 20.91,46.91 C20.9300001,47.2100015 20.9899995,47.4866654 21.09,47.74 C21.1900005,47.9933346 21.3433323,48.1999992 21.55,48.36 C21.7566677,48.5200008 22.0533314,48.6 22.44,48.6 C22.8266686,48.6 23.1399988,48.5300007 23.38,48.39 C23.6200012,48.2499993 23.8033327,48.0633345 23.93,47.83 C24.0566673,47.5966655 24.1399998,47.3333348 24.18,47.04 C24.2200002,46.7466652 24.24,46.4400016 24.24,46.12 L24.24,41.28 L27.24,41.28 L27.24,51 Z M35.98,43.68 L33.34,43.68 L33.34,46.92 C33.34,47.186668 33.3533332,47.4299989 33.38,47.65 C33.4066668,47.8700011 33.4666662,48.0599992 33.56,48.22 C33.6533338,48.3800008 33.7966657,48.5033329 33.99,48.59 C34.1833343,48.6766671 34.4399984,48.72 34.76,48.72 C34.9200008,48.72 35.1299987,48.7033335 35.39,48.67 C35.6500013,48.6366665 35.846666,48.5600006 35.98,48.44 L35.98,50.94 C35.646665,51.0600006 35.3000018,51.1399998 34.94,51.18 C34.5799982,51.2200002 34.2266684,51.24 33.88,51.24 C33.3733308,51.24 32.9066688,51.1866672 32.48,51.08 C32.0533312,50.9733328 31.6800016,50.8033345 31.36,50.57 C31.0399984,50.3366655 30.7900009,50.0333352 30.61,49.66 C30.4299991,49.2866648 30.34,48.833336 30.34,48.3 L30.34,43.68 L28.42,43.68 L28.42,41.28 L30.34,41.28 L30.34,38.4 L33.34,38.4 L33.34,41.28 L35.98,41.28 L35.98,43.68 Z M40.5,35.88 L40.5,42.6 L40.54,42.6 C40.606667,42.4133324 40.7199992,42.2266676 40.88,42.04 C41.0400008,41.8533324 41.2333322,41.6866674 41.46,41.54 C41.6866678,41.3933326 41.9533318,41.2733338 42.26,41.18 C42.5666682,41.0866662 42.8999982,41.04 43.26,41.04 C44.0200038,41.04 44.633331,41.1566655 45.1,41.39 C45.566669,41.6233345 45.9299987,41.9466646 46.19,42.36 C46.4500013,42.7733354 46.6266662,43.2599972 46.72,43.82 C46.8133338,44.3800028 46.86,44.9866634 46.86,45.64 L46.86,51 L43.86,51 L43.86,46.24 C43.86,45.9599986 43.8500001,45.6700015 43.83,45.37 C43.8099999,45.0699985 43.7500005,44.7933346 43.65,44.54 C43.5499995,44.2866654 43.3966677,44.0800008 43.19,43.92 C42.9833323,43.7599992 42.6866686,43.68 42.3,43.68 C41.9133314,43.68 41.6000012,43.7499993 41.36,43.89 C41.1199988,44.0300007 40.9366673,44.2166655 40.81,44.45 C40.6833327,44.6833345 40.6000002,44.9466652 40.56,45.24 C40.5199998,45.5333348 40.5,45.8399984 40.5,46.16 L40.5,51 L37.5,51 L37.5,35.88 L40.5,35.88 Z M48.62,46.14 C48.62,45.3666628 48.7599986,44.6666698 49.04,44.04 C49.3200014,43.4133302 49.7033309,42.8766689 50.19,42.43 C50.6766691,41.9833311 51.2499967,41.6400012 51.91,41.4 C52.5700033,41.1599988 53.2733296,41.04 54.02,41.04 C54.7666704,41.04 55.4699967,41.1599988 56.13,41.4 C56.7900033,41.6400012 57.3633309,41.9833311 57.85,42.43 C58.3366691,42.8766689 58.7199986,43.4133302 59,44.04 C59.2800014,44.6666698 59.42,45.3666628 59.42,46.14 C59.42,46.9133372 59.2800014,47.6133302 59,48.24 C58.7199986,48.8666698 58.3366691,49.4033311 57.85,49.85 C57.3633309,50.2966689 56.7900033,50.6399988 56.13,50.88 C55.4699967,51.1200012 54.7666704,51.24 54.02,51.24 C53.2733296,51.24 52.5700033,51.1200012 51.91,50.88 C51.2499967,50.6399988 50.6766691,50.2966689 50.19,49.85 C49.7033309,49.4033311 49.3200014,48.8666698 49.04,48.24 C48.7599986,47.6133302 48.62,46.9133372 48.62,46.14 Z M51.62,46.14 C51.62,46.873337 51.8299979,47.4666644 52.25,47.92 C52.6700021,48.3733356 53.2599962,48.6 54.02,48.6 C54.7800038,48.6 55.3699979,48.3733356 55.79,47.92 C56.2100021,47.4666644 56.42,46.873337 56.42,46.14 C56.42,45.406663 56.2100021,44.8133356 55.79,44.36 C55.3699979,43.9066644 54.7800038,43.68 54.02,43.68 C53.2599962,43.68 52.6700021,43.9066644 52.25,44.36 C51.8299979,44.8133356 51.62,45.406663 51.62,46.14 Z M61.18,41.28 L64.18,41.28 L64.18,42.84 L64.22,42.84 C64.5400016,42.239997 64.9199978,41.7900015 65.36,41.49 C65.8000022,41.1899985 66.35333,41.04 67.02,41.04 C67.1933342,41.04 67.3666658,41.0466666 67.54,41.06 C67.7133342,41.0733334 67.8733326,41.0999998 68.02,41.14 L68.02,43.88 C67.8066656,43.813333 67.5966677,43.7633335 67.39,43.73 C67.1833323,43.6966665 66.9666678,43.68 66.74,43.68 C66.1666638,43.68 65.713335,43.7599992 65.38,43.92 C65.046665,44.0800008 64.7900009,44.3033319 64.61,44.59 C64.4299991,44.8766681 64.3133336,45.219998 64.26,45.62 C64.2066664,46.020002 64.18,46.4599976 64.18,46.94 L64.18,51 L61.18,51 L61.18,41.28 Z" id="Author" fill="#FFFFFF"></path>
                </g>
            </g>
        </g>
    </g>
</svg>