<?xml version="1.0" encoding="UTF-8"?>
<svg width="43px" height="58px" viewBox="0 0 43 58" version="1.1" xmlns="http://www.w3.org/2000/svg" xmlns:xlink="http://www.w3.org/1999/xlink">
    <!-- Generator: Sketch 49.3 (51167) - http://www.bohemiancoding.com/sketch -->
    <title>blank</title>
    <desc>Created with Sketch.</desc>
    <defs>
        <radialGradient cx="50%" cy="33.8289222%" fx="50%" fy="33.8289222%" r="211.743759%" gradientTransform="translate(0.500000,0.338289),scale(1.000000,0.312505),rotate(90.000000),scale(1.000000,0.172778),translate(-0.500000,-0.338289)" id="radialGradient-1">
            <stop stop-color="#E02074" offset="0%"></stop>
            <stop stop-color="#D41A62" offset="36.3494975%"></stop>
            <stop stop-color="#BD0E40" offset="100%"></stop>
        </radialGradient>
    </defs>
    <g id="Page-1" stroke="none" stroke-width="1" fill="none" fill-rule="evenodd">
        <g id="png" transform="translate(-586.000000, -1466.000000)">
            <g id="icons" transform="translate(386.000000, 1460.000000)">
                <g id="blank" transform="translate(196.000000, 2.000000)">
                    <g id="Group-2" transform="translate(27.000000, 35.000000) rotate(-327.000000) translate(-27.000000, -35.000000) translate(18.000000, 0.000000)">
                        <path d="M7.60057018,55.9132706 C7.60057018,55.9132706 8.19408066,56.8709919 8.65337295,57.0408838 C9.11266524,57.2107757 10.1087518,57.2107757 10.1087518,57.2107757 L6.46373613,58.9409957 L7.60057018,55.9132706 Z M6.5281474,55.8569794 C6.5281474,55.8569794 5.80555221,56.7463378 5.29475585,57.0053099 C4.8950583,57.2079553 3.79666569,57.2418317 3.79666569,57.2418317 L5.49364841,57.9531151 L6.49448114,58.37261 L6.5281474,55.8569794 Z" id="Triangle" fill="#A8BBCE"></path>
                        <g id="Group" transform="translate(0.000000, -0.000000)">
                            <path d="M6.44530885,0.0206522904 C6.44530885,0.0206522904 14.4523623,0.833902885 16.9445124,15.3256544 C19.4366625,29.817406 15.1538863,56.1599459 6.96911398,56.1599459 C-0.953400266,56.1599459 0.160953696,17.1401289 0.160953696,17.1401289 C0.160953696,17.1401289 2.55102617,16.1507629 4.67608873,11.2922813 C6.80115129,6.4337997 6.44530885,0.0206522904 6.44530885,0.0206522904 Z" id="Triangle-2" fill="url(#radialGradient-1)"></path>
                            <path d="M8.84667522,21.5347095 L15.4560693,9.23871445 C15.4560693,9.23871445 16.4484621,12.8556274 16.4658047,12.9280026 C16.6690559,13.7762247 16.9445124,15.4503884 16.9445124,15.4503884 L9.33071517,22.1117335 L8.84667522,21.5347095 Z" id="Triangle-2-Copy" fill="#F5A623"></path>
                            <path d="M9.32253191,22.7555767 L17.1046301,16.3020012 C17.1046301,16.3020012 17.3637864,18.4320342 17.452048,19.5002619 C17.5347591,20.5013109 17.6175481,22.5098314 17.6175481,22.5098314 L9.32253191,23.5123069 L9.32253191,22.7555767 Z" id="Triangle-2-Copy" fill="#F5A623"></path>
                        </g>
                        <path d="M8.09089673,5.20256311 C8.32147911,5.20256311 10.553822,25.993975 10.2966505,31.580158 C9.74587849,43.5438212 6.32172412,67.6737988 6.32172412,67.6737988 L4.62082766,69.1612256 C4.62082766,69.1612256 8.02319715,43.6985513 8.66987713,31.580158 C8.98617661,25.6528962 7.77488193,5.20256311 8.09089673,5.20256311 Z" id="Rectangle" fill="#211E1E"></path>
                    </g>
                </g>
            </g>
        </g>
    </g>
</svg>