<?xml version="1.0" encoding="UTF-8"?>
<svg width="81px" height="93px" viewBox="0 0 81 93" version="1.1" xmlns="http://www.w3.org/2000/svg" xmlns:xlink="http://www.w3.org/1999/xlink">
    <!-- Generator: Sketch 49.3 (51167) - http://www.bohemiancoding.com/sketch -->
    <title>calc</title>
    <desc>Created with Sketch.</desc>
    <defs></defs>
    <g id="Page-1" stroke="none" stroke-width="1" fill="none" fill-rule="evenodd">
        <g id="png" transform="translate(-578.000000, -766.000000)">
            <g id="files" transform="translate(43.000000, 230.000000)">
                <g id="calc" transform="translate(535.000000, 536.000000)">
                    <path d="M13,0 L65.7339131,0 L81,18.640625 L81,90 C81,91.6568542 79.6568542,93 78,93 L13,93 C11.3431458,93 10,91.6568542 10,90 L10,3 C10,1.34314575 11.3431458,3.04359188e-16 13,0 Z" id="Rectangle-2" fill="#E6F2FF"></path>
                    <path d="M66.1679688,0.083984375 L66.1679688,15.6293945 C66.1679688,17.2862488 67.5111145,18.6293945 69.1679688,18.6293945 L81.0048828,18.6293945 L66.1679688,0.083984375 Z" id="Rectangle-2-Copy" fill="#AEC3DA"></path>
                    <rect id="Rectangle-3" fill="#7E9B61" x="0" y="53" width="66" height="32" rx="3"></rect>
                    <path d="M22.64,66.42 C22.4933326,66.2066656 22.286668,66.0300007 22.02,65.89 C21.753332,65.7499993 21.4666682,65.68 21.16,65.68 C20.3999962,65.68 19.8100021,65.9066644 19.39,66.36 C18.9699979,66.8133356 18.76,67.406663 18.76,68.14 C18.76,68.873337 18.9699979,69.4666644 19.39,69.92 C19.8100021,70.3733356 20.3999962,70.6 21.16,70.6 C21.493335,70.6 21.7799988,70.5266674 22.02,70.38 C22.2600012,70.2333326 22.4666658,70.060001 22.64,69.86 L24.62,71.94 C24.153331,72.4200024 23.6033365,72.7566657 22.97,72.95 C22.3366635,73.1433343 21.7333362,73.24 21.16,73.24 C20.4133296,73.24 19.7100033,73.1200012 19.05,72.88 C18.3899967,72.6399988 17.8166691,72.2966689 17.33,71.85 C16.8433309,71.4033311 16.4600014,70.8666698 16.18,70.24 C15.8999986,69.6133302 15.76,68.9133372 15.76,68.14 C15.76,67.3666628 15.8999986,66.6666698 16.18,66.04 C16.4600014,65.4133302 16.8433309,64.8766689 17.33,64.43 C17.8166691,63.9833311 18.3899967,63.6400012 19.05,63.4 C19.7100033,63.1599988 20.4133296,63.04 21.16,63.04 C21.7333362,63.04 22.3366635,63.1366657 22.97,63.33 C23.6033365,63.5233343 24.153331,63.8599976 24.62,64.34 L22.64,66.42 Z M31.8,71.78 L31.76,71.78 C31.426665,72.3000026 30.9833361,72.6733322 30.43,72.9 C29.8766639,73.1266678 29.2933364,73.24 28.68,73.24 C28.2266644,73.24 27.7900021,73.1766673 27.37,73.05 C26.9499979,72.9233327 26.5800016,72.7333346 26.26,72.48 C25.9399984,72.2266654 25.6866676,71.9133352 25.5,71.54 C25.3133324,71.1666648 25.22,70.7333358 25.22,70.24 C25.22,69.6799972 25.3233323,69.2066686 25.53,68.82 C25.7366677,68.4333314 26.0166649,68.1133346 26.37,67.86 C26.7233351,67.6066654 27.1266644,67.4100007 27.58,67.27 C28.0333356,67.1299993 28.5033309,67.026667 28.99,66.96 C29.4766691,66.893333 29.9633309,66.8533334 30.45,66.84 C30.9366691,66.8266666 31.3866646,66.82 31.8,66.82 C31.8,66.286664 31.6100019,65.8633349 31.23,65.55 C30.8499981,65.2366651 30.4000026,65.08 29.88,65.08 C29.3866642,65.08 28.9366687,65.1833323 28.53,65.39 C28.1233313,65.5966677 27.7600016,65.8799982 27.44,66.24 L25.84,64.6 C26.4000028,64.0799974 27.0533296,63.6900013 27.8,63.43 C28.5466704,63.1699987 29.319996,63.04 30.12,63.04 C31.0000044,63.04 31.7233305,63.1499989 32.29,63.37 C32.8566695,63.5900011 33.3099983,63.9133312 33.65,64.34 C33.9900017,64.7666688 34.226666,65.2899969 34.36,65.91 C34.493334,66.5300031 34.56,67.2466626 34.56,68.06 L34.56,73 L31.8,73 L31.8,71.78 Z M31.06,68.74 C30.8333322,68.74 30.5500017,68.7499999 30.21,68.77 C29.8699983,68.7900001 29.5433349,68.8466662 29.23,68.94 C28.9166651,69.0333338 28.6500011,69.1733324 28.43,69.36 C28.2099989,69.5466676 28.1,69.806665 28.1,70.14 C28.1,70.5000018 28.2533318,70.7666658 28.56,70.94 C28.8666682,71.1133342 29.186665,71.2 29.52,71.2 C29.8133348,71.2 30.0966653,71.1600004 30.37,71.08 C30.6433347,70.9999996 30.8866656,70.8866674 31.1,70.74 C31.3133344,70.5933326 31.4833327,70.4066678 31.61,70.18 C31.7366673,69.9533322 31.8,69.6866682 31.8,69.38 L31.8,68.74 L31.06,68.74 Z M36.48,57.88 L39.48,57.88 L39.48,73 L36.48,73 L36.48,57.88 Z M48.22,66.42 C48.0733326,66.2066656 47.866668,66.0300007 47.6,65.89 C47.333332,65.7499993 47.0466682,65.68 46.74,65.68 C45.9799962,65.68 45.3900021,65.9066644 44.97,66.36 C44.5499979,66.8133356 44.34,67.406663 44.34,68.14 C44.34,68.873337 44.5499979,69.4666644 44.97,69.92 C45.3900021,70.3733356 45.9799962,70.6 46.74,70.6 C47.073335,70.6 47.3599988,70.5266674 47.6,70.38 C47.8400012,70.2333326 48.0466658,70.060001 48.22,69.86 L50.2,71.94 C49.733331,72.4200024 49.1833365,72.7566657 48.55,72.95 C47.9166635,73.1433343 47.3133362,73.24 46.74,73.24 C45.9933296,73.24 45.2900033,73.1200012 44.63,72.88 C43.9699967,72.6399988 43.3966691,72.2966689 42.91,71.85 C42.4233309,71.4033311 42.0400014,70.8666698 41.76,70.24 C41.4799986,69.6133302 41.34,68.9133372 41.34,68.14 C41.34,67.3666628 41.4799986,66.6666698 41.76,66.04 C42.0400014,65.4133302 42.4233309,64.8766689 42.91,64.43 C43.3966691,63.9833311 43.9699967,63.6400012 44.63,63.4 C45.2900033,63.1599988 45.9933296,63.04 46.74,63.04 C47.3133362,63.04 47.9166635,63.1366657 48.55,63.33 C49.1833365,63.5233343 49.733331,63.8599976 50.2,64.34 L48.22,66.42 Z" fill="#FFFFFF"></path>
                </g>
            </g>
        </g>
    </g>
</svg>