<?xml version="1.0" encoding="UTF-8"?>
<svg width="71px" height="93px" viewBox="0 0 71 93" version="1.1" xmlns="http://www.w3.org/2000/svg" xmlns:xlink="http://www.w3.org/1999/xlink">
    <!-- Generator: Sketch 49.3 (51167) - http://www.bohemiancoding.com/sketch -->
    <title>deb</title>
    <desc>Created with Sketch.</desc>
    <defs></defs>
    <g id="Page-1" stroke="none" stroke-width="1" fill="none" fill-rule="evenodd">
        <g id="png" transform="translate(-775.000000, -1088.000000)">
            <g id="files" transform="translate(43.000000, 230.000000)">
                <g id="deb" transform="translate(732.000000, 858.000000)">
                    <path d="M3,0 L55.7339131,0 L71,18.640625 L71,90 C71,91.6568542 69.6568542,93 68,93 L3,93 C1.34314575,93 2.02906125e-16,91.6568542 0,90 L0,3 C-2.02906125e-16,1.34314575 1.34314575,3.04359188e-16 3,0 Z" id="Rectangle-2" fill="#D70751"></path>
                    <path d="M56.1679688,0.083984375 L56.1679688,15.6293945 C56.1679688,17.2862488 57.5111145,18.6293945 59.1679688,18.6293945 L71.0048828,18.6293945 L56.1679688,0.083984375 Z" id="Rectangle-2-Copy" fill="#3A6291"></path>
                    <path d="M24.016,65 L19.6,65 L19.6,62.952 L19.536,62.952 C19.343999,63.2293347 19.0933349,63.5119986 18.784,63.8 C18.4746651,64.0880014 18.1120021,64.3493322 17.696,64.584 C17.2799979,64.8186678 16.8213358,65.0106659 16.32,65.16 C15.8186642,65.3093341 15.301336,65.384 14.768,65.384 C13.6159942,65.384 12.5706714,65.1866686 11.632,64.792 C10.6933286,64.3973314 9.88800336,63.8426702 9.216,63.128 C8.54399664,62.4133298 8.02666848,61.5653382 7.664,60.584 C7.30133152,59.6026618 7.12,58.5253392 7.12,57.352 C7.12,56.2639946 7.28533168,55.224005 7.616,54.232 C7.94666832,53.239995 8.41599696,52.3600038 9.024,51.592 C9.63200304,50.8239962 10.373329,50.210669 11.248,49.752 C12.122671,49.293331 13.1146611,49.064 14.224,49.064 C15.2266717,49.064 16.1599957,49.2186651 17.024,49.528 C17.8880043,49.8373349 18.5973306,50.3653296 19.152,51.112 L19.216,51.112 L19.216,40.808 L24.016,40.808 L24.016,65 Z M19.6,57.224 C19.6,56.0506608 19.2640034,55.101337 18.592,54.376 C17.9199966,53.650663 16.9760061,53.288 15.76,53.288 C14.5439939,53.288 13.6000034,53.650663 12.928,54.376 C12.2559966,55.101337 11.92,56.0506608 11.92,57.224 C11.92,58.3973392 12.2559966,59.346663 12.928,60.072 C13.6000034,60.797337 14.5439939,61.16 15.76,61.16 C16.9760061,61.16 17.9199966,60.797337 18.592,60.072 C19.2640034,59.346663 19.6,58.3973392 19.6,57.224 Z M42.576,62.312 C41.8079962,63.2933382 40.8373392,64.050664 39.664,64.584 C38.4906608,65.117336 37.274673,65.384 36.016,65.384 C34.8213274,65.384 33.6960053,65.1920019 32.64,64.808 C31.5839947,64.4239981 30.6666706,63.8746702 29.888,63.16 C29.1093294,62.4453298 28.4960022,61.5866717 28.048,60.584 C27.5999978,59.5813283 27.376,58.4613395 27.376,57.224 C27.376,55.9866605 27.5999978,54.8666717 28.048,53.864 C28.4960022,52.8613283 29.1093294,52.0026702 29.888,51.288 C30.6666706,50.5733298 31.5839947,50.0240019 32.64,49.64 C33.6960053,49.2559981 34.8213274,49.064 36.016,49.064 C37.1253389,49.064 38.1333288,49.2559981 39.04,49.64 C39.9466712,50.0240019 40.7146635,50.5733298 41.344,51.288 C41.9733365,52.0026702 42.458665,52.8613283 42.8,53.864 C43.141335,54.8666717 43.312,55.9866605 43.312,57.224 L43.312,58.728 L32.176,58.728 C32.368001,59.6453379 32.7839968,60.3759973 33.424,60.92 C34.0640032,61.4640027 34.8533286,61.736 35.792,61.736 C36.5813373,61.736 37.2479973,61.5600018 37.792,61.208 C38.3360027,60.8559982 38.8106646,60.4026694 39.216,59.848 L42.576,62.312 Z M38.512,55.464 C38.5333334,54.6533293 38.2666694,53.9600029 37.712,53.384 C37.1573306,52.8079971 36.442671,52.52 35.568,52.52 C35.034664,52.52 34.5653354,52.6053325 34.16,52.776 C33.7546646,52.9466675 33.4080014,53.165332 33.12,53.432 C32.8319986,53.698668 32.6080008,54.0079982 32.448,54.36 C32.2879992,54.7120018 32.1973334,55.0799981 32.176,55.464 L38.512,55.464 Z M46.672,40.808 L51.472,40.808 L51.472,51.112 L51.536,51.112 C52.0906694,50.3653296 52.7999957,49.8373349 53.664,49.528 C54.5280043,49.2186651 55.4613283,49.064 56.464,49.064 C57.5733389,49.064 58.565329,49.293331 59.44,49.752 C60.314671,50.210669 61.055997,50.8239962 61.664,51.592 C62.272003,52.3600038 62.7413317,53.239995 63.072,54.232 C63.4026683,55.224005 63.568,56.2639946 63.568,57.352 C63.568,58.5253392 63.3866685,59.6026618 63.024,60.584 C62.6613315,61.5653382 62.1440034,62.4133298 61.472,63.128 C60.7999966,63.8426702 59.9946714,64.3973314 59.056,64.792 C58.1173286,65.1866686 57.0720058,65.384 55.92,65.384 C55.3653306,65.384 54.8426691,65.3093341 54.352,65.16 C53.8613309,65.0106659 53.4080021,64.8186678 52.992,64.584 C52.5759979,64.3493322 52.2133349,64.0880014 51.904,63.8 C51.5946651,63.5119986 51.344001,63.2293347 51.152,62.952 L51.088,62.952 L51.088,65 L46.672,65 L46.672,40.808 Z M51.088,57.224 C51.088,58.3973392 51.4239966,59.346663 52.096,60.072 C52.7680034,60.797337 53.7119939,61.16 54.928,61.16 C56.1440061,61.16 57.0879966,60.797337 57.76,60.072 C58.4320034,59.346663 58.768,58.3973392 58.768,57.224 C58.768,56.0506608 58.4320034,55.101337 57.76,54.376 C57.0879966,53.650663 56.1440061,53.288 54.928,53.288 C53.7119939,53.288 52.7680034,53.650663 52.096,54.376 C51.4239966,55.101337 51.088,56.0506608 51.088,57.224 Z" fill="#FFFFFF"></path>
                </g>
            </g>
        </g>
    </g>
</svg>