<?xml version="1.0" encoding="UTF-8"?>
<svg width="71px" height="93px" viewBox="0 0 71 93" version="1.1" xmlns="http://www.w3.org/2000/svg" xmlns:xlink="http://www.w3.org/1999/xlink">
    <!-- Generator: Sketch 49.3 (51167) - http://www.bohemiancoding.com/sketch -->
    <title>diff</title>
    <desc>Created with Sketch.</desc>
    <defs></defs>
    <g id="Page-1" stroke="none" stroke-width="1" fill="none" fill-rule="evenodd">
        <g id="png" transform="translate(-478.000000, -1302.000000)">
            <g id="files" transform="translate(43.000000, 230.000000)">
                <g id="diff" transform="translate(435.000000, 1072.000000)">
                    <path d="M3,0 L55.7339131,0 L71,18.640625 L71,90 C71,91.6568542 69.6568542,93 68,93 L3,93 C1.34314575,93 2.02906125e-16,91.6568542 0,90 L0,3 C-2.02906125e-16,1.34314575 1.34314575,3.04359188e-16 3,0 Z" id="Rectangle-2" fill="#1D2F44"></path>
                    <path d="M56.1679688,0.083984375 L56.1679688,15.6293945 C56.1679688,17.2862488 57.5111145,18.6293945 59.1679688,18.6293945 L71.0048828,18.6293945 L56.1679688,0.083984375 Z" id="Rectangle-2-Copy" fill="#3A6291"></path>
                    <path d="M5.088,33.468 L11.874,33.468 C13.5173416,33.468 15.0784926,33.6516648 16.5575,34.019 C18.0365074,34.3863352 19.3269945,34.9808292 20.429,35.8025 C21.5310055,36.6241708 22.4058301,37.6923268 23.0535,39.007 C23.7011699,40.3216732 24.025,41.9166573 24.025,43.792 C24.025,45.454675 23.7108365,46.9191603 23.0825,48.1855 C22.4541635,49.4518397 21.6083387,50.5151624 20.545,51.3755 C19.4816614,52.2358376 18.254007,52.8883311 16.862,53.333 C15.469993,53.7776689 14.010341,54 12.483,54 L5.088,54 L5.088,33.468 Z M9.612,49.824 L11.961,49.824 C13.0050052,49.824 13.9764955,49.7176677 14.8755,49.505 C15.7745045,49.2923323 16.5526634,48.9395025 17.21,48.4465 C17.8673366,47.9534975 18.3844981,47.3058373 18.7615,46.5035 C19.1385019,45.7011627 19.327,44.7200058 19.327,43.56 C19.327,42.5546616 19.1385019,41.6798371 18.7615,40.9355 C18.3844981,40.1911629 17.8770032,39.5773358 17.239,39.094 C16.6009968,38.6106642 15.8518376,38.2481679 14.9915,38.0065 C14.1311624,37.7648321 13.2273381,37.644 12.28,37.644 L9.612,37.644 L9.612,49.824 Z M27.041,33.468 L31.565,33.468 L31.565,54 L27.041,54 L27.041,33.468 Z M35.857,33.468 L49.632,33.468 L49.632,37.644 L40.381,37.644 L40.381,41.82 L48.936,41.82 L48.936,45.996 L40.381,45.996 L40.381,54 L35.857,54 L35.857,33.468 Z M53.054,33.468 L66.829,33.468 L66.829,37.644 L57.578,37.644 L57.578,41.82 L66.133,41.82 L66.133,45.996 L57.578,45.996 L57.578,54 L53.054,54 L53.054,33.468 Z" id="DIFF" fill="#7ED321"></path>
                </g>
            </g>
        </g>
    </g>
</svg>