<?xml version="1.0" encoding="UTF-8"?>
<svg width="81px" height="93px" viewBox="0 0 81 93" version="1.1" xmlns="http://www.w3.org/2000/svg" xmlns:xlink="http://www.w3.org/1999/xlink">
    <!-- Generator: Sketch 49.3 (51167) - http://www.bohemiancoding.com/sketch -->
    <title>doc</title>
    <desc>Created with Sketch.</desc>
    <defs></defs>
    <g id="Page-1" stroke="none" stroke-width="1" fill="none" fill-rule="evenodd">
        <g id="png" transform="translate(-775.000000, -981.000000)">
            <g id="files" transform="translate(43.000000, 230.000000)">
                <g id="doc" transform="translate(732.000000, 751.000000)">
                    <path d="M13,0 L65.7339131,0 L81,18.640625 L81,90 C81,91.6568542 79.6568542,93 78,93 L13,93 C11.3431458,93 10,91.6568542 10,90 L10,3 C10,1.34314575 11.3431458,3.04359188e-16 13,0 Z" id="Rectangle-2" fill="#E6F2FF"></path>
                    <path d="M66.1679688,0.083984375 L66.1679688,15.6293945 C66.1679688,17.2862488 67.5111145,18.6293945 69.1679688,18.6293945 L81.0048828,18.6293945 L66.1679688,0.083984375 Z" id="Rectangle-2-Copy" fill="#AEC3DA"></path>
                    <rect id="Rectangle-3" fill="#223E5F" x="0" y="53" width="66" height="32" rx="3"></rect>
                    <path d="M9.584,59.424 L14.732,59.424 C15.9786729,59.424 17.1629944,59.5633319 18.285,59.842 C19.4070056,60.1206681 20.3859958,60.5716636 21.222,61.195 C22.0580042,61.8183365 22.7216642,62.6286617 23.213,63.626 C23.7043358,64.6233383 23.95,65.8333262 23.95,67.256 C23.95,68.5173396 23.711669,69.6283285 23.235,70.589 C22.758331,71.5496715 22.1166707,72.3563301 21.31,73.009 C20.5033293,73.6616699 19.5720053,74.156665 18.516,74.494 C17.4599947,74.831335 16.3526725,75 15.194,75 L9.584,75 L9.584,59.424 Z M13.016,71.832 L14.798,71.832 C15.590004,71.832 16.3269966,71.7513341 17.009,71.59 C17.6910034,71.4286659 18.2813308,71.1610019 18.78,70.787 C19.2786692,70.4129981 19.6709986,69.9216697 19.957,69.313 C20.2430014,68.7043303 20.386,67.9600044 20.386,67.08 C20.386,66.3173295 20.2430014,65.6536695 19.957,65.089 C19.6709986,64.5243305 19.2860024,64.0586685 18.802,63.692 C18.3179976,63.3253315 17.7496699,63.0503343 17.097,62.867 C16.4443301,62.6836658 15.7586703,62.592 15.04,62.592 L13.016,62.592 L13.016,71.832 Z M25.446,67.212 C25.446,65.9653271 25.6549979,64.8360051 26.073,63.824 C26.4910021,62.8119949 27.0739963,61.9503369 27.822,61.239 C28.5700037,60.5276631 29.4573282,59.9813352 30.484,59.6 C31.5106718,59.2186648 32.6326606,59.028 33.85,59.028 C35.0673394,59.028 36.1893282,59.2186648 37.216,59.6 C38.2426718,59.9813352 39.1299963,60.5276631 39.878,61.239 C40.6260037,61.9503369 41.2089979,62.8119949 41.627,63.824 C42.0450021,64.8360051 42.254,65.9653271 42.254,67.212 C42.254,68.4586729 42.0450021,69.5879949 41.627,70.6 C41.2089979,71.6120051 40.6260037,72.4736631 39.878,73.185 C39.1299963,73.8963369 38.2426718,74.4426648 37.216,74.824 C36.1893282,75.2053352 35.0673394,75.396 33.85,75.396 C32.6326606,75.396 31.5106718,75.2053352 30.484,74.824 C29.4573282,74.4426648 28.5700037,73.8963369 27.822,73.185 C27.0739963,72.4736631 26.4910021,71.6120051 26.073,70.6 C25.6549979,69.5879949 25.446,68.4586729 25.446,67.212 Z M29.01,67.212 C29.01,67.945337 29.1236655,68.6163303 29.351,69.225 C29.5783345,69.8336697 29.9046645,70.3616644 30.33,70.809 C30.7553355,71.2563356 31.264997,71.6046654 31.859,71.854 C32.453003,72.1033346 33.116663,72.228 33.85,72.228 C34.583337,72.228 35.246997,72.1033346 35.841,71.854 C36.435003,71.6046654 36.9446645,71.2563356 37.37,70.809 C37.7953355,70.3616644 38.1216655,69.8336697 38.349,69.225 C38.5763345,68.6163303 38.69,67.945337 38.69,67.212 C38.69,66.4933297 38.5763345,65.8260031 38.349,65.21 C38.1216655,64.5939969 37.7953355,64.0623356 37.37,63.615 C36.9446645,63.1676644 36.435003,62.8193346 35.841,62.57 C35.246997,62.3206654 34.583337,62.196 33.85,62.196 C33.116663,62.196 32.453003,62.3206654 31.859,62.57 C31.264997,62.8193346 30.7553355,63.1676644 30.33,63.615 C29.9046645,64.0623356 29.5783345,64.5939969 29.351,65.21 C29.1236655,65.8260031 29.01,66.4933297 29.01,67.212 Z M54.772,63.472 C54.434665,63.0613313 54.0203358,62.7460011 53.529,62.526 C53.0376642,62.3059989 52.4693366,62.196 51.824,62.196 C51.1786634,62.196 50.5810027,62.3206654 50.031,62.57 C49.4809973,62.8193346 49.0043353,63.1676644 48.601,63.615 C48.1976646,64.0623356 47.8823345,64.5939969 47.655,65.21 C47.4276655,65.8260031 47.314,66.4933297 47.314,67.212 C47.314,67.945337 47.4276655,68.6163303 47.655,69.225 C47.8823345,69.8336697 48.193998,70.3616644 48.59,70.809 C48.986002,71.2563356 49.451664,71.6046654 49.987,71.854 C50.522336,72.1033346 51.0979969,72.228 51.714,72.228 C52.4180035,72.228 53.0413306,72.0813348 53.584,71.788 C54.1266694,71.4946652 54.5739982,71.0840026 54.926,70.556 L57.786,72.69 C57.1259967,73.6140046 56.2900051,74.2959978 55.278,74.736 C54.2659949,75.1760022 53.224672,75.396 52.154,75.396 C50.9366606,75.396 49.8146718,75.2053352 48.788,74.824 C47.7613282,74.4426648 46.8740037,73.8963369 46.126,73.185 C45.3779963,72.4736631 44.7950021,71.6120051 44.377,70.6 C43.9589979,69.5879949 43.75,68.4586729 43.75,67.212 C43.75,65.9653271 43.9589979,64.8360051 44.377,63.824 C44.7950021,62.8119949 45.3779963,61.9503369 46.126,61.239 C46.8740037,60.5276631 47.7613282,59.9813352 48.788,59.6 C49.8146718,59.2186648 50.9366606,59.028 52.154,59.028 C52.5940022,59.028 53.0523309,59.0683329 53.529,59.149 C54.005669,59.2296671 54.4749977,59.3579991 54.937,59.534 C55.3990023,59.7100009 55.8426645,59.9446652 56.268,60.238 C56.6933355,60.5313348 57.074665,60.8906645 57.412,61.316 L54.772,63.472 Z" id="DOC" fill="#4B91E3"></path>
                </g>
            </g>
        </g>
    </g>
</svg>