<?xml version="1.0" encoding="UTF-8"?>
<svg width="71px" height="93px" viewBox="0 0 71 93" version="1.1" xmlns="http://www.w3.org/2000/svg" xmlns:xlink="http://www.w3.org/1999/xlink">
    <!-- Generator: Sketch 49.3 (51167) - http://www.bohemiancoding.com/sketch -->
    <title>gif</title>
    <desc>Created with Sketch.</desc>
    <defs></defs>
    <g id="Page-1" stroke="none" stroke-width="1" fill="none" fill-rule="evenodd">
        <g id="png" transform="translate(-679.000000, -1195.000000)">
            <g id="files" transform="translate(43.000000, 230.000000)">
                <g id="gif" transform="translate(636.000000, 965.000000)">
                    <path d="M3,0 L55.7339131,0 L71,18.640625 L71,90 C71,91.6568542 69.6568542,93 68,93 L3,93 C1.34314575,93 2.02906125e-16,91.6568542 0,90 L0,3 C-2.02906125e-16,1.34314575 1.34314575,3.04359188e-16 3,0 Z" id="Rectangle-2" fill="#1D2F44"></path>
                    <path d="M56.1679688,0.083984375 L56.1679688,15.6293945 C56.1679688,17.2862488 57.5111145,18.6293945 59.1679688,18.6293945 L71.0048828,18.6293945 L56.1679688,0.083984375 Z" id="Rectangle-2-Copy" fill="#3A6291"></path>
                    <g id="image" transform="translate(4.000000, 26.000000)">
                        <g id="Group" fill="#A5C5E9">
                            <rect id="Rectangle" x="0" y="0" width="63" height="59" rx="4.5"></rect>
                        </g>
                        <g id="Group-2" transform="translate(9.000000, 13.615385)">
                            <polygon id="Triangle-4" fill="#BB7334" points="11.25 0 22.5 36.3076923 0 36.3076923"></polygon>
                            <path d="M11.25,0 L15.5629578,13.6153846 C15.5629578,13.6153846 15.1130078,15.3494982 13.782074,15.3347591 C13.076436,15.3269446 11.6660558,13.3122772 10.947876,13.6153846 C10.2440359,13.91244 9.76023254,16.7117544 9.22467041,16.7117544 C8.48959351,16.7117544 7.0194397,13.6153846 7.0194397,13.6153846 L11.25,0 Z" id="Triangle-4" fill="#FFFFFF"></path>
                        </g>
                        <path d="M0,40.8461538 C0,40.8461538 14.0462624,46.1461545 28.930794,45.7327507 C35.716949,45.5442716 43.9904975,38.8030037 48.8700727,39.2950675 C54.2877961,39.8413989 63,47.1991696 63,47.1991696 L63,54.5049479 C63,56.9874966 60.9928922,59 58.4944782,59 L4.50552184,59 C2.01719084,59 0,56.9878587 0,54.5008739 L0,40.8461538 Z" id="Rectangle" fill="#70CF47"></path>
                        <ellipse id="Oval-2" fill="#F8E71C" cx="49.5" cy="13.6153846" rx="9" ry="9.07692308"></ellipse>
                    </g>
                    <path d="M16.834,18.1 C16.0059959,18.5320022 15.1420045,18.843999 14.242,19.036 C13.3419955,19.228001 12.4240047,19.324 11.488,19.324 C10.491995,19.324 9.5740042,19.1680016 8.734,18.856 C7.8939958,18.5439984 7.16800306,18.0970029 6.556,17.515 C5.94399694,16.9329971 5.46700171,16.2280041 5.125,15.4 C4.78299829,14.5719959 4.612,13.6480051 4.612,12.628 C4.612,11.6079949 4.78299829,10.6840041 5.125,9.856 C5.46700171,9.02799586 5.94399694,8.32300291 6.556,7.741 C7.16800306,7.15899709 7.8939958,6.71200156 8.734,6.4 C9.5740042,6.08799844 10.491995,5.932 11.488,5.932 C12.5080051,5.932 13.4469957,6.05499877 14.305,6.301 C15.1630043,6.54700123 15.9159968,6.969997 16.564,7.57 L14.584,9.73 C14.1999981,9.33399802 13.7680024,9.03400102 13.288,8.83 C12.8079976,8.62599898 12.2080036,8.524 11.488,8.524 C10.887997,8.524 10.3450024,8.62599898 9.859,8.83 C9.37299757,9.03400102 8.95600174,9.31899817 8.608,9.685 C8.25999826,10.0510018 7.99300093,10.4859975 7.807,10.99 C7.62099907,11.4940025 7.528,12.0399971 7.528,12.628 C7.528,13.228003 7.62099907,13.7769975 7.807,14.275 C7.99300093,14.7730025 8.25999826,15.2049982 8.608,15.571 C8.95600174,15.9370018 9.37299757,16.221999 9.859,16.426 C10.3450024,16.630001 10.887997,16.732 11.488,16.732 C12.1000031,16.732 12.6279978,16.6630007 13.072,16.525 C13.5160022,16.3869993 13.8699987,16.2460007 14.134,16.102 L14.134,14.032 L11.848,14.032 L11.848,11.44 L16.834,11.44 L16.834,18.1 Z M19.264,6.256 L22.072,6.256 L22.072,19 L19.264,19 L19.264,6.256 Z M24.736,6.256 L33.286,6.256 L33.286,8.848 L27.544,8.848 L27.544,11.44 L32.854,11.44 L32.854,14.032 L27.544,14.032 L27.544,19 L24.736,19 L24.736,6.256 Z" id="GIF" fill="#FFFFFF"></path>
                </g>
            </g>
        </g>
    </g>
</svg>