<?xml version="1.0" encoding="UTF-8"?>
<svg width="81px" height="93px" viewBox="0 0 81 93" version="1.1" xmlns="http://www.w3.org/2000/svg" xmlns:xlink="http://www.w3.org/1999/xlink">
    <!-- Generator: Sketch 49.3 (51167) - http://www.bohemiancoding.com/sketch -->
    <title>h</title>
    <desc>Created with Sketch.</desc>
    <defs></defs>
    <g id="Page-1" stroke="none" stroke-width="1" fill="none" fill-rule="evenodd">
        <g id="png" transform="translate(-678.000000, -230.000000)">
            <g id="files" transform="translate(43.000000, 230.000000)">
                <g id="h" transform="translate(635.000000, 0.000000)">
                    <path d="M13,0 L65.7339131,0 L81,18.640625 L81,90 C81,91.6568542 79.6568542,93 78,93 L13,93 C11.3431458,93 10,91.6568542 10,90 L10,3 C10,1.34314575 11.3431458,3.04359188e-16 13,0 Z" id="Rectangle-2" fill="#E6F2FF"></path>
                    <path d="M66.1679688,0.083984375 L66.1679688,15.6293945 C66.1679688,17.2862488 67.5111145,18.6293945 69.1679688,18.6293945 L81.0048828,18.6293945 L66.1679688,0.083984375 Z" id="Rectangle-2-Copy" fill="#AEC3DA"></path>
                    <rect id="Rectangle-3" fill="#33D5E0" x="0" y="53" width="66" height="32" rx="3"></rect>
                    <path d="M26.12,74.28 C26.12,74.0266654 26.1666662,73.7866678 26.26,73.56 C26.3533338,73.3333322 26.4833325,73.1366675 26.65,72.97 C26.8166675,72.8033325 27.0133322,72.6733338 27.24,72.58 C27.4666678,72.4866662 27.7066654,72.44 27.96,72.44 C28.2133346,72.44 28.4533322,72.4866662 28.68,72.58 C28.9066678,72.6733338 29.1033325,72.8033325 29.27,72.97 C29.4366675,73.1366675 29.5666662,73.3333322 29.66,73.56 C29.7533338,73.7866678 29.8,74.0266654 29.8,74.28 C29.8,74.5333346 29.7533338,74.7733322 29.66,75 C29.5666662,75.2266678 29.4366675,75.4233325 29.27,75.59 C29.1033325,75.7566675 28.9066678,75.8866662 28.68,75.98 C28.4533322,76.0733338 28.2133346,76.12 27.96,76.12 C27.7066654,76.12 27.4666678,76.0733338 27.24,75.98 C27.0133322,75.8866662 26.8166675,75.7566675 26.65,75.59 C26.4833325,75.4233325 26.3533338,75.2266678 26.26,75 C26.1666662,74.7733322 26.12,74.5333346 26.12,74.28 Z M34.98,60.88 L34.98,67.6 L35.02,67.6 C35.086667,67.4133324 35.1999992,67.2266676 35.36,67.04 C35.5200008,66.8533324 35.7133322,66.6866674 35.94,66.54 C36.1666678,66.3933326 36.4333318,66.2733338 36.74,66.18 C37.0466682,66.0866662 37.3799982,66.04 37.74,66.04 C38.5000038,66.04 39.113331,66.1566655 39.58,66.39 C40.046669,66.6233345 40.4099987,66.9466646 40.67,67.36 C40.9300013,67.7733354 41.1066662,68.2599972 41.2,68.82 C41.2933338,69.3800028 41.34,69.9866634 41.34,70.64 L41.34,76 L38.34,76 L38.34,71.24 C38.34,70.9599986 38.3300001,70.6700015 38.31,70.37 C38.2899999,70.0699985 38.2300005,69.7933346 38.13,69.54 C38.0299995,69.2866654 37.8766677,69.0800008 37.67,68.92 C37.4633323,68.7599992 37.1666686,68.68 36.78,68.68 C36.3933314,68.68 36.0800012,68.7499993 35.84,68.89 C35.5999988,69.0300007 35.4166673,69.2166655 35.29,69.45 C35.1633327,69.6833345 35.0800002,69.9466652 35.04,70.24 C34.9999998,70.5333348 34.98,70.8399984 34.98,71.16 L34.98,76 L31.98,76 L31.98,60.88 L34.98,60.88 Z" id=".h" fill="#FFFFFF"></path>
                </g>
            </g>
        </g>
    </g>
</svg>