<?xml version="1.0" encoding="UTF-8"?>
<svg width="81px" height="93px" viewBox="0 0 81 93" version="1.1" xmlns="http://www.w3.org/2000/svg" xmlns:xlink="http://www.w3.org/1999/xlink">
    <!-- Generator: Sketch 49.3 (51167) - http://www.bohemiancoding.com/sketch -->
    <title>hpp</title>
    <desc>Created with Sketch.</desc>
    <defs></defs>
    <g id="Page-1" stroke="none" stroke-width="1" fill="none" fill-rule="evenodd">
        <g id="png" transform="translate(-775.000000, -230.000000)">
            <g id="files" transform="translate(43.000000, 230.000000)">
                <g id="hpp" transform="translate(732.000000, 0.000000)">
                    <path d="M13,0 L65.7339131,0 L81,18.640625 L81,90 C81,91.6568542 79.6568542,93 78,93 L13,93 C11.3431458,93 10,91.6568542 10,90 L10,3 C10,1.34314575 11.3431458,3.04359188e-16 13,0 Z" id="Rectangle-2" fill="#E6F2FF"></path>
                    <path d="M66.1679688,0.083984375 L66.1679688,15.6293945 C66.1679688,17.2862488 67.5111145,18.6293945 69.1679688,18.6293945 L81.0048828,18.6293945 L66.1679688,0.083984375 Z" id="Rectangle-2-Copy" fill="#AEC3DA"></path>
                    <rect id="Rectangle-3" fill="#068D96" x="0" y="53" width="66" height="32" rx="3"></rect>
                    <path d="M14.12,74.28 C14.12,74.0266654 14.1666662,73.7866678 14.26,73.56 C14.3533338,73.3333322 14.4833325,73.1366675 14.65,72.97 C14.8166675,72.8033325 15.0133322,72.6733338 15.24,72.58 C15.4666678,72.4866662 15.7066654,72.44 15.96,72.44 C16.2133346,72.44 16.4533322,72.4866662 16.68,72.58 C16.9066678,72.6733338 17.1033325,72.8033325 17.27,72.97 C17.4366675,73.1366675 17.5666662,73.3333322 17.66,73.56 C17.7533338,73.7866678 17.8,74.0266654 17.8,74.28 C17.8,74.5333346 17.7533338,74.7733322 17.66,75 C17.5666662,75.2266678 17.4366675,75.4233325 17.27,75.59 C17.1033325,75.7566675 16.9066678,75.8866662 16.68,75.98 C16.4533322,76.0733338 16.2133346,76.12 15.96,76.12 C15.7066654,76.12 15.4666678,76.0733338 15.24,75.98 C15.0133322,75.8866662 14.8166675,75.7566675 14.65,75.59 C14.4833325,75.4233325 14.3533338,75.2266678 14.26,75 C14.1666662,74.7733322 14.12,74.5333346 14.12,74.28 Z M22.98,60.88 L22.98,67.6 L23.02,67.6 C23.086667,67.4133324 23.1999992,67.2266676 23.36,67.04 C23.5200008,66.8533324 23.7133322,66.6866674 23.94,66.54 C24.1666678,66.3933326 24.4333318,66.2733338 24.74,66.18 C25.0466682,66.0866662 25.3799982,66.04 25.74,66.04 C26.5000038,66.04 27.113331,66.1566655 27.58,66.39 C28.046669,66.6233345 28.4099987,66.9466646 28.67,67.36 C28.9300013,67.7733354 29.1066662,68.2599972 29.2,68.82 C29.2933338,69.3800028 29.34,69.9866634 29.34,70.64 L29.34,76 L26.34,76 L26.34,71.24 C26.34,70.9599986 26.3300001,70.6700015 26.31,70.37 C26.2899999,70.0699985 26.2300005,69.7933346 26.13,69.54 C26.0299995,69.2866654 25.8766677,69.0800008 25.67,68.92 C25.4633323,68.7599992 25.1666686,68.68 24.78,68.68 C24.3933314,68.68 24.0800012,68.7499993 23.84,68.89 C23.5999988,69.0300007 23.4166673,69.2166655 23.29,69.45 C23.1633327,69.6833345 23.0800002,69.9466652 23.04,70.24 C22.9999998,70.5333348 22.98,70.8399984 22.98,71.16 L22.98,76 L19.98,76 L19.98,60.88 L22.98,60.88 Z" id=".h" fill="#FFFFFF"></path>
                    <path d="M30.18,62.68 L34.4,62.68 L34.4,58.46 L36.92,58.46 L36.92,62.68 L41.14,62.68 L41.14,65.2 L36.92,65.2 L36.92,69.42 L34.4,69.42 L34.4,65.2 L30.18,65.2 L30.18,62.68 Z M43.5,62.68 L47.72,62.68 L47.72,58.46 L50.24,58.46 L50.24,62.68 L54.46,62.68 L54.46,65.2 L50.24,65.2 L50.24,69.42 L47.72,69.42 L47.72,65.2 L43.5,65.2 L43.5,62.68 Z" id="++" fill="#B8E986"></path>
                </g>
            </g>
        </g>
    </g>
</svg>