<?xml version="1.0" encoding="UTF-8"?>
<svg width="71px" height="93px" viewBox="0 0 71 93" version="1.1" xmlns="http://www.w3.org/2000/svg" xmlns:xlink="http://www.w3.org/1999/xlink">
    <!-- Generator: Sketch 49.3 (51167) - http://www.bohemiancoding.com/sketch -->
    <title>ico</title>
    <desc>Created with Sketch.</desc>
    <defs></defs>
    <g id="Page-1" stroke="none" stroke-width="1" fill="none" fill-rule="evenodd">
        <g id="png" transform="translate(-678.000000, -1088.000000)">
            <g id="files" transform="translate(43.000000, 230.000000)">
                <g id="ico" transform="translate(635.000000, 858.000000)">
                    <path d="M3,0 L55.7339131,0 L71,18.640625 L71,90 C71,91.6568542 69.6568542,93 68,93 L3,93 C1.34314575,93 2.02906125e-16,91.6568542 0,90 L0,3 C-2.02906125e-16,1.34314575 1.34314575,3.04359188e-16 3,0 Z" id="Rectangle-2" fill="#1D2F44"></path>
                    <path d="M56.1679688,0.083984375 L56.1679688,15.6293945 C56.1679688,17.2862488 57.5111145,18.6293945 59.1679688,18.6293945 L71.0048828,18.6293945 L56.1679688,0.083984375 Z" id="Rectangle-2-Copy" fill="#3A6291"></path>
                    <path d="M8.24,42.344 L13.232,42.344 L13.232,65 L8.24,65 L8.24,42.344 Z M32.592,48.232 C32.1013309,47.6346637 31.4986702,47.1760016 30.784,46.856 C30.0693298,46.5359984 29.2426714,46.376 28.304,46.376 C27.3653286,46.376 26.496004,46.5573315 25.696,46.92 C24.895996,47.2826685 24.2026696,47.7893301 23.616,48.44 C23.0293304,49.0906699 22.5706683,49.8639955 22.24,50.76 C21.9093317,51.6560045 21.744,52.6266614 21.744,53.672 C21.744,54.738672 21.9093317,55.7146622 22.24,56.6 C22.5706683,57.4853378 23.0239971,58.2533301 23.6,58.904 C24.1760029,59.5546699 24.8533294,60.0613315 25.632,60.424 C26.4106706,60.7866685 27.2479955,60.968 28.144,60.968 C29.1680051,60.968 30.0746627,60.7546688 30.864,60.328 C31.6533373,59.9013312 32.3039974,59.3040038 32.816,58.536 L36.976,61.64 C36.0159952,62.9840067 34.8000074,63.9759968 33.328,64.616 C31.8559926,65.2560032 30.3413411,65.576 28.784,65.576 C27.0133245,65.576 25.3813408,65.2986694 23.888,64.744 C22.3946592,64.1893306 21.1040054,63.3946718 20.016,62.36 C18.9279946,61.3253282 18.080003,60.0720074 17.472,58.6 C16.863997,57.1279926 16.56,55.4853424 16.56,53.672 C16.56,51.8586576 16.863997,50.2160074 17.472,48.744 C18.080003,47.2719926 18.9279946,46.0186718 20.016,44.984 C21.1040054,43.9493282 22.3946592,43.1546694 23.888,42.6 C25.3813408,42.0453306 27.0133245,41.768 28.784,41.768 C29.4240032,41.768 30.0906632,41.8266661 30.784,41.944 C31.4773368,42.0613339 32.1599966,42.2479987 32.832,42.504 C33.5040034,42.7600013 34.1493302,43.1013312 34.768,43.528 C35.3866698,43.9546688 35.9413309,44.4773302 36.432,45.096 L32.592,48.232 Z M38.48,53.672 C38.48,51.8586576 38.783997,50.2160074 39.392,48.744 C40.000003,47.2719926 40.8479946,46.0186718 41.936,44.984 C43.0240054,43.9493282 44.3146592,43.1546694 45.808,42.6 C47.3013408,42.0453306 48.9333245,41.768 50.704,41.768 C52.4746755,41.768 54.1066592,42.0453306 55.6,42.6 C57.0933408,43.1546694 58.3839946,43.9493282 59.472,44.984 C60.5600054,46.0186718 61.407997,47.2719926 62.016,48.744 C62.624003,50.2160074 62.928,51.8586576 62.928,53.672 C62.928,55.4853424 62.624003,57.1279926 62.016,58.6 C61.407997,60.0720074 60.5600054,61.3253282 59.472,62.36 C58.3839946,63.3946718 57.0933408,64.1893306 55.6,64.744 C54.1066592,65.2986694 52.4746755,65.576 50.704,65.576 C48.9333245,65.576 47.3013408,65.2986694 45.808,64.744 C44.3146592,64.1893306 43.0240054,63.3946718 41.936,62.36 C40.8479946,61.3253282 40.000003,60.0720074 39.392,58.6 C38.783997,57.1279926 38.48,55.4853424 38.48,53.672 Z M43.664,53.672 C43.664,54.738672 43.8293317,55.7146622 44.16,56.6 C44.4906683,57.4853378 44.9653302,58.2533301 45.584,58.904 C46.2026698,59.5546699 46.9439957,60.0613315 47.808,60.424 C48.6720043,60.7866685 49.637328,60.968 50.704,60.968 C51.770672,60.968 52.7359957,60.7866685 53.6,60.424 C54.4640043,60.0613315 55.2053302,59.5546699 55.824,58.904 C56.4426698,58.2533301 56.9173317,57.4853378 57.248,56.6 C57.5786683,55.7146622 57.744,54.738672 57.744,53.672 C57.744,52.6266614 57.5786683,51.6560045 57.248,50.76 C56.9173317,49.8639955 56.4426698,49.0906699 55.824,48.44 C55.2053302,47.7893301 54.4640043,47.2826685 53.6,46.92 C52.7359957,46.5573315 51.770672,46.376 50.704,46.376 C49.637328,46.376 48.6720043,46.5573315 47.808,46.92 C46.9439957,47.2826685 46.2026698,47.7893301 45.584,48.44 C44.9653302,49.0906699 44.4906683,49.8639955 44.16,50.76 C43.8293317,51.6560045 43.664,52.6266614 43.664,53.672 Z" id="ICO" fill="#42C0A4"></path>
                </g>
            </g>
        </g>
    </g>
</svg>