<?xml version="1.0" encoding="UTF-8"?>
<svg width="81px" height="93px" viewBox="0 0 81 93" version="1.1" xmlns="http://www.w3.org/2000/svg" xmlns:xlink="http://www.w3.org/1999/xlink">
    <!-- Generator: Sketch 49.3 (51167) - http://www.bohemiancoding.com/sketch -->
    <title>java</title>
    <desc>Created with Sketch.</desc>
    <defs></defs>
    <g id="Page-1" stroke="none" stroke-width="1" fill="none" fill-rule="evenodd">
        <g id="png" transform="translate(-378.000000, -230.000000)">
            <g id="files" transform="translate(43.000000, 230.000000)">
                <g id="java" transform="translate(335.000000, 0.000000)">
                    <path d="M13,0 L65.7339131,0 L81,18.640625 L81,90 C81,91.6568542 79.6568542,93 78,93 L13,93 C11.3431458,93 10,91.6568542 10,90 L10,3 C10,1.34314575 11.3431458,3.04359188e-16 13,0 Z" id="Rectangle-2" fill="#E6F2FF"></path>
                    <path d="M66.1679688,0.083984375 L66.1679688,15.6293945 C66.1679688,17.2862488 67.5111145,18.6293945 69.1679688,18.6293945 L81.0048828,18.6293945 L66.1679688,0.083984375 Z" id="Rectangle-2-Copy" fill="#AEC3DA"></path>
                    <rect id="Rectangle-3" fill="#E60000" x="0" y="53" width="66" height="32" rx="3"></rect>
                    <path d="M15.76,69.26 C15.76,69.9133366 15.7033339,70.5466636 15.59,71.16 C15.4766661,71.7733364 15.2600016,72.3166643 14.94,72.79 C14.6199984,73.2633357 14.1633363,73.6433319 13.57,73.93 C12.9766637,74.2166681 12.2000048,74.36 11.24,74.36 C10.1199944,74.36 9.1733372,74.093336 8.4,73.56 C7.6266628,73.026664 7.1266678,72.193339 6.9,71.06 L9.76,70.36 C9.8000002,70.7066684 9.9566653,70.9999988 10.23,71.24 C10.5033347,71.4800012 10.8133316,71.6 11.16,71.6 C11.5200018,71.6 11.799999,71.5100009 12,71.33 C12.200001,71.1499991 12.3466662,70.926668 12.44,70.66 C12.5333338,70.393332 12.5899999,70.1033349 12.61,69.79 C12.6300001,69.4766651 12.64,69.186668 12.64,68.92 L12.64,59.84 L15.76,59.84 L15.76,69.26 Z M23.1,59.84 L25.68,59.84 L31.84,74 L28.32,74 L27.1,71 L21.6,71 L20.42,74 L16.98,74 L23.1,59.84 Z M24.3,63.96 L22.58,68.36 L26.04,68.36 L24.3,63.96 Z M30.62,59.84 L34.18,59.84 L37.68,69.12 L37.72,69.12 L41.28,59.84 L44.62,59.84 L38.78,74 L36.28,74 L30.62,59.84 Z M49.66,59.84 L52.24,59.84 L58.4,74 L54.88,74 L53.66,71 L48.16,71 L46.98,74 L43.54,74 L49.66,59.84 Z M50.86,63.96 L49.14,68.36 L52.6,68.36 L50.86,63.96 Z" id="JAVA" fill="#FFFFFF"></path>
                </g>
            </g>
        </g>
    </g>
</svg>