<?xml version="1.0" encoding="UTF-8"?>
<svg width="81px" height="93px" viewBox="0 0 81 93" version="1.1" xmlns="http://www.w3.org/2000/svg" xmlns:xlink="http://www.w3.org/1999/xlink">
    <!-- Generator: Sketch 49.3 (51167) - http://www.bohemiancoding.com/sketch -->
    <title>log</title>
    <desc>Created with Sketch.</desc>
    <defs></defs>
    <g id="Page-1" stroke="none" stroke-width="1" fill="none" fill-rule="evenodd">
        <g id="png" transform="translate(-478.000000, -659.000000)">
            <g id="files" transform="translate(43.000000, 230.000000)">
                <g id="log" transform="translate(435.000000, 429.000000)">
                    <path d="M13,0 L65.7339131,0 L81,18.640625 L81,90 C81,91.6568542 79.6568542,93 78,93 L13,93 C11.3431458,93 10,91.6568542 10,90 L10,3 C10,1.34314575 11.3431458,3.04359188e-16 13,0 Z" id="Rectangle-2" fill="#E6F2FF"></path>
                    <path d="M66.1679688,0.083984375 L66.1679688,15.6293945 C66.1679688,17.2862488 67.5111145,18.6293945 69.1679688,18.6293945 L81.0048828,18.6293945 L66.1679688,0.083984375 Z" id="Rectangle-2-Copy" fill="#AEC3DA"></path>
                    <rect id="Rectangle-3" fill="#000000" x="0" y="53" width="66" height="32" rx="3"></rect>
                    <path d="M19.21,58.368 L22.51,58.368 L22.51,75 L19.21,75 L19.21,58.368 Z M24.49,69.654 C24.49,68.8033291 24.6439985,68.0333368 24.952,67.344 C25.2600015,66.6546632 25.681664,66.0643358 26.217,65.573 C26.752336,65.0816642 27.3829964,64.7040013 28.109,64.44 C28.8350036,64.1759987 29.6086626,64.044 30.43,64.044 C31.2513374,64.044 32.0249964,64.1759987 32.751,64.44 C33.4770036,64.7040013 34.107664,65.0816642 34.643,65.573 C35.178336,66.0643358 35.5999985,66.6546632 35.908,67.344 C36.2160015,68.0333368 36.37,68.8033291 36.37,69.654 C36.37,70.5046709 36.2160015,71.2746632 35.908,71.964 C35.5999985,72.6533368 35.178336,73.2436642 34.643,73.735 C34.107664,74.2263358 33.4770036,74.6039987 32.751,74.868 C32.0249964,75.1320013 31.2513374,75.264 30.43,75.264 C29.6086626,75.264 28.8350036,75.1320013 28.109,74.868 C27.3829964,74.6039987 26.752336,74.2263358 26.217,73.735 C25.681664,73.2436642 25.2600015,72.6533368 24.952,71.964 C24.6439985,71.2746632 24.49,70.5046709 24.49,69.654 Z M27.79,69.654 C27.79,70.4606707 28.0209977,71.1133308 28.483,71.612 C28.9450023,72.1106692 29.5939958,72.36 30.43,72.36 C31.2660042,72.36 31.9149977,72.1106692 32.377,71.612 C32.8390023,71.1133308 33.07,70.4606707 33.07,69.654 C33.07,68.8473293 32.8390023,68.1946692 32.377,67.696 C31.9149977,67.1973308 31.2660042,66.948 30.43,66.948 C29.5939958,66.948 28.9450023,67.1973308 28.483,67.696 C28.0209977,68.1946692 27.79,68.8473293 27.79,69.654 Z M49.526,74.098 C49.526,76.1220101 49.0163384,77.6583281 47.997,78.707 C46.9776616,79.7556719 45.4266771,80.28 43.344,80.28 C42.3906619,80.28 41.4520046,80.1736677 40.528,79.961 C39.6039954,79.7483323 38.7533372,79.3340031 37.976,78.718 L39.802,75.99 C40.3153359,76.4153355 40.8543305,76.7526654 41.419,77.002 C41.9836695,77.2513346 42.60333,77.376 43.278,77.376 C44.2900051,77.376 45.0343309,77.1303358 45.511,76.639 C45.987669,76.1476642 46.226,75.5206705 46.226,74.758 L46.226,73.724 L46.182,73.724 C45.8006648,74.2373359 45.3276695,74.6003323 44.763,74.813 C44.1983305,75.0256677 43.6666692,75.132 43.168,75.132 C42.375996,75.132 41.6573366,74.9963347 41.012,74.725 C40.3666634,74.4536653 39.8130023,74.0723358 39.351,73.581 C38.8889977,73.0896642 38.5333346,72.50667 38.284,71.832 C38.0346654,71.15733 37.91,70.4166707 37.91,69.61 C37.91,68.9059965 38.0236655,68.21667 38.251,67.542 C38.4783345,66.86733 38.8009979,66.2733359 39.219,65.76 C39.6370021,65.2466641 40.1466637,64.8323349 40.748,64.517 C41.3493363,64.2016651 42.0313295,64.044 42.794,64.044 C43.2633357,64.044 43.6923314,64.0953328 44.081,64.198 C44.4696686,64.3006672 44.8179985,64.4326659 45.126,64.594 C45.4340015,64.7553341 45.6979989,64.934999 45.918,65.133 C46.1380011,65.331001 46.3139993,65.5253324 46.446,65.716 L46.49,65.716 L46.49,64.308 L49.526,64.308 L49.526,74.098 Z M41.21,69.588 C41.21,69.9400018 41.2759993,70.2736651 41.408,70.589 C41.5400007,70.9043349 41.7269988,71.1829988 41.969,71.425 C42.2110012,71.6670012 42.4896651,71.8613326 42.805,72.008 C43.1203349,72.1546674 43.4686648,72.228 43.85,72.228 C44.2166685,72.228 44.5613317,72.1546674 44.884,72.008 C45.2066683,71.8613326 45.4889988,71.6670012 45.731,71.425 C45.9730012,71.1829988 46.1599993,70.9043349 46.292,70.589 C46.4240007,70.2736651 46.49,69.9400018 46.49,69.588 C46.49,69.2359982 46.4240007,68.9023349 46.292,68.587 C46.1599993,68.2716651 45.9730012,67.9930012 45.731,67.751 C45.4889988,67.5089988 45.2066683,67.3146674 44.884,67.168 C44.5613317,67.0213326 44.2166685,66.948 43.85,66.948 C43.4686648,66.948 43.1203349,67.0213326 42.805,67.168 C42.4896651,67.3146674 42.2110012,67.5089988 41.969,67.751 C41.7269988,67.9930012 41.5400007,68.2716651 41.408,68.587 C41.2759993,68.9023349 41.21,69.2359982 41.21,69.588 Z" fill="#FFFFFF"></path>
                </g>
            </g>
        </g>
    </g>
</svg>