<?xml version="1.0" encoding="UTF-8"?>
<svg width="81px" height="93px" viewBox="0 0 81 93" version="1.1" xmlns="http://www.w3.org/2000/svg" xmlns:xlink="http://www.w3.org/1999/xlink">
    <!-- Generator: Sketch 49.3 (51167) - http://www.bohemiancoding.com/sketch -->
    <title>makefile</title>
    <desc>Created with Sketch.</desc>
    <defs></defs>
    <g id="Page-1" stroke="none" stroke-width="1" fill="none" fill-rule="evenodd">
        <g id="png" transform="translate(-478.000000, -766.000000)">
            <g id="files" transform="translate(43.000000, 230.000000)">
                <g id="makefile" transform="translate(435.000000, 536.000000)">
                    <path d="M13,0 L65.7339131,0 L81,18.640625 L81,90 C81,91.6568542 79.6568542,93 78,93 L13,93 C11.3431458,93 10,91.6568542 10,90 L10,3 C10,1.34314575 11.3431458,3.04359188e-16 13,0 Z" id="Rectangle-2" fill="#E6F2FF"></path>
                    <path d="M66.1679688,0.083984375 L66.1679688,15.6293945 C66.1679688,17.2862488 67.5111145,18.6293945 69.1679688,18.6293945 L81.0048828,18.6293945 L66.1679688,0.083984375 Z" id="Rectangle-2-Copy" fill="#AEC3DA"></path>
                    <rect id="Rectangle-3" fill="#8A8A8A" x="0" y="53" width="66" height="32" rx="3"></rect>
                    <path d="M6.742,66.196 L8.758,66.196 L8.758,67.12 L8.786,67.12 C8.85133366,66.9893327 8.94466606,66.8586673 9.066,66.728 C9.18733394,66.5973327 9.33199916,66.4806672 9.5,66.378 C9.66800084,66.2753328 9.85933226,66.1913337 10.074,66.126 C10.2886677,66.0606663 10.5219987,66.028 10.774,66.028 C11.2500024,66.028 11.6723315,66.125999 12.041,66.322 C12.4096685,66.518001 12.6873324,66.8259979 12.874,67.246 C13.1166679,66.8073311 13.4106649,66.4946676 13.756,66.308 C14.1013351,66.1213324 14.5259975,66.028 15.03,66.028 C15.4873356,66.028 15.8723318,66.1049992 16.185,66.259 C16.4976682,66.4130008 16.7449991,66.6229987 16.927,66.889 C17.1090009,67.1550013 17.2396663,67.4676649 17.319,67.827 C17.3983337,68.1863351 17.438,68.5713313 17.438,68.982 L17.438,73 L15.338,73 L15.338,69.038 C15.338,68.7206651 15.270334,68.4476678 15.135,68.219 C14.999666,67.9903322 14.7593351,67.876 14.414,67.876 C14.1713321,67.876 13.9683342,67.9156663 13.805,67.995 C13.6416659,68.0743337 13.5110005,68.1839993 13.413,68.324 C13.3149995,68.4640007 13.2450002,68.6273324 13.203,68.814 C13.1609998,69.0006676 13.14,69.1966656 13.14,69.402 L13.14,73 L11.04,73 L11.04,69.402 C11.04,69.2806661 11.0353334,69.1313342 11.026,68.954 C11.0166666,68.7766658 10.9840003,68.6086675 10.928,68.45 C10.8719997,68.2913325 10.7810006,68.1560006 10.655,68.044 C10.5289994,67.9319994 10.3446679,67.876 10.102,67.876 C9.83133198,67.876 9.61200084,67.9249995 9.444,68.023 C9.27599916,68.1210005 9.14766711,68.2516658 9.059,68.415 C8.97033289,68.5783342 8.91200014,68.7626656 8.884,68.968 C8.85599986,69.1733344 8.842,69.3879989 8.842,69.612 L8.842,73 L6.742,73 L6.742,66.196 Z M23.192,72.146 L23.164,72.146 C22.9306655,72.5100018 22.6203353,72.7713325 22.233,72.93 C21.8456647,73.0886675 21.4373355,73.168 21.008,73.168 C20.6906651,73.168 20.3850015,73.1236671 20.091,73.035 C19.7969985,72.9463329 19.5380011,72.8133342 19.314,72.636 C19.0899989,72.4586658 18.9126673,72.2393346 18.782,71.978 C18.6513327,71.7166654 18.586,71.4133351 18.586,71.068 C18.586,70.675998 18.6583326,70.344668 18.803,70.074 C18.9476674,69.803332 19.1436654,69.5793342 19.391,69.402 C19.6383346,69.2246658 19.9206651,69.0870005 20.238,68.989 C20.5553349,68.8909995 20.8843316,68.8186669 21.225,68.772 C21.5656684,68.7253331 21.9063316,68.6973334 22.247,68.688 C22.5876684,68.6786666 22.9026652,68.674 23.192,68.674 C23.192,68.3006648 23.0590013,68.0043344 22.793,67.785 C22.5269987,67.5656656 22.2120018,67.456 21.848,67.456 C21.5026649,67.456 21.1876681,67.5283326 20.903,67.673 C20.6183319,67.8176674 20.3640011,68.0159987 20.14,68.268 L19.02,67.12 C19.412002,66.7559982 19.8693307,66.4830009 20.392,66.301 C20.9146693,66.1189991 21.4559972,66.028 22.016,66.028 C22.6320031,66.028 23.1383313,66.1049992 23.535,66.259 C23.9316686,66.4130008 24.2489988,66.6393318 24.487,66.938 C24.7250012,67.2366682 24.8906662,67.6029978 24.984,68.037 C25.0773338,68.4710022 25.124,68.9726638 25.124,69.542 L25.124,73 L23.192,73 L23.192,72.146 Z M22.674,70.018 C22.5153325,70.018 22.3170012,70.0249999 22.079,70.039 C21.8409988,70.0530001 21.6123344,70.0926663 21.393,70.158 C21.1736656,70.2233337 20.9870008,70.3213327 20.833,70.452 C20.6789992,70.5826673 20.602,70.7646655 20.602,70.998 C20.602,71.2500013 20.7093323,71.4366661 20.924,71.558 C21.1386677,71.6793339 21.3626655,71.74 21.596,71.74 C21.8013344,71.74 21.9996657,71.7120003 22.191,71.656 C22.3823343,71.5999997 22.5526659,71.5206672 22.702,71.418 C22.8513341,71.3153328 22.9703329,71.1846675 23.059,71.026 C23.1476671,70.8673325 23.192,70.6806677 23.192,70.466 L23.192,70.018 L22.674,70.018 Z M26.44,62.416 L28.54,62.416 L28.54,68.884 L30.864,66.196 L33.44,66.196 L30.738,69.262 L33.51,73 L30.864,73 L28.568,69.556 L28.54,69.556 L28.54,73 L26.44,73 L26.44,62.416 Z M40.664,71.824 C40.3279983,72.2533355 39.9033359,72.5846655 39.39,72.818 C38.8766641,73.0513345 38.3446694,73.168 37.794,73.168 C37.2713307,73.168 36.7790023,73.0840008 36.317,72.916 C35.8549977,72.7479992 35.4536684,72.5076682 35.113,72.195 C34.7723316,71.8823318 34.504001,71.5066689 34.308,71.068 C34.111999,70.6293311 34.014,70.139336 34.014,69.598 C34.014,69.056664 34.111999,68.5666689 34.308,68.128 C34.504001,67.6893311 34.7723316,67.3136682 35.113,67.001 C35.4536684,66.6883318 35.8549977,66.4480008 36.317,66.28 C36.7790023,66.1119992 37.2713307,66.028 37.794,66.028 C38.2793358,66.028 38.7203313,66.1119992 39.117,66.28 C39.5136686,66.4480008 39.8496653,66.6883318 40.125,67.001 C40.4003347,67.3136682 40.6126659,67.6893311 40.762,68.128 C40.9113341,68.5666689 40.986,69.056664 40.986,69.598 L40.986,70.256 L36.114,70.256 C36.1980004,70.6573353 36.3799986,70.9769988 36.66,71.215 C36.9400014,71.4530012 37.2853313,71.572 37.696,71.572 C38.0413351,71.572 38.3329988,71.4950008 38.571,71.341 C38.8090012,71.1869992 39.0166658,70.9886679 39.194,70.746 L40.664,71.824 Z M38.886,68.828 C38.8953334,68.4733316 38.7786679,68.1700013 38.536,67.918 C38.2933321,67.6659987 37.9806686,67.54 37.598,67.54 C37.3646655,67.54 37.1593342,67.577333 36.982,67.652 C36.8046658,67.726667 36.6530006,67.8223328 36.527,67.939 C36.4009994,68.0556672 36.3030003,68.1909992 36.233,68.345 C36.1629997,68.4990008 36.1233334,68.6599992 36.114,68.828 L38.886,68.828 Z M42.61,63.088 L49.26,63.088 L49.26,65.104 L44.794,65.104 L44.794,67.12 L48.924,67.12 L48.924,69.136 L44.794,69.136 L44.794,73 L42.61,73 L42.61,63.088 Z M50.59,66.196 L52.69,66.196 L52.69,73 L50.59,73 L50.59,66.196 Z M50.422,64.054 C50.422,63.7179983 50.5409988,63.4310012 50.779,63.193 C51.0170012,62.9549988 51.3039983,62.836 51.64,62.836 C51.9760017,62.836 52.2629988,62.9549988 52.501,63.193 C52.7390012,63.4310012 52.858,63.7179983 52.858,64.054 C52.858,64.3900017 52.7390012,64.6769988 52.501,64.915 C52.2629988,65.1530012 51.9760017,65.272 51.64,65.272 C51.3039983,65.272 51.0170012,65.1530012 50.779,64.915 C50.5409988,64.6769988 50.422,64.3900017 50.422,64.054 Z M54.23,62.416 L56.33,62.416 L56.33,73 L54.23,73 L54.23,62.416 Z M64.282,71.824 C63.9459983,72.2533355 63.5213359,72.5846655 63.008,72.818 C62.4946641,73.0513345 61.9626694,73.168 61.412,73.168 C60.8893307,73.168 60.3970023,73.0840008 59.935,72.916 C59.4729977,72.7479992 59.0716684,72.5076682 58.731,72.195 C58.3903316,71.8823318 58.122001,71.5066689 57.926,71.068 C57.729999,70.6293311 57.632,70.139336 57.632,69.598 C57.632,69.056664 57.729999,68.5666689 57.926,68.128 C58.122001,67.6893311 58.3903316,67.3136682 58.731,67.001 C59.0716684,66.6883318 59.4729977,66.4480008 59.935,66.28 C60.3970023,66.1119992 60.8893307,66.028 61.412,66.028 C61.8973358,66.028 62.3383313,66.1119992 62.735,66.28 C63.1316687,66.4480008 63.4676653,66.6883318 63.743,67.001 C64.0183347,67.3136682 64.2306659,67.6893311 64.38,68.128 C64.5293341,68.5666689 64.604,69.056664 64.604,69.598 L64.604,70.256 L59.732,70.256 C59.8160004,70.6573353 59.9979986,70.9769988 60.278,71.215 C60.5580014,71.4530012 60.9033313,71.572 61.314,71.572 C61.6593351,71.572 61.9509988,71.4950008 62.189,71.341 C62.4270012,71.1869992 62.6346658,70.9886679 62.812,70.746 L64.282,71.824 Z M62.504,68.828 C62.5133334,68.4733316 62.3966679,68.1700013 62.154,67.918 C61.9113321,67.6659987 61.5986686,67.54 61.216,67.54 C60.9826655,67.54 60.7773342,67.577333 60.6,67.652 C60.4226658,67.726667 60.2710006,67.8223328 60.145,67.939 C60.0189994,68.0556672 59.9210003,68.1909992 59.851,68.345 C59.7809996,68.4990008 59.7413334,68.6599992 59.732,68.828 L62.504,68.828 Z" id="makeFile" fill="#FFFFFF"></path>
                </g>
            </g>
        </g>
    </g>
</svg>