<?xml version="1.0" encoding="UTF-8"?>
<svg width="81px" height="93px" viewBox="0 0 81 93" version="1.1" xmlns="http://www.w3.org/2000/svg" xmlns:xlink="http://www.w3.org/1999/xlink">
    <!-- Generator: Sketch 49.3 (51167) - http://www.bohemiancoding.com/sketch -->
    <title>pdf</title>
    <desc>Created with Sketch.</desc>
    <defs></defs>
    <g id="Page-1" stroke="none" stroke-width="1" fill="none" fill-rule="evenodd">
        <g id="png" transform="translate(-678.000000, -766.000000)">
            <g id="files" transform="translate(43.000000, 230.000000)">
                <g id="pdf" transform="translate(635.000000, 536.000000)">
                    <path d="M13,0 L65.7339131,0 L81,18.640625 L81,90 C81,91.6568542 79.6568542,93 78,93 L13,93 C11.3431458,93 10,91.6568542 10,90 L10,3 C10,1.34314575 11.3431458,3.04359188e-16 13,0 Z" id="Rectangle-2" fill="#E6F2FF"></path>
                    <path d="M66.1679688,0.083984375 L66.1679688,15.6293945 C66.1679688,17.2862488 67.5111145,18.6293945 69.1679688,18.6293945 L81.0048828,18.6293945 L66.1679688,0.083984375 Z" id="Rectangle-2-Copy" fill="#AEC3DA"></path>
                    <rect id="Rectangle-3" fill="#A42929" x="0" y="53" width="66" height="32" rx="3"></rect>
                    <path d="M16.44,60.84 L21.7,60.84 C22.433337,60.84 23.1266634,60.906666 23.78,61.04 C24.4333366,61.173334 25.0033309,61.4033317 25.49,61.73 C25.9766691,62.0566683 26.3633319,62.4966639 26.65,63.05 C26.9366681,63.6033361 27.08,64.2999958 27.08,65.14 C27.08,65.9666708 26.946668,66.6599972 26.68,67.22 C26.413332,67.7800028 26.046669,68.226665 25.58,68.56 C25.113331,68.893335 24.5600032,69.1299993 23.92,69.27 C23.2799968,69.4100007 22.5866704,69.48 21.84,69.48 L19.56,69.48 L19.56,75 L16.44,75 L16.44,60.84 Z M19.56,66.84 L21.64,66.84 C21.9200014,66.84 22.1899987,66.8133336 22.45,66.76 C22.7100013,66.7066664 22.9433323,66.6166673 23.15,66.49 C23.3566677,66.3633327 23.5233327,66.1900011 23.65,65.97 C23.7766673,65.7499989 23.84,65.473335 23.84,65.14 C23.84,64.7799982 23.7566675,64.4900011 23.59,64.27 C23.4233325,64.0499989 23.2100013,63.8800006 22.95,63.76 C22.6899987,63.6399994 22.4000016,63.5633335 22.08,63.53 C21.7599984,63.4966665 21.4533348,63.48 21.16,63.48 L19.56,63.48 L19.56,66.84 Z M29.04,60.84 L33.72,60.84 C34.853339,60.84 35.9299949,60.9666654 36.95,61.22 C37.9700051,61.4733346 38.8599962,61.8833305 39.62,62.45 C40.3800038,63.0166695 40.9833311,63.7533288 41.43,64.66 C41.8766689,65.5666712 42.1,66.6666602 42.1,67.96 C42.1,69.1066724 41.8833355,70.1166623 41.45,70.99 C41.0166645,71.8633377 40.433337,72.5966637 39.7,73.19 C38.966663,73.7833363 38.1200048,74.2333318 37.16,74.54 C36.1999952,74.8466682 35.1933386,75 34.14,75 L29.04,75 L29.04,60.84 Z M32.16,72.12 L33.78,72.12 C34.5000036,72.12 35.1699969,72.0466674 35.79,71.9 C36.4100031,71.7533326 36.9466644,71.5100017 37.4,71.17 C37.8533356,70.8299983 38.2099987,70.3833361 38.47,69.83 C38.7300013,69.2766639 38.86,68.600004 38.86,67.8 C38.86,67.1066632 38.7300013,66.5033359 38.47,65.99 C38.2099987,65.4766641 37.8600022,65.053335 37.42,64.72 C36.9799978,64.386665 36.4633363,64.1366675 35.87,63.97 C35.2766637,63.8033325 34.6533366,63.72 34,63.72 L32.16,63.72 L32.16,72.12 Z M44.34,60.84 L53.84,60.84 L53.84,63.72 L47.46,63.72 L47.46,66.6 L53.36,66.6 L53.36,69.48 L47.46,69.48 L47.46,75 L44.34,75 L44.34,60.84 Z" id="PDF" fill="#FFFFFF"></path>
                </g>
            </g>
        </g>
    </g>
</svg>