<?xml version="1.0" encoding="UTF-8"?>
<svg width="81px" height="93px" viewBox="0 0 81 93" version="1.1" xmlns="http://www.w3.org/2000/svg" xmlns:xlink="http://www.w3.org/1999/xlink">
    <!-- Generator: Sketch 49.3 (51167) - http://www.bohemiancoding.com/sketch -->
    <title>php</title>
    <desc>Created with Sketch.</desc>
    <defs></defs>
    <g id="Page-1" stroke="none" stroke-width="1" fill="none" fill-rule="evenodd">
        <g id="png" transform="translate(-578.000000, -337.000000)">
            <g id="files" transform="translate(43.000000, 230.000000)">
                <g id="php" transform="translate(535.000000, 107.000000)">
                    <path d="M13,0 L65.7339131,0 L81,18.640625 L81,90 C81,91.6568542 79.6568542,93 78,93 L13,93 C11.3431458,93 10,91.6568542 10,90 L10,3 C10,1.34314575 11.3431458,3.04359188e-16 13,0 Z" id="Rectangle-2" fill="#E6F2FF"></path>
                    <path d="M66.1679688,0.083984375 L66.1679688,15.6293945 C66.1679688,17.2862488 67.5111145,18.6293945 69.1679688,18.6293945 L81.0048828,18.6293945 L66.1679688,0.083984375 Z" id="Rectangle-2-Copy" fill="#AEC3DA"></path>
                    <rect id="Rectangle-3" fill="#2B4059" x="0" y="53" width="66" height="32" rx="3"></rect>
                    <path d="M17.34,65.28 L20.1,65.28 L20.1,66.56 L20.14,66.56 C20.2600006,66.3866658 20.4166657,66.2100009 20.61,66.03 C20.8033343,65.8499991 21.0299987,65.6866674 21.29,65.54 C21.5500013,65.3933326 21.8333318,65.2733338 22.14,65.18 C22.4466682,65.0866662 22.7733316,65.04 23.12,65.04 C23.8400036,65.04 24.4933304,65.1633321 25.08,65.41 C25.6666696,65.6566679 26.1699979,66.0033311 26.59,66.45 C27.0100021,66.8966689 27.3333322,67.4266636 27.56,68.04 C27.7866678,68.6533364 27.9,69.326663 27.9,70.06 C27.9,70.7400034 27.7966677,71.3899969 27.59,72.01 C27.3833323,72.6300031 27.0900019,73.1799976 26.71,73.66 C26.3299981,74.1400024 25.8666694,74.5233319 25.32,74.81 C24.7733306,75.0966681 24.1533368,75.24 23.46,75.24 C22.8333302,75.24 22.2500027,75.1433343 21.71,74.95 C21.1699973,74.7566657 20.7266684,74.426669 20.38,73.96 L20.34,73.96 L20.34,79.56 L17.34,79.56 L17.34,65.28 Z M20.1,70.14 C20.1,70.873337 20.3099979,71.4666644 20.73,71.92 C21.1500021,72.3733356 21.7399962,72.6 22.5,72.6 C23.2600038,72.6 23.8499979,72.3733356 24.27,71.92 C24.6900021,71.4666644 24.9,70.873337 24.9,70.14 C24.9,69.406663 24.6900021,68.8133356 24.27,68.36 C23.8499979,67.9066644 23.2600038,67.68 22.5,67.68 C21.7399962,67.68 21.1500021,67.9066644 20.73,68.36 C20.3099979,68.8133356 20.1,69.406663 20.1,70.14 Z M32.66,59.88 L32.66,66.6 L32.7,66.6 C32.766667,66.4133324 32.8799992,66.2266676 33.04,66.04 C33.2000008,65.8533324 33.3933322,65.6866674 33.62,65.54 C33.8466678,65.3933326 34.1133318,65.2733338 34.42,65.18 C34.7266682,65.0866662 35.0599982,65.04 35.42,65.04 C36.1800038,65.04 36.793331,65.1566655 37.26,65.39 C37.726669,65.6233345 38.0899987,65.9466646 38.35,66.36 C38.6100013,66.7733354 38.7866662,67.2599972 38.88,67.82 C38.9733338,68.3800028 39.02,68.9866634 39.02,69.64 L39.02,75 L36.02,75 L36.02,70.24 C36.02,69.9599986 36.0100001,69.6700015 35.99,69.37 C35.9699999,69.0699985 35.9100005,68.7933346 35.81,68.54 C35.7099995,68.2866654 35.5566677,68.0800008 35.35,67.92 C35.1433323,67.7599992 34.8466686,67.68 34.46,67.68 C34.0733314,67.68 33.7600012,67.7499993 33.52,67.89 C33.2799988,68.0300007 33.0966673,68.2166655 32.97,68.45 C32.8433327,68.6833345 32.7600002,68.9466652 32.72,69.24 C32.6799998,69.5333348 32.66,69.8399984 32.66,70.16 L32.66,75 L29.66,75 L29.66,59.88 L32.66,59.88 Z M41.42,65.28 L44.18,65.28 L44.18,66.56 L44.22,66.56 C44.3400006,66.3866658 44.4966657,66.2100009 44.69,66.03 C44.8833343,65.8499991 45.1099987,65.6866674 45.37,65.54 C45.6300013,65.3933326 45.9133318,65.2733338 46.22,65.18 C46.5266682,65.0866662 46.8533316,65.04 47.2,65.04 C47.9200036,65.04 48.5733304,65.1633321 49.16,65.41 C49.7466696,65.6566679 50.2499979,66.0033311 50.67,66.45 C51.0900021,66.8966689 51.4133322,67.4266636 51.64,68.04 C51.8666678,68.6533364 51.98,69.326663 51.98,70.06 C51.98,70.7400034 51.8766677,71.3899969 51.67,72.01 C51.4633323,72.6300031 51.1700019,73.1799976 50.79,73.66 C50.4099981,74.1400024 49.9466694,74.5233319 49.4,74.81 C48.8533306,75.0966681 48.2333368,75.24 47.54,75.24 C46.9133302,75.24 46.3300027,75.1433343 45.79,74.95 C45.2499973,74.7566657 44.8066684,74.426669 44.46,73.96 L44.42,73.96 L44.42,79.56 L41.42,79.56 L41.42,65.28 Z M44.18,70.14 C44.18,70.873337 44.3899979,71.4666644 44.81,71.92 C45.2300021,72.3733356 45.8199962,72.6 46.58,72.6 C47.3400038,72.6 47.9299979,72.3733356 48.35,71.92 C48.7700021,71.4666644 48.98,70.873337 48.98,70.14 C48.98,69.406663 48.7700021,68.8133356 48.35,68.36 C47.9299979,67.9066644 47.3400038,67.68 46.58,67.68 C45.8199962,67.68 45.2300021,67.9066644 44.81,68.36 C44.3899979,68.8133356 44.18,69.406663 44.18,70.14 Z" fill="#FFFFFF"></path>
                </g>
            </g>
        </g>
    </g>
</svg>