<?xml version="1.0" encoding="UTF-8"?>
<svg width="71px" height="93px" viewBox="0 0 71 93" version="1.1" xmlns="http://www.w3.org/2000/svg" xmlns:xlink="http://www.w3.org/1999/xlink">
    <!-- Generator: Sketch 49.3 (51167) - http://www.bohemiancoding.com/sketch -->
    <title>playlist</title>
    <desc>Created with Sketch.</desc>
    <defs></defs>
    <g id="Page-1" stroke="none" stroke-width="1" fill="none" fill-rule="evenodd">
        <g id="png" transform="translate(-578.000000, -1302.000000)">
            <g id="files" transform="translate(43.000000, 230.000000)">
                <g id="playlist" transform="translate(535.000000, 1072.000000)">
                    <path d="M3,0 L55.7339131,0 L71,18.640625 L71,90 C71,91.6568542 69.6568542,93 68,93 L3,93 C1.34314575,93 2.02906125e-16,91.6568542 0,90 L0,3 C-2.02906125e-16,1.34314575 1.34314575,3.04359188e-16 3,0 Z" id="Rectangle-2" fill="#1D2F44"></path>
                    <path d="M56.1679688,0.083984375 L56.1679688,15.6293945 C56.1679688,17.2862488 57.5111145,18.6293945 59.1679688,18.6293945 L71.0048828,18.6293945 L56.1679688,0.083984375 Z" id="Rectangle-2-Copy" fill="#3A6291"></path>
                    <path d="M7.936,63.796 L11.355,63.796 C11.8316691,63.796 12.2823312,63.8393329 12.707,63.926 C13.1316688,64.0126671 13.5021651,64.1621656 13.8185,64.3745 C14.1348349,64.5868344 14.3861657,64.8728315 14.5725,65.2325 C14.7588343,65.5921685 14.852,66.0449973 14.852,66.591 C14.852,67.128336 14.7653342,67.5789982 14.592,67.943 C14.4186658,68.3070018 14.1803349,68.5973322 13.877,68.814 C13.5736652,69.0306677 13.2140021,69.1844995 12.798,69.2755 C12.3819979,69.3665005 11.9313358,69.412 11.446,69.412 L9.964,69.412 L9.964,73 L7.936,73 L7.936,63.796 Z M9.964,67.696 L11.316,67.696 C11.4980009,67.696 11.6734992,67.6786668 11.8425,67.644 C12.0115008,67.6093332 12.163166,67.5508337 12.2975,67.4685 C12.431834,67.3861663 12.5401663,67.2735007 12.6225,67.1305 C12.7048337,66.9874993 12.746,66.8076678 12.746,66.591 C12.746,66.3569988 12.6918339,66.1685007 12.5835,66.0255 C12.4751661,65.8824993 12.3365008,65.7720004 12.1675,65.694 C11.9984992,65.6159996 11.810001,65.5661668 11.602,65.5445 C11.393999,65.5228332 11.1946676,65.512 11.004,65.512 L9.964,65.512 L9.964,67.696 Z M16.204,63.796 L18.232,63.796 L18.232,71.128 L21.989,71.128 L21.989,73 L16.204,73 L16.204,63.796 Z M26.136,63.796 L27.813,63.796 L31.817,73 L29.529,73 L28.736,71.05 L25.161,71.05 L24.394,73 L22.158,73 L26.136,63.796 Z M26.916,66.474 L25.798,69.334 L28.047,69.334 L26.916,66.474 Z M34.04,69.074 L30.582,63.796 L33.104,63.796 L35.054,67.241 L37.121,63.796 L39.526,63.796 L36.068,69.074 L36.068,73 L34.04,73 L34.04,69.074 Z M40.28,63.796 L42.308,63.796 L42.308,71.128 L46.065,71.128 L46.065,73 L40.28,73 L40.28,63.796 Z M47.157,63.796 L49.185,63.796 L49.185,73 L47.157,73 L47.157,63.796 Z M55.581,66.045 C55.4163325,65.836999 55.1931681,65.6831672 54.9115,65.5835 C54.6298319,65.4838328 54.3633346,65.434 54.112,65.434 C53.9646659,65.434 53.8130008,65.4513332 53.657,65.486 C53.5009992,65.5206668 53.3536674,65.574833 53.215,65.6485 C53.0763326,65.722167 52.9636671,65.8196661 52.877,65.941 C52.7903329,66.0623339 52.747,66.2096658 52.747,66.383 C52.747,66.6603347 52.850999,66.8726659 53.059,67.02 C53.267001,67.1673341 53.5291651,67.2929995 53.8455,67.397 C54.1618349,67.5010005 54.5019982,67.6049995 54.866,67.709 C55.2300018,67.8130005 55.5701651,67.9603324 55.8865,68.151 C56.2028349,68.3416676 56.464999,68.5973317 56.673,68.918 C56.881001,69.2386683 56.985,69.667664 56.985,70.205 C56.985,70.7163359 56.8896676,71.1626648 56.699,71.544 C56.5083324,71.9253352 56.2505016,72.2416654 55.9255,72.493 C55.6004984,72.7443346 55.2235021,72.9306661 54.7945,73.052 C54.3654979,73.1733339 53.9126691,73.234 53.436,73.234 C52.837997,73.234 52.2833359,73.1430009 51.772,72.961 C51.2606641,72.7789991 50.7840022,72.4843354 50.342,72.077 L51.785,70.491 C51.993001,70.7683347 52.2551651,70.9828326 52.5715,71.1345 C52.8878349,71.2861674 53.2149983,71.362 53.553,71.362 C53.7176675,71.362 53.8844992,71.3425002 54.0535,71.3035 C54.2225008,71.2644998 54.374166,71.2060004 54.5085,71.128 C54.642834,71.0499996 54.7511663,70.9503339 54.8335,70.829 C54.9158337,70.7076661 54.957,70.5646675 54.957,70.4 C54.957,70.1226653 54.8508344,69.9038341 54.6385,69.7435 C54.4261656,69.5831659 54.1596683,69.4466672 53.839,69.334 C53.5183317,69.2213328 53.1716685,69.1086672 52.799,68.996 C52.4263315,68.8833328 52.0796683,68.7316676 51.759,68.541 C51.4383317,68.3503324 51.1718344,68.0990016 50.9595,67.787 C50.7471656,67.4749984 50.641,67.0633359 50.641,66.552 C50.641,66.0579975 50.738499,65.6246685 50.9335,65.252 C51.128501,64.8793315 51.3884984,64.5673346 51.7135,64.316 C52.0385016,64.0646654 52.4133312,63.8761673 52.838,63.7505 C53.2626688,63.6248327 53.7003311,63.562 54.151,63.562 C54.6710026,63.562 55.1736642,63.6356659 55.659,63.783 C56.1443358,63.9303341 56.5819981,64.1773316 56.972,64.524 L55.581,66.045 Z M60.274,65.59 L57.648,65.59 L57.648,63.796 L64.928,63.796 L64.928,65.59 L62.302,65.59 L62.302,73 L60.274,73 L60.274,65.59 Z" id="PLAYLIST" fill="#FFFFFF"></path>
                    <polygon id="Triangle-3" fill="#B64D9A" points="52 39.5 24 55 24 24"></polygon>
                </g>
            </g>
        </g>
    </g>
</svg>