<?xml version="1.0" encoding="UTF-8"?>
<svg width="81px" height="93px" viewBox="0 0 81 93" version="1.1" xmlns="http://www.w3.org/2000/svg" xmlns:xlink="http://www.w3.org/1999/xlink">
    <!-- Generator: Sketch 49.3 (51167) - http://www.bohemiancoding.com/sketch -->
    <title>ps</title>
    <desc>Created with Sketch.</desc>
    <defs></defs>
    <g id="Page-1" stroke="none" stroke-width="1" fill="none" fill-rule="evenodd">
        <g id="png" transform="translate(-578.000000, -659.000000)">
            <g id="files" transform="translate(43.000000, 230.000000)">
                <g id="ps" transform="translate(535.000000, 429.000000)">
                    <path d="M13,0 L65.7339131,0 L81,18.640625 L81,90 C81,91.6568542 79.6568542,93 78,93 L13,93 C11.3431458,93 10,91.6568542 10,90 L10,3 C10,1.34314575 11.3431458,3.04359188e-16 13,0 Z" id="Rectangle-2" fill="#E6F2FF"></path>
                    <path d="M66.1679688,0.083984375 L66.1679688,15.6293945 C66.1679688,17.2862488 67.5111145,18.6293945 69.1679688,18.6293945 L81.0048828,18.6293945 L66.1679688,0.083984375 Z" id="Rectangle-2-Copy" fill="#AEC3DA"></path>
                    <rect id="Rectangle-3" fill="#BB9472" x="0" y="53" width="66" height="32" rx="3"></rect>
                    <path d="M20.584,60.424 L26.37,60.424 C27.1766707,60.424 27.9393297,60.4973326 28.658,60.644 C29.3766703,60.7906674 30.003664,61.0436649 30.539,61.403 C31.074336,61.7623351 31.4996651,62.2463303 31.815,62.855 C32.1303349,63.4636697 32.288,64.2299954 32.288,65.154 C32.288,66.0633379 32.1413348,66.8259969 31.848,67.442 C31.5546652,68.0580031 31.1513359,68.5493315 30.638,68.916 C30.1246641,69.2826685 29.5160035,69.5429992 28.812,69.697 C28.1079965,69.8510008 27.3453374,69.928 26.524,69.928 L24.016,69.928 L24.016,76 L20.584,76 L20.584,60.424 Z M24.016,67.024 L26.304,67.024 C26.6120015,67.024 26.9089986,66.994667 27.195,66.936 C27.4810014,66.877333 27.7376655,66.778334 27.965,66.639 C28.1923345,66.499666 28.375666,66.3090012 28.515,66.067 C28.654334,65.8249988 28.724,65.5206685 28.724,65.154 C28.724,64.757998 28.6323342,64.4390012 28.449,64.197 C28.2656658,63.9549988 28.0310014,63.7680007 27.745,63.636 C27.4589986,63.5039993 27.1400018,63.4196668 26.788,63.383 C26.4359982,63.3463332 26.0986683,63.328 25.776,63.328 L24.016,63.328 L24.016,67.024 Z M42.144,64.23 C41.8653319,63.8779982 41.487669,63.6176675 41.011,63.449 C40.5343309,63.2803325 40.0833355,63.196 39.658,63.196 C39.4086654,63.196 39.1520013,63.225333 38.888,63.284 C38.6239987,63.342667 38.3746678,63.4343327 38.14,63.559 C37.9053322,63.6836673 37.7146674,63.8486656 37.568,64.054 C37.4213326,64.2593344 37.348,64.5086652 37.348,64.802 C37.348,65.2713357 37.5239982,65.6306654 37.876,65.88 C38.2280018,66.1293346 38.671664,66.3419991 39.207,66.518 C39.742336,66.6940009 40.3179969,66.8699991 40.934,67.046 C41.5500031,67.2220009 42.125664,67.4713317 42.661,67.794 C43.196336,68.1166683 43.6399982,68.5493306 43.992,69.092 C44.3440018,69.6346694 44.52,70.3606621 44.52,71.27 C44.52,72.1353377 44.3586683,72.8906634 44.036,73.536 C43.7133317,74.1813366 43.2770027,74.7166645 42.727,75.142 C42.1769972,75.5673355 41.5390036,75.8826656 40.813,76.088 C40.0869964,76.2933344 39.3206707,76.396 38.514,76.396 C37.5019949,76.396 36.5633377,76.2420015 35.698,75.934 C34.8326623,75.6259985 34.0260037,75.1273368 33.278,74.438 L35.72,71.754 C36.0720018,72.2233357 36.515664,72.586332 37.051,72.843 C37.586336,73.0996679 38.1399971,73.228 38.712,73.228 C38.9906681,73.228 39.2729986,73.1950003 39.559,73.129 C39.8450014,73.0629997 40.1016655,72.9640007 40.329,72.832 C40.5563345,72.6999993 40.739666,72.5313344 40.879,72.326 C41.018334,72.1206656 41.088,71.8786681 41.088,71.6 C41.088,71.1306643 40.9083351,70.7603347 40.549,70.489 C40.1896649,70.2176653 39.7386694,69.9866676 39.196,69.796 C38.6533306,69.6053324 38.0666698,69.4146676 37.436,69.224 C36.8053302,69.0333324 36.2186694,68.7766683 35.676,68.454 C35.1333306,68.1313317 34.6823351,67.7060026 34.323,67.178 C33.9636649,66.6499974 33.784,65.9533377 33.784,65.088 C33.784,64.2519958 33.9489983,63.5186698 34.279,62.888 C34.6090016,62.2573302 35.0489972,61.7293355 35.599,61.304 C36.1490028,60.8786645 36.7833297,60.5596677 37.502,60.347 C38.2206703,60.1343323 38.9613295,60.028 39.724,60.028 C40.6040044,60.028 41.4546626,60.1526654 42.276,60.402 C43.0973374,60.6513346 43.8379967,61.0693304 44.498,61.656 L42.144,64.23 Z" id="PS" fill="#FFFFFF"></path>
                </g>
            </g>
        </g>
    </g>
</svg>