<?xml version="1.0" encoding="UTF-8"?>
<svg width="81px" height="93px" viewBox="0 0 81 93" version="1.1" xmlns="http://www.w3.org/2000/svg" xmlns:xlink="http://www.w3.org/1999/xlink">
    <!-- Generator: Sketch 49.3 (51167) - http://www.bohemiancoding.com/sketch -->
    <title>psd</title>
    <desc>Created with Sketch.</desc>
    <defs></defs>
    <g id="Page-1" stroke="none" stroke-width="1" fill="none" fill-rule="evenodd">
        <g id="png" transform="translate(-378.000000, -981.000000)">
            <g id="files" transform="translate(43.000000, 230.000000)">
                <g id="psd" transform="translate(335.000000, 751.000000)">
                    <path d="M13,0 L65.7339131,0 L81,18.640625 L81,90 C81,91.6568542 79.6568542,93 78,93 L13,93 C11.3431458,93 10,91.6568542 10,90 L10,3 C10,1.34314575 11.3431458,3.04359188e-16 13,0 Z" id="Rectangle-2" fill="#E6F2FF"></path>
                    <path d="M66.1679688,0.083984375 L66.1679688,15.6293945 C66.1679688,17.2862488 67.5111145,18.6293945 69.1679688,18.6293945 L81.0048828,18.6293945 L66.1679688,0.083984375 Z" id="Rectangle-2-Copy" fill="#AEC3DA"></path>
                    <rect id="Rectangle-3" fill="#4A4A4A" x="0" y="53" width="66" height="32" rx="3"></rect>
                    <path d="M14.584,59.424 L20.37,59.424 C21.1766707,59.424 21.9393297,59.4973326 22.658,59.644 C23.3766703,59.7906674 24.003664,60.0436649 24.539,60.403 C25.074336,60.7623351 25.4996651,61.2463303 25.815,61.855 C26.1303349,62.4636697 26.288,63.2299954 26.288,64.154 C26.288,65.0633379 26.1413348,65.8259969 25.848,66.442 C25.5546652,67.0580031 25.1513359,67.5493315 24.638,67.916 C24.1246641,68.2826685 23.5160035,68.5429992 22.812,68.697 C22.1079965,68.8510008 21.3453374,68.928 20.524,68.928 L18.016,68.928 L18.016,75 L14.584,75 L14.584,59.424 Z M18.016,66.024 L20.304,66.024 C20.6120015,66.024 20.9089986,65.994667 21.195,65.936 C21.4810014,65.877333 21.7376655,65.778334 21.965,65.639 C22.1923345,65.499666 22.375666,65.3090012 22.515,65.067 C22.654334,64.8249988 22.724,64.5206685 22.724,64.154 C22.724,63.757998 22.6323342,63.4390012 22.449,63.197 C22.2656658,62.9549988 22.0310014,62.7680007 21.745,62.636 C21.4589986,62.5039993 21.1400018,62.4196668 20.788,62.383 C20.4359982,62.3463332 20.0986683,62.328 19.776,62.328 L18.016,62.328 L18.016,66.024 Z M36.144,63.23 C35.8653319,62.8779982 35.487669,62.6176675 35.011,62.449 C34.5343309,62.2803325 34.0833355,62.196 33.658,62.196 C33.4086654,62.196 33.1520013,62.225333 32.888,62.284 C32.6239987,62.342667 32.3746678,62.4343327 32.14,62.559 C31.9053322,62.6836673 31.7146674,62.8486656 31.568,63.054 C31.4213326,63.2593344 31.348,63.5086652 31.348,63.802 C31.348,64.2713357 31.5239982,64.6306654 31.876,64.88 C32.2280018,65.1293346 32.671664,65.3419991 33.207,65.518 C33.742336,65.6940009 34.3179969,65.8699991 34.934,66.046 C35.5500031,66.2220009 36.125664,66.4713317 36.661,66.794 C37.196336,67.1166683 37.6399982,67.5493306 37.992,68.092 C38.3440018,68.6346694 38.52,69.3606621 38.52,70.27 C38.52,71.1353377 38.3586683,71.8906634 38.036,72.536 C37.7133317,73.1813366 37.2770027,73.7166645 36.727,74.142 C36.1769972,74.5673355 35.5390036,74.8826656 34.813,75.088 C34.0869964,75.2933344 33.3206707,75.396 32.514,75.396 C31.5019949,75.396 30.5633377,75.2420015 29.698,74.934 C28.8326623,74.6259985 28.0260037,74.1273368 27.278,73.438 L29.72,70.754 C30.0720018,71.2233357 30.515664,71.586332 31.051,71.843 C31.586336,72.0996679 32.1399971,72.228 32.712,72.228 C32.9906681,72.228 33.2729986,72.1950003 33.559,72.129 C33.8450014,72.0629997 34.1016655,71.9640007 34.329,71.832 C34.5563345,71.6999993 34.739666,71.5313344 34.879,71.326 C35.018334,71.1206656 35.088,70.8786681 35.088,70.6 C35.088,70.1306643 34.9083351,69.7603347 34.549,69.489 C34.1896649,69.2176653 33.7386694,68.9866676 33.196,68.796 C32.6533306,68.6053324 32.0666698,68.4146676 31.436,68.224 C30.8053302,68.0333324 30.2186694,67.7766683 29.676,67.454 C29.1333306,67.1313317 28.6823351,66.7060026 28.323,66.178 C27.9636649,65.6499974 27.784,64.9533377 27.784,64.088 C27.784,63.2519958 27.9489984,62.5186698 28.279,61.888 C28.6090016,61.2573302 29.0489972,60.7293355 29.599,60.304 C30.1490028,59.8786645 30.7833297,59.5596677 31.502,59.347 C32.2206703,59.1343323 32.9613295,59.028 33.724,59.028 C34.6040044,59.028 35.4546626,59.1526654 36.276,59.402 C37.0973374,59.6513346 37.8379967,60.0693304 38.498,60.656 L36.144,63.23 Z M41.072,59.424 L46.22,59.424 C47.4666729,59.424 48.6509944,59.5633319 49.773,59.842 C50.8950056,60.1206681 51.8739958,60.5716636 52.71,61.195 C53.5460042,61.8183365 54.2096642,62.6286617 54.701,63.626 C55.1923358,64.6233383 55.438,65.8333262 55.438,67.256 C55.438,68.5173396 55.199669,69.6283285 54.723,70.589 C54.246331,71.5496715 53.6046707,72.3563301 52.798,73.009 C51.9913293,73.6616699 51.0600053,74.156665 50.004,74.494 C48.9479947,74.831335 47.8406725,75 46.682,75 L41.072,75 L41.072,59.424 Z M44.504,71.832 L46.286,71.832 C47.078004,71.832 47.8149966,71.7513341 48.497,71.59 C49.1790034,71.4286659 49.7693308,71.1610019 50.268,70.787 C50.7666692,70.4129981 51.1589986,69.9216697 51.445,69.313 C51.7310014,68.7043303 51.874,67.9600044 51.874,67.08 C51.874,66.3173295 51.7310014,65.6536695 51.445,65.089 C51.1589986,64.5243305 50.7740024,64.0586685 50.29,63.692 C49.8059976,63.3253315 49.2376699,63.0503343 48.585,62.867 C47.9323301,62.6836658 47.2466703,62.592 46.528,62.592 L44.504,62.592 L44.504,71.832 Z" id="PSD" fill="#4A90E2"></path>
                </g>
            </g>
        </g>
    </g>
</svg>