<?xml version="1.0" encoding="UTF-8"?>
<svg width="81px" height="93px" viewBox="0 0 81 93" version="1.1" xmlns="http://www.w3.org/2000/svg" xmlns:xlink="http://www.w3.org/1999/xlink">
    <!-- Generator: Sketch 49.3 (51167) - http://www.bohemiancoding.com/sketch -->
    <title>py</title>
    <desc>Created with Sketch.</desc>
    <defs></defs>
    <g id="Page-1" stroke="none" stroke-width="1" fill="none" fill-rule="evenodd">
        <g id="png" transform="translate(-378.000000, -337.000000)">
            <g id="files" transform="translate(43.000000, 230.000000)">
                <g id="py" transform="translate(335.000000, 107.000000)">
                    <path d="M13,0 L65.7339131,0 L81,18.640625 L81,90 C81,91.6568542 79.6568542,93 78,93 L13,93 C11.3431458,93 10,91.6568542 10,90 L10,3 C10,1.34314575 11.3431458,3.04359188e-16 13,0 Z" id="Rectangle-2" fill="#E6F2FF"></path>
                    <path d="M66.1679688,0.083984375 L66.1679688,15.6293945 C66.1679688,17.2862488 67.5111145,18.6293945 69.1679688,18.6293945 L81.0048828,18.6293945 L66.1679688,0.083984375 Z" id="Rectangle-2-Copy" fill="#AEC3DA"></path>
                    <rect id="Rectangle-3" fill="#3773A5" x="0" y="53" width="66" height="32" rx="3"></rect>
                    <path d="M21.34,63.28 L24.1,63.28 L24.1,64.56 L24.14,64.56 C24.2600006,64.3866658 24.4166657,64.2100009 24.61,64.03 C24.8033343,63.8499991 25.0299987,63.6866674 25.29,63.54 C25.5500013,63.3933326 25.8333318,63.2733338 26.14,63.18 C26.4466682,63.0866662 26.7733316,63.04 27.12,63.04 C27.8400036,63.04 28.4933304,63.1633321 29.08,63.41 C29.6666696,63.6566679 30.1699979,64.0033311 30.59,64.45 C31.0100021,64.8966689 31.3333322,65.4266636 31.56,66.04 C31.7866678,66.6533364 31.9,67.326663 31.9,68.06 C31.9,68.7400034 31.7966677,69.3899969 31.59,70.01 C31.3833323,70.6300031 31.0900019,71.1799976 30.71,71.66 C30.3299981,72.1400024 29.8666694,72.5233319 29.32,72.81 C28.7733306,73.0966681 28.1533368,73.24 27.46,73.24 C26.8333302,73.24 26.2500027,73.1433343 25.71,72.95 C25.1699973,72.7566657 24.7266684,72.426669 24.38,71.96 L24.34,71.96 L24.34,77.56 L21.34,77.56 L21.34,63.28 Z M24.1,68.14 C24.1,68.873337 24.3099979,69.4666644 24.73,69.92 C25.1500021,70.3733356 25.7399962,70.6 26.5,70.6 C27.2600038,70.6 27.8499979,70.3733356 28.27,69.92 C28.6900021,69.4666644 28.9,68.873337 28.9,68.14 C28.9,67.406663 28.6900021,66.8133356 28.27,66.36 C27.8499979,65.9066644 27.2600038,65.68 26.5,65.68 C25.7399962,65.68 25.1500021,65.9066644 24.73,66.36 C24.3099979,66.8133356 24.1,67.406663 24.1,68.14 Z M39.26,74.58 C39.059999,75.1000026 38.8666676,75.559998 38.68,75.96 C38.4933324,76.360002 38.2566681,76.6966653 37.97,76.97 C37.6833319,77.2433347 37.3200022,77.4499993 36.88,77.59 C36.4399978,77.7300007 35.8600036,77.8 35.14,77.8 C34.3666628,77.8 33.6200036,77.6800012 32.9,77.44 L33.3,74.98 C33.7533356,75.180001 34.2199976,75.28 34.7,75.28 C35.033335,75.28 35.3066656,75.2433337 35.52,75.17 C35.7333344,75.0966663 35.9099993,74.9900007 36.05,74.85 C36.1900007,74.7099993 36.3066662,74.540001 36.4,74.34 C36.4933338,74.139999 36.5933328,73.906668 36.7,73.64 L36.92,73.08 L32.66,63.28 L35.9,63.28 L38.4,69.7 L38.44,69.7 L40.58,63.28 L43.66,63.28 L39.26,74.58 Z" fill="#FFD748"></path>
                </g>
            </g>
        </g>
    </g>
</svg>