<?xml version="1.0" encoding="UTF-8"?>
<svg width="79px" height="72px" viewBox="0 0 79 72" version="1.1" xmlns="http://www.w3.org/2000/svg" xmlns:xlink="http://www.w3.org/1999/xlink">
    <!-- Generator: Sketch 49.3 (51167) - http://www.bohemiancoding.com/sketch -->
    <title>rar</title>
    <desc>Created with Sketch.</desc>
    <defs></defs>
    <g id="Page-1" stroke="none" stroke-width="1" fill="none" fill-rule="evenodd">
        <g id="png" transform="translate(-575.000000, -139.000000)">
            <g id="Archives-icons" transform="translate(43.000000, 139.000000)">
                <g id="rar" transform="translate(532.000000, 0.000000)">
                    <g id="Group-3">
                        <rect id="Rectangle-6" fill="#9013FE" x="0" y="13.752809" width="58.6391753" height="58.247191"></rect>
                        <polygon id="Rectangle-6-Copy-2" fill="#6C07C6" points="58.6391753 13.752809 78.4013043 0.0578695576 78.4013043 56.5083392 58.6391753 72"></polygon>
                        <polygon id="Rectangle-6-Copy" fill="#A846FF" points="19.8772552 0 78.5164304 0 58.6391753 13.752809 0 13.752809"></polygon>
                    </g>
                    <g id="zip" transform="translate(8.958763, 14.325843)">
                        <rect id="Rectangle" fill="#3E3E3E" x="-8.8817842e-16" y="0" width="8.1443299" height="33.9775281"></rect>
                        <rect id="Path" fill="#F4F4F4" x="3.25773196" y="29.9325843" width="2.44329897" height="2.42696629"></rect>
                        <rect id="Path" fill="#F4F4F4" x="3.25773196" y="10.5168539" width="2.44329897" height="2.42696629"></rect>
                        <g id="Group" transform="translate(3.257732, 0.000000)" fill="#B1B1B1">
                            <rect id="Path" x="0" y="3.23595506" width="2.44329897" height="4.85393258"></rect>
                            <polygon id="Path" transform="translate(3.257732, 2.831461) rotate(25.000000) translate(-3.257732, -2.831461) " points="2.41926903 0.808988764 4.88659794 0.808988764 2.6349522 4.85393258 1.62886598 4.6995287"></polygon>
                        </g>
                        <rect id="Path" fill="#F4F4F4" x="3.25773196" y="15.3707865" width="2.44329897" height="2.42696629"></rect>
                        <rect id="Path" fill="#F4F4F4" x="3.25773196" y="20.2247191" width="2.44329897" height="2.42696629"></rect>
                        <rect id="Path" fill="#F4F4F4" x="3.25773196" y="25.0786517" width="2.44329897" height="2.42696629"></rect>
                    </g>
                    <path d="M24,20 L28.384,20 C28.9600029,20 29.5066641,20.0559994 30.024,20.168 C30.5413359,20.2800006 30.9946647,20.4666654 31.384,20.728 C31.7733353,20.9893346 32.0826655,21.3413311 32.312,21.784 C32.5413345,22.2266689 32.656,22.7786634 32.656,23.44 C32.656,24.240004 32.4480021,24.9199972 32.032,25.48 C31.6159979,26.0400028 31.008004,26.3946659 30.208,26.544 L33.088,31.328 L30.096,31.328 L27.728,26.8 L26.496,26.8 L26.496,31.328 L24,31.328 L24,20 Z M26.496,24.688 L27.968,24.688 C28.1920011,24.688 28.4293321,24.6800001 28.68,24.664 C28.9306679,24.6479999 29.1573323,24.6000004 29.36,24.52 C29.5626677,24.4399996 29.730666,24.3146675 29.864,24.144 C29.997334,23.9733325 30.064,23.7333349 30.064,23.424 C30.064,23.1359986 30.0053339,22.9066675 29.888,22.736 C29.7706661,22.5653325 29.6213342,22.4346671 29.44,22.344 C29.2586658,22.2533329 29.0506678,22.1920002 28.816,22.16 C28.5813322,22.1279998 28.3520011,22.112 28.128,22.112 L26.496,22.112 L26.496,24.688 Z M38.096,20 L40.16,20 L45.088,31.328 L42.272,31.328 L41.296,28.928 L36.896,28.928 L35.952,31.328 L33.2,31.328 L38.096,20 Z M39.056,23.296 L37.68,26.816 L40.448,26.816 L39.056,23.296 Z M46.224,20 L50.608,20 C51.1840029,20 51.7306641,20.0559994 52.248,20.168 C52.7653359,20.2800006 53.2186647,20.4666654 53.608,20.728 C53.9973353,20.9893346 54.3066655,21.3413311 54.536,21.784 C54.7653345,22.2266689 54.88,22.7786634 54.88,23.44 C54.88,24.240004 54.6720021,24.9199972 54.256,25.48 C53.8399979,26.0400028 53.232004,26.3946659 52.432,26.544 L55.312,31.328 L52.32,31.328 L49.952,26.8 L48.72,26.8 L48.72,31.328 L46.224,31.328 L46.224,20 Z M48.72,24.688 L50.192,24.688 C50.4160011,24.688 50.6533321,24.6800001 50.904,24.664 C51.1546679,24.6479999 51.3813323,24.6000004 51.584,24.52 C51.7866677,24.4399996 51.954666,24.3146675 52.088,24.144 C52.221334,23.9733325 52.288,23.7333349 52.288,23.424 C52.288,23.1359986 52.2293339,22.9066675 52.112,22.736 C51.9946661,22.5653325 51.8453342,22.4346671 51.664,22.344 C51.4826658,22.2533329 51.2746678,22.1920002 51.04,22.16 C50.8053322,22.1279998 50.5760011,22.112 50.352,22.112 L48.72,22.112 L48.72,24.688 Z" id="RAR" fill="#491B71"></path>
                </g>
            </g>
        </g>
    </g>
</svg>