<?xml version="1.0" encoding="UTF-8"?>
<svg width="71px" height="93px" viewBox="0 0 71 93" version="1.1" xmlns="http://www.w3.org/2000/svg" xmlns:xlink="http://www.w3.org/1999/xlink">
    <!-- Generator: Sketch 49.3 (51167) - http://www.bohemiancoding.com/sketch -->
    <title>rpm</title>
    <desc>Created with Sketch.</desc>
    <defs></defs>
    <g id="Page-1" stroke="none" stroke-width="1" fill="none" fill-rule="evenodd">
        <g id="png" transform="translate(-688.000000, -873.000000)">
            <g id="files" transform="translate(43.000000, 230.000000)">
                <g id="rpm" transform="translate(645.000000, 643.000000)">
                    <path d="M3,0 L55.7339131,0 L71,18.640625 L71,90 C71,91.6568542 69.6568542,93 68,93 L3,93 C1.34314575,93 2.02906125e-16,91.6568542 0,90 L0,3 C-2.02906125e-16,1.34314575 1.34314575,3.04359188e-16 3,0 Z" id="Rectangle-2" fill="#1D2F44"></path>
                    <path d="M7.944,39.884 L15.342,39.884 C16.3140049,39.884 17.2364956,39.9784991 18.1095,40.1675 C18.9825044,40.3565009 19.7474967,40.6714978 20.4045,41.1125 C21.0615033,41.5535022 21.5834981,42.1474963 21.9705,42.8945 C22.3575019,43.6415037 22.551,44.5729944 22.551,45.689 C22.551,47.0390067 22.2000035,48.1864953 21.498,49.1315 C20.7959965,50.0765047 19.7700068,50.6749987 18.42,50.927 L23.28,59 L18.231,59 L14.235,51.359 L12.156,51.359 L12.156,59 L7.944,59 L7.944,39.884 Z M12.156,47.795 L14.64,47.795 C15.0180019,47.795 15.4184979,47.7815001 15.8415,47.7545 C16.2645021,47.7274999 16.6469983,47.6465007 16.989,47.5115 C17.3310017,47.3764993 17.6144989,47.1650014 17.8395,46.877 C18.0645011,46.5889986 18.177,46.1840026 18.177,45.662 C18.177,45.1759976 18.078001,44.7890014 17.88,44.501 C17.681999,44.2129986 17.4300015,43.9925008 17.124,43.8395 C16.8179985,43.6864992 16.467002,43.5830003 16.071,43.529 C15.674998,43.4749997 15.2880019,43.448 14.91,43.448 L12.156,43.448 L12.156,47.795 Z M25.44,39.884 L32.541,39.884 C33.5310049,39.884 34.4669956,39.9739991 35.349,40.154 C36.2310044,40.3340009 37.0004967,40.6444978 37.6575,41.0855 C38.3145033,41.5265022 38.8364981,42.1204963 39.2235,42.8675 C39.6105019,43.6145037 39.804,44.5549943 39.804,45.689 C39.804,46.8050056 39.6240018,47.7409962 39.264,48.497 C38.9039982,49.2530038 38.4090031,49.8559978 37.779,50.306 C37.1489968,50.7560023 36.4020043,51.0754991 35.538,51.2645 C34.6739957,51.4535009 33.738005,51.548 32.73,51.548 L29.652,51.548 L29.652,59 L25.44,59 L25.44,39.884 Z M29.652,47.984 L32.46,47.984 C32.8380019,47.984 33.2024982,47.9480004 33.5535,47.876 C33.9045018,47.8039996 34.2194986,47.6825009 34.4985,47.5115 C34.7775014,47.3404991 35.0024991,47.1065015 35.1735,46.8095 C35.3445009,46.5124985 35.43,46.1390023 35.43,45.689 C35.43,45.2029976 35.3175011,44.8115015 35.0925,44.5145 C34.8674989,44.2174985 34.5795018,43.9880008 34.2285,43.826 C33.8774982,43.6639992 33.4860022,43.5605002 33.054,43.5155 C32.6219978,43.4704998 32.208002,43.448 31.812,43.448 L29.652,43.448 L29.652,47.984 Z M42.45,39.884 L48.822,39.884 L53.223,52.358 L53.277,52.358 L57.705,39.884 L64.05,39.884 L64.05,59 L59.838,59 L59.838,44.339 L59.784,44.339 L54.762,59 L51.549,59 L46.716,44.339 L46.662,44.339 L46.662,59 L42.45,59 L42.45,39.884 Z" id="RPM" fill="#FFFFFF"></path>
                    <path d="M56.1679688,0.083984375 L56.1679688,15.6293945 C56.1679688,17.2862488 57.5111145,18.6293945 59.1679688,18.6293945 L71.0048828,18.6293945 L56.1679688,0.083984375 Z" id="Rectangle-2-Copy" fill="#3A6291"></path>
                </g>
            </g>
        </g>
    </g>
</svg>