<?xml version="1.0" encoding="UTF-8"?>
<svg width="81px" height="93px" viewBox="0 0 81 93" version="1.1" xmlns="http://www.w3.org/2000/svg" xmlns:xlink="http://www.w3.org/1999/xlink">
    <!-- Generator: Sketch 49.3 (51167) - http://www.bohemiancoding.com/sketch -->
    <title>rtf</title>
    <desc>Created with Sketch.</desc>
    <defs></defs>
    <g id="Page-1" stroke="none" stroke-width="1" fill="none" fill-rule="evenodd">
        <g id="png" transform="translate(-775.000000, -659.000000)">
            <g id="files" transform="translate(43.000000, 230.000000)">
                <g id="rtf" transform="translate(732.000000, 429.000000)">
                    <path d="M13,0 L65.7339131,0 L81,18.640625 L81,90 C81,91.6568542 79.6568542,93 78,93 L13,93 C11.3431458,93 10,91.6568542 10,90 L10,3 C10,1.34314575 11.3431458,3.04359188e-16 13,0 Z" id="Rectangle-2" fill="#E6F2FF"></path>
                    <path d="M66.1679688,0.083984375 L66.1679688,15.6293945 C66.1679688,17.2862488 67.5111145,18.6293945 69.1679688,18.6293945 L81.0048828,18.6293945 L66.1679688,0.083984375 Z" id="Rectangle-2-Copy" fill="#AEC3DA"></path>
                    <rect id="Rectangle-3" fill="#4A90E2" x="0" y="53" width="66" height="32" rx="3"></rect>
                    <path d="M14.584,59.424 L20.612,59.424 C21.404004,59.424 22.1556631,59.5009992 22.867,59.655 C23.5783369,59.8090008 24.201664,60.0656649 24.737,60.425 C25.272336,60.7843351 25.6976651,61.2683303 26.013,61.877 C26.3283349,62.4856697 26.486,63.2446621 26.486,64.154 C26.486,65.2540055 26.2000029,66.1889962 25.628,66.959 C25.0559971,67.7290038 24.2200055,68.2166656 23.12,68.422 L27.08,75 L22.966,75 L19.71,68.774 L18.016,68.774 L18.016,75 L14.584,75 L14.584,59.424 Z M18.016,65.87 L20.04,65.87 C20.3480015,65.87 20.6743316,65.8590001 21.019,65.837 C21.3636684,65.8149999 21.6753319,65.7490006 21.954,65.639 C22.2326681,65.5289995 22.4636658,65.3566678 22.647,65.122 C22.8303342,64.8873322 22.922,64.5573355 22.922,64.132 C22.922,63.735998 22.8413341,63.4206678 22.68,63.186 C22.5186659,62.9513322 22.3133346,62.7716673 22.064,62.647 C21.8146654,62.5223327 21.5286683,62.4380002 21.206,62.394 C20.8833317,62.3499998 20.5680015,62.328 20.26,62.328 L18.016,62.328 L18.016,65.87 Z M31.458,62.46 L27.014,62.46 L27.014,59.424 L39.334,59.424 L39.334,62.46 L34.89,62.46 L34.89,75 L31.458,75 L31.458,62.46 Z M41.204,59.424 L51.654,59.424 L51.654,62.592 L44.636,62.592 L44.636,65.76 L51.126,65.76 L51.126,68.928 L44.636,68.928 L44.636,75 L41.204,75 L41.204,59.424 Z" id="RTF" fill="#FF7586"></path>
                </g>
            </g>
        </g>
    </g>
</svg>