<?xml version="1.0" encoding="UTF-8"?>
<svg width="71px" height="93px" viewBox="0 0 71 93" version="1.1" xmlns="http://www.w3.org/2000/svg" xmlns:xlink="http://www.w3.org/1999/xlink">
    <!-- Generator: Sketch 49.3 (51167) - http://www.bohemiancoding.com/sketch -->
    <title>unknow</title>
    <desc>Created with Sketch.</desc>
    <defs></defs>
    <g id="Page-1" stroke="none" stroke-width="1" fill="none" fill-rule="evenodd">
        <g id="png" transform="translate(-588.000000, -873.000000)">
            <g id="files" transform="translate(43.000000, 230.000000)">
                <g id="unknow" transform="translate(545.000000, 643.000000)">
                    <path d="M3,0 L55.7339131,0 L71,18.640625 L71,90 C71,91.6568542 69.6568542,93 68,93 L3,93 C1.34314575,93 2.02906125e-16,91.6568542 0,90 L0,3 C-2.02906125e-16,1.34314575 1.34314575,3.04359188e-16 3,0 Z" id="Rectangle-2" fill="#1D2F44"></path>
                    <path d="M56.1679688,0.083984375 L56.1679688,15.6293945 C56.1679688,17.2862488 57.5111145,18.6293945 59.1679688,18.6293945 L71.0048828,18.6293945 L56.1679688,0.083984375 Z" id="Rectangle-2-Copy" fill="#3A6291"></path>
                    <path d="M31.04,55.93 C31.04,54.6299935 31.2133316,53.5250046 31.56,52.615 C31.9066684,51.7049954 32.4916626,50.8600039 33.315,50.08 C34.5283394,48.9099942 35.6441616,47.891671 36.6625,47.025 C37.6808384,46.158329 38.5583297,45.3458371 39.295,44.5875 C40.0316703,43.8291629 40.6058313,43.11417 41.0175,42.4425 C41.4291687,41.77083 41.635,41.0666703 41.635,40.33 C41.635,38.8999929 41.1908378,37.7841707 40.3025,36.9825 C39.4141622,36.1808293 38.2983401,35.78 36.955,35.78 C34.9183232,35.78 33.369172,36.3433277 32.3075,37.47 C31.245828,38.5966723 30.6500006,39.9616587 30.52,41.565 L20.51,40.915 C20.986669,36.3216437 22.6766522,32.822512 25.58,30.4175 C28.4833479,28.012488 32.2099773,26.81 36.76,26.81 C38.7533433,26.81 40.6274912,27.0808306 42.3825,27.6225 C44.1375088,28.1641694 45.6866599,28.9766613 47.03,30.06 C48.37334,31.1433387 49.4349961,32.4866587 50.215,34.09 C50.9950039,35.6933413 51.385,37.5349896 51.385,39.615 C51.385,40.871673 51.2550013,42.0091616 50.995,43.0275 C50.7349987,44.0458384 50.2908365,45.0533284 49.6625,46.05 C49.0341635,47.0466717 48.2108384,48.0541616 47.1925,49.0725 C46.1741616,50.0908384 44.8850078,51.2066606 43.325,52.42 C42.3283283,53.2000039 41.6566684,53.9583297 41.31,54.695 C40.9633316,55.4316703 40.79,56.1683297 40.79,56.905 L40.79,58.79 L31.04,58.79 L31.04,55.93 Z M29.935,68.41 C29.935,67.5866625 30.0866651,66.8066703 30.39,66.07 C30.6933348,65.3333296 31.1158306,64.6941694 31.6575,64.1525 C32.1991694,63.6108306 32.8383297,63.1883349 33.575,62.885 C34.3116703,62.5816652 35.0916625,62.43 35.915,62.43 C36.7383375,62.43 37.5183296,62.5816652 38.255,62.885 C38.9916703,63.1883349 39.6308306,63.6108306 40.1725,64.1525 C40.7141694,64.6941694 41.1366651,65.3333296 41.44,66.07 C41.7433348,66.8066703 41.895,67.5866625 41.895,68.41 C41.895,69.2333374 41.7433348,70.0133297 41.44,70.75 C41.1366651,71.4866703 40.7141694,72.1258306 40.1725,72.6675 C39.6308306,73.2091694 38.9916703,73.6316652 38.255,73.935 C37.5183296,74.2383349 36.7383375,74.39 35.915,74.39 C35.0916625,74.39 34.3116703,74.2383349 33.575,73.935 C32.8383297,73.6316652 32.1991694,73.2091694 31.6575,72.6675 C31.1158306,72.1258306 30.6933348,71.4866703 30.39,70.75 C30.0866651,70.0133297 29.935,69.2333374 29.935,68.41 Z" id="?" fill="#FFFFFF"></path>
                </g>
            </g>
        </g>
    </g>
</svg>