<?xml version="1.0" encoding="UTF-8"?>
<svg width="81px" height="93px" viewBox="0 0 81 93" version="1.1" xmlns="http://www.w3.org/2000/svg" xmlns:xlink="http://www.w3.org/1999/xlink">
    <!-- Generator: Sketch 49.3 (51167) - http://www.bohemiancoding.com/sketch -->
    <title>vcal</title>
    <desc>Created with Sketch.</desc>
    <defs></defs>
    <g id="Page-1" stroke="none" stroke-width="1" fill="none" fill-rule="evenodd">
        <g id="png" transform="translate(-678.000000, -981.000000)">
            <g id="files" transform="translate(43.000000, 230.000000)">
                <g id="vcal" transform="translate(635.000000, 751.000000)">
                    <path d="M13,0 L65.7339131,0 L81,18.640625 L81,90 C81,91.6568542 79.6568542,93 78,93 L13,93 C11.3431458,93 10,91.6568542 10,90 L10,3 C10,1.34314575 11.3431458,3.04359188e-16 13,0 Z" id="Rectangle-2" fill="#E6F2FF"></path>
                    <path d="M66.1679688,0.083984375 L66.1679688,15.6293945 C66.1679688,17.2862488 67.5111145,18.6293945 69.1679688,18.6293945 L81.0048828,18.6293945 L66.1679688,0.083984375 Z" id="Rectangle-2-Copy" fill="#AEC3DA"></path>
                    <rect id="Rectangle-3" fill="#D0021B" x="0" y="53" width="66" height="32" rx="3"></rect>
                    <path d="M4.044,59.424 L7.96,59.424 L11.81,69.632 L11.854,69.632 L15.77,59.424 L19.444,59.424 L13.02,75 L10.27,75 L4.044,59.424 Z M31.258,63.472 C30.920665,63.0613313 30.5063358,62.7460011 30.015,62.526 C29.5236642,62.3059989 28.9553366,62.196 28.31,62.196 C27.6646634,62.196 27.0670027,62.3206654 26.517,62.57 C25.9669972,62.8193346 25.4903353,63.1676644 25.087,63.615 C24.6836646,64.0623356 24.3683345,64.5939969 24.141,65.21 C23.9136655,65.8260031 23.8,66.4933297 23.8,67.212 C23.8,67.945337 23.9136655,68.6163303 24.141,69.225 C24.3683345,69.8336697 24.679998,70.3616644 25.076,70.809 C25.472002,71.2563356 25.937664,71.6046654 26.473,71.854 C27.008336,72.1033346 27.5839969,72.228 28.2,72.228 C28.9040035,72.228 29.5273306,72.0813348 30.07,71.788 C30.6126694,71.4946652 31.0599982,71.0840026 31.412,70.556 L34.272,72.69 C33.6119967,73.6140046 32.7760051,74.2959978 31.764,74.736 C30.7519949,75.1760022 29.710672,75.396 28.64,75.396 C27.4226606,75.396 26.3006718,75.2053352 25.274,74.824 C24.2473282,74.4426648 23.3600037,73.8963369 22.612,73.185 C21.8639963,72.4736631 21.2810021,71.6120051 20.863,70.6 C20.4449979,69.5879949 20.236,68.4586729 20.236,67.212 C20.236,65.9653271 20.4449979,64.8360051 20.863,63.824 C21.2810021,62.8119949 21.8639963,61.9503369 22.612,61.239 C23.3600037,60.5276631 24.2473282,59.9813352 25.274,59.6 C26.3006718,59.2186648 27.4226606,59.028 28.64,59.028 C29.0800022,59.028 29.5383309,59.0683329 30.015,59.149 C30.491669,59.2296671 30.9609977,59.3579991 31.423,59.534 C31.8850023,59.7100009 32.3286645,59.9446652 32.754,60.238 C33.1793355,60.5313348 33.560665,60.8906645 33.898,61.316 L31.258,63.472 Z M41.268,59.424 L44.106,59.424 L50.882,75 L47.01,75 L45.668,71.7 L39.618,71.7 L38.32,75 L34.536,75 L41.268,59.424 Z M42.588,63.956 L40.696,68.796 L44.502,68.796 L42.588,63.956 Z M52.576,59.424 L56.008,59.424 L56.008,71.832 L62.366,71.832 L62.366,75 L52.576,75 L52.576,59.424 Z" id="VCAL" fill="#730715"></path>
                </g>
            </g>
        </g>
    </g>
</svg>