<?xml version="1.0" encoding="UTF-8"?>
<svg width="71px" height="93px" viewBox="0 0 71 93" version="1.1" xmlns="http://www.w3.org/2000/svg" xmlns:xlink="http://www.w3.org/1999/xlink">
    <!-- Generator: Sketch 49.3 (51167) - http://www.bohemiancoding.com/sketch -->
    <title>bin</title>
    <desc>Created with Sketch.</desc>
    <defs></defs>
    <g id="Page-1" stroke="none" stroke-width="1" fill="none" fill-rule="evenodd">
        <g id="png" transform="translate(-388.000000, -1302.000000)">
            <g id="files" transform="translate(43.000000, 230.000000)">
                <g id="bin" transform="translate(345.000000, 1072.000000)">
                    <path d="M3,0 L55.7339131,0 L71,18.640625 L71,90 C71,91.6568542 69.6568542,93 68,93 L3,93 C1.34314575,93 2.02906125e-16,91.6568542 0,90 L0,3 C-2.02906125e-16,1.34314575 1.34314575,3.04359188e-16 3,0 Z" id="Rectangle-2" fill="#1D2F44"></path>
                    <path d="M56.1679688,0.083984375 L56.1679688,15.6293945 C56.1679688,17.2862488 57.5111145,18.6293945 59.1679688,18.6293945 L71.0048828,18.6293945 L56.1679688,0.083984375 Z" id="Rectangle-2-Copy" fill="#3A6291"></path>
                    <path d="M19.957,31.734 C19.957,30.5159939 20.0681656,29.2786729 20.2905,28.022 C20.5128344,26.765327 20.9091638,25.6246718 21.4795,24.6 C22.0498362,23.5753282 22.8279951,22.7391699 23.814,22.0915 C24.8000049,21.4438301 26.056659,21.12 27.584,21.12 C29.111341,21.12 30.3679951,21.4438301 31.354,22.0915 C32.3400049,22.7391699 33.1181638,23.5753282 33.6885,24.6 C34.2588362,25.6246718 34.6551656,26.765327 34.8775,28.022 C35.0998344,29.2786729 35.211,30.5159939 35.211,31.734 C35.211,32.9520061 35.0998344,34.1893271 34.8775,35.446 C34.6551656,36.702673 34.2588362,37.8433282 33.6885,38.868 C33.1181638,39.8926718 32.3400049,40.7288301 31.354,41.3765 C30.3679951,42.0241699 29.111341,42.348 27.584,42.348 C26.056659,42.348 24.8000049,42.0241699 23.814,41.3765 C22.8279951,40.7288301 22.0498362,39.8926718 21.4795,38.868 C20.9091638,37.8433282 20.5128344,36.702673 20.2905,35.446 C20.0681656,34.1893271 19.957,32.9520061 19.957,31.734 Z M24.307,31.734 C24.307,32.275336 24.3311664,32.9229962 24.3795,33.677 C24.4278336,34.4310038 24.5583323,35.1559965 24.771,35.852 C24.9836677,36.5480035 25.3074978,37.1376643 25.7425,37.621 C26.1775022,38.1043357 26.7913294,38.346 27.584,38.346 C28.3573372,38.346 28.9663311,38.1043357 29.411,37.621 C29.8556689,37.1376643 30.1843323,36.5480035 30.397,35.852 C30.6096677,35.1559965 30.7401664,34.4310038 30.7885,33.677 C30.8368336,32.9229962 30.861,32.275336 30.861,31.734 C30.861,31.192664 30.8368336,30.5450038 30.7885,29.791 C30.7401664,29.0369962 30.6096677,28.3120035 30.397,27.616 C30.1843323,26.9199965 29.8556689,26.3303358 29.411,25.847 C28.9663311,25.3636642 28.3573372,25.122 27.584,25.122 C26.7913294,25.122 26.1775022,25.3636642 25.7425,25.847 C25.3074978,26.3303358 24.9836677,26.9199965 24.771,27.616 C24.5583323,28.3120035 24.4278336,29.0369962 24.3795,29.791 C24.3311664,30.5450038 24.307,31.192664 24.307,31.734 Z M44.52,26.34 L40.402,29.965 L37.937,27.123 L44.636,21.468 L48.696,21.468 L48.696,42 L44.52,42 L44.52,26.34 Z M27.352,66.34 L23.234,69.965 L20.769,67.123 L27.468,61.468 L31.528,61.468 L31.528,82 L27.352,82 L27.352,66.34 Z M37.125,71.734 C37.125,70.5159939 37.2361656,69.2786729 37.4585,68.022 C37.6808344,66.765327 38.0771638,65.6246718 38.6475,64.6 C39.2178362,63.5753282 39.9959951,62.7391699 40.982,62.0915 C41.9680049,61.4438301 43.224659,61.12 44.752,61.12 C46.279341,61.12 47.5359951,61.4438301 48.522,62.0915 C49.5080049,62.7391699 50.2861638,63.5753282 50.8565,64.6 C51.4268362,65.6246718 51.8231656,66.765327 52.0455,68.022 C52.2678344,69.2786729 52.379,70.5159939 52.379,71.734 C52.379,72.9520061 52.2678344,74.1893271 52.0455,75.446 C51.8231656,76.7026729 51.4268362,77.8433282 50.8565,78.868 C50.2861638,79.8926718 49.5080049,80.7288301 48.522,81.3765 C47.5359951,82.0241699 46.279341,82.348 44.752,82.348 C43.224659,82.348 41.9680049,82.0241699 40.982,81.3765 C39.9959951,80.7288301 39.2178362,79.8926718 38.6475,78.868 C38.0771638,77.8433282 37.6808344,76.7026729 37.4585,75.446 C37.2361656,74.1893271 37.125,72.9520061 37.125,71.734 Z M41.475,71.734 C41.475,72.275336 41.4991664,72.9229962 41.5475,73.677 C41.5958336,74.4310038 41.7263323,75.1559965 41.939,75.852 C42.1516677,76.5480035 42.4754978,77.1376643 42.9105,77.621 C43.3455022,78.1043358 43.9593294,78.346 44.752,78.346 C45.5253372,78.346 46.1343311,78.1043358 46.579,77.621 C47.0236689,77.1376643 47.3523323,76.5480035 47.565,75.852 C47.7776677,75.1559965 47.9081664,74.4310038 47.9565,73.677 C48.0048336,72.9229962 48.029,72.275336 48.029,71.734 C48.029,71.192664 48.0048336,70.5450038 47.9565,69.791 C47.9081664,69.0369962 47.7776677,68.3120035 47.565,67.616 C47.3523323,66.9199965 47.0236689,66.3303357 46.579,65.847 C46.1343311,65.3636642 45.5253372,65.122 44.752,65.122 C43.9593294,65.122 43.3455022,65.3636642 42.9105,65.847 C42.4754978,66.3303357 42.1516677,66.9199965 41.939,67.616 C41.7263323,68.3120035 41.5958336,69.0369962 41.5475,69.791 C41.4991664,70.5450038 41.475,71.192664 41.475,71.734 Z" id="01-10" fill="#7ED321"></path>
                </g>
            </g>
        </g>
    </g>
</svg>