<?xml version="1.0" encoding="UTF-8"?>
<svg width="81px" height="93px" viewBox="0 0 81 93" version="1.1" xmlns="http://www.w3.org/2000/svg" xmlns:xlink="http://www.w3.org/1999/xlink">
    <!-- Generator: Sketch 49.3 (51167) - http://www.bohemiancoding.com/sketch -->
    <title>c</title>
    <desc>Created with Sketch.</desc>
    <defs></defs>
    <g id="Page-1" stroke="none" stroke-width="1" fill="none" fill-rule="evenodd">
        <g id="png" transform="translate(-578.000000, -230.000000)">
            <g id="files" transform="translate(43.000000, 230.000000)">
                <g id="c" transform="translate(535.000000, 0.000000)">
                    <path d="M13,0 L65.7339131,0 L81,18.640625 L81,90 C81,91.6568542 79.6568542,93 78,93 L13,93 C11.3431458,93 10,91.6568542 10,90 L10,3 C10,1.34314575 11.3431458,3.04359188e-16 13,0 Z" id="Rectangle-2" fill="#E6F2FF"></path>
                    <path d="M66.1679688,0.083984375 L66.1679688,15.6293945 C66.1679688,17.2862488 67.5111145,18.6293945 69.1679688,18.6293945 L81.0048828,18.6293945 L66.1679688,0.083984375 Z" id="Rectangle-2-Copy" fill="#AEC3DA"></path>
                    <rect id="Rectangle-3" fill="#69BAFF" x="0" y="53" width="66" height="32" rx="3"></rect>
                    <path d="M35.7,65.52 C35.3933318,65.1466648 35.0166689,64.860001 34.57,64.66 C34.1233311,64.459999 33.6066696,64.36 33.02,64.36 C32.4333304,64.36 31.8900025,64.4733322 31.39,64.7 C30.8899975,64.9266678 30.4566685,65.2433313 30.09,65.65 C29.7233315,66.0566687 29.4366677,66.5399972 29.23,67.1 C29.0233323,67.6600028 28.92,68.2666634 28.92,68.92 C28.92,69.58667 29.0233323,70.1966639 29.23,70.75 C29.4366677,71.3033361 29.7199982,71.7833313 30.08,72.19 C30.4400018,72.5966687 30.8633309,72.9133322 31.35,73.14 C31.8366691,73.3666678 32.3599972,73.48 32.92,73.48 C33.5600032,73.48 34.1266642,73.346668 34.62,73.08 C35.1133358,72.813332 35.5199984,72.4400024 35.84,71.96 L38.44,73.9 C37.839997,74.7400042 37.0800046,75.359998 36.16,75.76 C35.2399954,76.160002 34.2933382,76.36 33.32,76.36 C32.2133278,76.36 31.193338,76.1866684 30.26,75.84 C29.326662,75.4933316 28.5200034,74.9966699 27.84,74.35 C27.1599966,73.7033301 26.6300019,72.9200046 26.25,72 C25.8699981,71.0799954 25.68,70.053339 25.68,68.92 C25.68,67.786661 25.8699981,66.7600046 26.25,65.84 C26.6300019,64.9199954 27.1599966,64.1366699 27.84,63.49 C28.5200034,62.8433301 29.326662,62.3466684 30.26,62 C31.193338,61.6533316 32.2133278,61.48 33.32,61.48 C33.720002,61.48 34.1366645,61.5166663 34.57,61.59 C35.0033355,61.6633337 35.4299979,61.7799992 35.85,61.94 C36.2700021,62.1000008 36.6733314,62.313332 37.06,62.58 C37.4466686,62.846668 37.7933318,63.1733314 38.1,63.56 L35.7,65.52 Z" id="C" fill="#FFFFFF"></path>
                </g>
            </g>
        </g>
    </g>
</svg>