<?xml version="1.0" encoding="UTF-8"?>
<svg width="71px" height="93px" viewBox="0 0 71 93" version="1.1" xmlns="http://www.w3.org/2000/svg" xmlns:xlink="http://www.w3.org/1999/xlink">
    <!-- Generator: Sketch 49.3 (51167) - http://www.bohemiancoding.com/sketch -->
    <title>copying</title>
    <desc>Created with Sketch.</desc>
    <defs></defs>
    <g id="Page-1" stroke="none" stroke-width="1" fill="none" fill-rule="evenodd">
        <g id="png" transform="translate(-578.000000, -1088.000000)">
            <g id="files" transform="translate(43.000000, 230.000000)">
                <g id="copying" transform="translate(535.000000, 858.000000)">
                    <path d="M3,0 L55.7339131,0 L71,18.640625 L71,90 C71,91.6568542 69.6568542,93 68,93 L3,93 C1.34314575,93 2.02906125e-16,91.6568542 0,90 L0,3 C-2.02906125e-16,1.34314575 1.34314575,3.04359188e-16 3,0 Z" id="Rectangle-2" fill="#1D2F44"></path>
                    <path d="M56.1679688,0.083984375 L56.1679688,15.6293945 C56.1679688,17.2862488 57.5111145,18.6293945 59.1679688,18.6293945 L71.0048828,18.6293945 L56.1679688,0.083984375 Z" id="Rectangle-2-Copy" fill="#3A6291"></path>
                    <path d="M47.632,50.8 C47.4186656,52.4640083 46.9600035,53.9146605 46.256,55.152 C45.5519965,56.3893395 44.6880051,57.4346624 43.664,58.288 C42.6399949,59.1413376 41.498673,59.7813312 40.24,60.208 C38.981327,60.6346688 37.648007,60.848 36.24,60.848 C34.2346566,60.848 32.4426746,60.4960035 30.864,59.792 C29.2853254,59.0879965 27.9520054,58.1173395 26.864,56.88 C25.7759946,55.6426605 24.9440029,54.1920083 24.368,52.528 C23.7919971,50.8639917 23.504,49.0720096 23.504,47.152 C23.504,45.1893235 23.7813306,43.3866749 24.336,41.744 C24.8906694,40.1013251 25.6906614,38.6826726 26.736,37.488 C27.7813386,36.2933274 29.0933254,35.3653366 30.672,34.704 C32.2506746,34.0426634 34.0639898,33.712 36.112,33.712 C37.5626739,33.712 38.9279936,33.9039981 40.208,34.288 C41.4880064,34.6720019 42.6399949,35.2586627 43.664,36.048 C44.6880051,36.8373373 45.5413299,37.8293274 46.224,39.024 C46.9066701,40.2186726 47.3759987,41.6053254 47.632,43.184 L41.616,43.184 C41.3173318,41.8186598 40.6986714,40.8586694 39.76,40.304 C38.8213286,39.7493306 37.7760058,39.472 36.624,39.472 C34.5333229,39.472 32.9760051,40.1546598 31.952,41.52 C30.9279949,42.8853402 30.416,44.7199885 30.416,47.024 C30.416,49.4133453 30.9599946,51.3546592 32.048,52.848 C33.1360054,54.3413408 34.6186573,55.088 36.496,55.088 C37.8613402,55.088 39.0346618,54.7680032 40.016,54.128 C40.9973382,53.4879968 41.5306662,52.3786746 41.616,50.8 L47.632,50.8 Z M11.792,47.344 C11.792,44.0586502 12.421327,40.9760144 13.68,38.096 C14.938673,35.2159856 16.6453226,32.6986774 18.8,30.544 C20.9546774,28.3893226 23.4719856,26.682673 26.352,25.424 C29.2320144,24.165327 32.3146502,23.536 35.6,23.536 C38.8853498,23.536 41.9679856,24.165327 44.848,25.424 C47.7280144,26.682673 50.2453226,28.3893226 52.4,30.544 C54.5546774,32.6986774 56.261327,35.2159856 57.52,38.096 C58.778673,40.9760144 59.408,44.0586502 59.408,47.344 C59.408,50.6293498 58.778673,53.7119856 57.52,56.592 C56.261327,59.4720144 54.5546774,61.9893226 52.4,64.144 C50.2453226,66.2986774 47.7280144,68.005327 44.848,69.264 C41.9679856,70.522673 38.8853498,71.152 35.6,71.152 C32.3146502,71.152 29.2320144,70.522673 26.352,69.264 C23.4719856,68.005327 20.9546774,66.2986774 18.8,64.144 C16.6453226,61.9893226 14.938673,59.4720144 13.68,56.592 C12.421327,53.7119856 11.792,50.6293498 11.792,47.344 Z M18.32,47.344 C18.32,49.818679 18.7679955,52.1546557 19.664,54.352 C20.5600045,56.5493443 21.7973254,58.4586586 23.376,60.08 C24.9546746,61.7013414 26.7893229,62.9919952 28.88,63.952 C30.9706771,64.9120048 33.2106547,65.392 35.6,65.392 C37.9893453,65.392 40.2293229,64.9120048 42.32,63.952 C44.4106771,62.9919952 46.2453254,61.7013414 47.824,60.08 C49.4026746,58.4586586 50.6399955,56.5493443 51.536,54.352 C52.4320045,52.1546557 52.88,49.818679 52.88,47.344 C52.88,44.869321 52.4320045,42.5333443 51.536,40.336 C50.6399955,38.1386557 49.4026746,36.2293414 47.824,34.608 C46.2453254,32.9866586 44.4106771,31.6960048 42.32,30.736 C40.2293229,29.7759952 37.9893453,29.296 35.6,29.296 C33.2106547,29.296 30.9706771,29.7759952 28.88,30.736 C26.7893229,31.6960048 24.9546746,32.9866586 23.376,34.608 C21.7973254,36.2293414 20.5600045,38.1386557 19.664,40.336 C18.7679955,42.5333443 18.32,44.869321 18.32,47.344 Z" id="©" fill="#FFFFFF"></path>
                </g>
            </g>
        </g>
    </g>
</svg>