<?xml version="1.0" encoding="UTF-8"?>
<svg width="81px" height="93px" viewBox="0 0 81 93" version="1.1" xmlns="http://www.w3.org/2000/svg" xmlns:xlink="http://www.w3.org/1999/xlink">
    <!-- Generator: Sketch 49.3 (51167) - http://www.bohemiancoding.com/sketch -->
    <title>cpp</title>
    <desc>Created with Sketch.</desc>
    <defs></defs>
    <g id="Page-1" stroke="none" stroke-width="1" fill="none" fill-rule="evenodd">
        <g id="png" transform="translate(-478.000000, -230.000000)">
            <g id="files" transform="translate(43.000000, 230.000000)">
                <g id="cpp" transform="translate(435.000000, 0.000000)">
                    <path d="M13,0 L65.7339131,0 L81,18.640625 L81,90 C81,91.6568542 79.6568542,93 78,93 L13,93 C11.3431458,93 10,91.6568542 10,90 L10,3 C10,1.34314575 11.3431458,3.04359188e-16 13,0 Z" id="Rectangle-2" fill="#E6F2FF"></path>
                    <path d="M66.1679688,0.083984375 L66.1679688,15.6293945 C66.1679688,17.2862488 67.5111145,18.6293945 69.1679688,18.6293945 L81.0048828,18.6293945 L66.1679688,0.083984375 Z" id="Rectangle-2-Copy" fill="#AEC3DA"></path>
                    <rect id="Rectangle-3" fill="#094273" x="0" y="53" width="66" height="32" rx="3"></rect>
                    <path d="M23.7,64.52 C23.3933318,64.1466648 23.0166689,63.860001 22.57,63.66 C22.1233311,63.459999 21.6066696,63.36 21.02,63.36 C20.4333304,63.36 19.8900025,63.4733322 19.39,63.7 C18.8899975,63.9266678 18.4566685,64.2433313 18.09,64.65 C17.7233315,65.0566687 17.4366677,65.5399972 17.23,66.1 C17.0233323,66.6600028 16.92,67.2666634 16.92,67.92 C16.92,68.58667 17.0233323,69.1966639 17.23,69.75 C17.4366677,70.3033361 17.7199982,70.7833313 18.08,71.19 C18.4400018,71.5966687 18.8633309,71.9133322 19.35,72.14 C19.8366691,72.3666678 20.3599972,72.48 20.92,72.48 C21.5600032,72.48 22.1266642,72.346668 22.62,72.08 C23.1133358,71.813332 23.5199984,71.4400024 23.84,70.96 L26.44,72.9 C25.839997,73.7400042 25.0800046,74.359998 24.16,74.76 C23.2399954,75.160002 22.2933382,75.36 21.32,75.36 C20.2133278,75.36 19.193338,75.1866684 18.26,74.84 C17.326662,74.4933316 16.5200034,73.9966699 15.84,73.35 C15.1599966,72.7033301 14.6300019,71.9200046 14.25,71 C13.8699981,70.0799954 13.68,69.053339 13.68,67.92 C13.68,66.786661 13.8699981,65.7600046 14.25,64.84 C14.6300019,63.9199954 15.1599966,63.1366699 15.84,62.49 C16.5200034,61.8433301 17.326662,61.3466684 18.26,61 C19.193338,60.6533316 20.2133278,60.48 21.32,60.48 C21.720002,60.48 22.1366645,60.5166663 22.57,60.59 C23.0033355,60.6633337 23.4299979,60.7799992 23.85,60.94 C24.2700021,61.1000008 24.6733314,61.313332 25.06,61.58 C25.4466686,61.846668 25.7933318,62.1733314 26.1,62.56 L23.7,64.52 Z M27.88,67.68 L32.1,67.68 L32.1,63.46 L34.62,63.46 L34.62,67.68 L38.84,67.68 L38.84,70.2 L34.62,70.2 L34.62,74.42 L32.1,74.42 L32.1,70.2 L27.88,70.2 L27.88,67.68 Z M41.2,67.68 L45.42,67.68 L45.42,63.46 L47.94,63.46 L47.94,67.68 L52.16,67.68 L52.16,70.2 L47.94,70.2 L47.94,74.42 L45.42,74.42 L45.42,70.2 L41.2,70.2 L41.2,67.68 Z" id="C++" fill="#FFFFFF"></path>
                </g>
            </g>
        </g>
    </g>
</svg>