<?xml version="1.0" encoding="UTF-8"?>
<svg width="81px" height="93px" viewBox="0 0 81 93" version="1.1" xmlns="http://www.w3.org/2000/svg" xmlns:xlink="http://www.w3.org/1999/xlink">
    <!-- Generator: Sketch 49.3 (51167) - http://www.bohemiancoding.com/sketch -->
    <title>css</title>
    <desc>Created with Sketch.</desc>
    <defs></defs>
    <g id="Page-1" stroke="none" stroke-width="1" fill="none" fill-rule="evenodd">
        <g id="png" transform="translate(-578.000000, -444.000000)">
            <g id="files" transform="translate(43.000000, 230.000000)">
                <g id="css" transform="translate(535.000000, 214.000000)">
                    <path d="M13,0 L65.7339131,0 L81,18.640625 L81,90 C81,91.6568542 79.6568542,93 78,93 L13,93 C11.3431458,93 10,91.6568542 10,90 L10,3 C10,1.34314575 11.3431458,3.04359188e-16 13,0 Z" id="Rectangle-2" fill="#E6F2FF"></path>
                    <path d="M66.1679688,0.083984375 L66.1679688,15.6293945 C66.1679688,17.2862488 67.5111145,18.6293945 69.1679688,18.6293945 L81.0048828,18.6293945 L66.1679688,0.083984375 Z" id="Rectangle-2-Copy" fill="#AEC3DA"></path>
                    <rect id="Rectangle-3" fill="#1572B6" x="0" y="53" width="66" height="32" rx="3"></rect>
                    <path d="M25.7,63.52 C25.3933318,63.1466648 25.0166689,62.860001 24.57,62.66 C24.1233311,62.459999 23.6066696,62.36 23.02,62.36 C22.4333304,62.36 21.8900025,62.4733322 21.39,62.7 C20.8899975,62.9266678 20.4566685,63.2433313 20.09,63.65 C19.7233315,64.0566687 19.4366677,64.5399972 19.23,65.1 C19.0233323,65.6600028 18.92,66.2666634 18.92,66.92 C18.92,67.58667 19.0233323,68.1966639 19.23,68.75 C19.4366677,69.3033361 19.7199982,69.7833313 20.08,70.19 C20.4400018,70.5966687 20.8633309,70.9133322 21.35,71.14 C21.8366691,71.3666678 22.3599972,71.48 22.92,71.48 C23.5600032,71.48 24.1266642,71.346668 24.62,71.08 C25.1133358,70.813332 25.5199984,70.4400024 25.84,69.96 L28.44,71.9 C27.839997,72.7400042 27.0800046,73.359998 26.16,73.76 C25.2399954,74.160002 24.2933382,74.36 23.32,74.36 C22.2133278,74.36 21.193338,74.1866684 20.26,73.84 C19.326662,73.4933316 18.5200034,72.9966699 17.84,72.35 C17.1599966,71.7033301 16.6300019,70.9200046 16.25,70 C15.8699981,69.0799954 15.68,68.053339 15.68,66.92 C15.68,65.786661 15.8699981,64.7600046 16.25,63.84 C16.6300019,62.9199954 17.1599966,62.1366699 17.84,61.49 C18.5200034,60.8433301 19.326662,60.3466684 20.26,60 C21.193338,59.6533316 22.2133278,59.48 23.32,59.48 C23.720002,59.48 24.1366645,59.5166663 24.57,59.59 C25.0033355,59.6633337 25.4299979,59.7799992 25.85,59.94 C26.2700021,60.1000008 26.6733314,60.313332 27.06,60.58 C27.4466686,60.846668 27.7933318,61.1733314 28.1,61.56 L25.7,63.52 Z M37.14,63.3 C36.8866654,62.9799984 36.5433355,62.7433341 36.11,62.59 C35.6766645,62.4366659 35.2666686,62.36 34.88,62.36 C34.6533322,62.36 34.4200012,62.3866664 34.18,62.44 C33.9399988,62.4933336 33.7133344,62.5766661 33.5,62.69 C33.2866656,62.8033339 33.113334,62.9533324 32.98,63.14 C32.846666,63.3266676 32.78,63.553332 32.78,63.82 C32.78,64.2466688 32.9399984,64.5733322 33.26,64.8 C33.5800016,65.0266678 33.9833309,65.2199992 34.47,65.38 C34.9566691,65.5400008 35.4799972,65.6999992 36.04,65.86 C36.6000028,66.0200008 37.1233309,66.2466652 37.61,66.54 C38.0966691,66.8333348 38.4999984,67.2266642 38.82,67.72 C39.1400016,68.2133358 39.3,68.8733292 39.3,69.7 C39.3,70.4866706 39.1533348,71.1733304 38.86,71.76 C38.5666652,72.3466696 38.1700025,72.8333314 37.67,73.22 C37.1699975,73.6066686 36.5900033,73.8933324 35.93,74.08 C35.2699967,74.2666676 34.573337,74.36 33.84,74.36 C32.9199954,74.36 32.0666706,74.2200014 31.28,73.94 C30.4933294,73.6599986 29.7600034,73.2066698 29.08,72.58 L31.3,70.14 C31.6200016,70.5666688 32.0233309,70.8966655 32.51,71.13 C32.9966691,71.3633345 33.4999974,71.48 34.02,71.48 C34.2733346,71.48 34.5299987,71.4500003 34.79,71.39 C35.0500013,71.3299997 35.2833323,71.2400006 35.49,71.12 C35.6966677,70.9999994 35.8633327,70.8466676 35.99,70.66 C36.1166673,70.4733324 36.18,70.2533346 36.18,70 C36.18,69.5733312 36.0166683,69.2366679 35.69,68.99 C35.3633317,68.7433321 34.9533358,68.5333342 34.46,68.36 C33.9666642,68.1866658 33.4333362,68.0133342 32.86,67.84 C32.2866638,67.6666658 31.7533358,67.4333348 31.26,67.14 C30.7666642,66.8466652 30.3566683,66.4600024 30.03,65.98 C29.7033317,65.4999976 29.54,64.8666706 29.54,64.08 C29.54,63.3199962 29.6899985,62.6533362 29.99,62.08 C30.2900015,61.5066638 30.6899975,61.0266686 31.19,60.64 C31.6900025,60.2533314 32.2666634,59.9633343 32.92,59.77 C33.5733366,59.5766657 34.2466632,59.48 34.94,59.48 C35.740004,59.48 36.5133296,59.5933322 37.26,59.82 C38.0066704,60.0466678 38.679997,60.426664 39.28,60.96 L37.14,63.3 Z M48.62,63.3 C48.3666654,62.9799984 48.0233355,62.7433341 47.59,62.59 C47.1566645,62.4366659 46.7466686,62.36 46.36,62.36 C46.1333322,62.36 45.9000012,62.3866664 45.66,62.44 C45.4199988,62.4933336 45.1933344,62.5766661 44.98,62.69 C44.7666656,62.8033339 44.593334,62.9533324 44.46,63.14 C44.326666,63.3266676 44.26,63.553332 44.26,63.82 C44.26,64.2466688 44.4199984,64.5733322 44.74,64.8 C45.0600016,65.0266678 45.4633309,65.2199992 45.95,65.38 C46.4366691,65.5400008 46.9599972,65.6999992 47.52,65.86 C48.0800028,66.0200008 48.6033309,66.2466652 49.09,66.54 C49.5766691,66.8333348 49.9799984,67.2266642 50.3,67.72 C50.6200016,68.2133358 50.78,68.8733292 50.78,69.7 C50.78,70.4866706 50.6333348,71.1733304 50.34,71.76 C50.0466652,72.3466696 49.6500025,72.8333314 49.15,73.22 C48.6499975,73.6066686 48.0700033,73.8933324 47.41,74.08 C46.7499967,74.2666676 46.053337,74.36 45.32,74.36 C44.3999954,74.36 43.5466706,74.2200014 42.76,73.94 C41.9733294,73.6599986 41.2400034,73.2066698 40.56,72.58 L42.78,70.14 C43.1000016,70.5666688 43.5033309,70.8966655 43.99,71.13 C44.4766691,71.3633345 44.9799974,71.48 45.5,71.48 C45.7533346,71.48 46.0099987,71.4500003 46.27,71.39 C46.5300013,71.3299997 46.7633323,71.2400006 46.97,71.12 C47.1766677,70.9999994 47.3433327,70.8466676 47.47,70.66 C47.5966673,70.4733324 47.66,70.2533346 47.66,70 C47.66,69.5733312 47.4966683,69.2366679 47.17,68.99 C46.8433317,68.7433321 46.4333358,68.5333342 45.94,68.36 C45.4466642,68.1866658 44.9133362,68.0133342 44.34,67.84 C43.7666638,67.6666658 43.2333358,67.4333348 42.74,67.14 C42.2466642,66.8466652 41.8366683,66.4600024 41.51,65.98 C41.1833317,65.4999976 41.02,64.8666706 41.02,64.08 C41.02,63.3199962 41.1699985,62.6533362 41.47,62.08 C41.7700015,61.5066638 42.1699975,61.0266686 42.67,60.64 C43.1700025,60.2533314 43.7466634,59.9633343 44.4,59.77 C45.0533366,59.5766657 45.7266632,59.48 46.42,59.48 C47.220004,59.48 47.9933296,59.5933322 48.74,59.82 C49.4866704,60.0466678 50.159997,60.426664 50.76,60.96 L48.62,63.3 Z" id="CSS" fill="#FFFFFF"></path>
                </g>
            </g>
        </g>
    </g>
</svg>