<?xml version="1.0" encoding="UTF-8"?>
<svg width="81px" height="93px" viewBox="0 0 81 93" version="1.1" xmlns="http://www.w3.org/2000/svg" xmlns:xlink="http://www.w3.org/1999/xlink">
    <!-- Generator: Sketch 49.3 (51167) - http://www.bohemiancoding.com/sketch -->
    <title>draw</title>
    <desc>Created with Sketch.</desc>
    <defs></defs>
    <g id="Page-1" stroke="none" stroke-width="1" fill="none" fill-rule="evenodd">
        <g id="png" transform="translate(-775.000000, -873.000000)">
            <g id="files" transform="translate(43.000000, 230.000000)">
                <g id="draw" transform="translate(732.000000, 643.000000)">
                    <path d="M13,0 L65.7339131,0 L81,18.640625 L81,90 C81,91.6568542 79.6568542,93 78,93 L13,93 C11.3431458,93 10,91.6568542 10,90 L10,3 C10,1.34314575 11.3431458,3.04359188e-16 13,0 Z" id="Rectangle-2" fill="#E6F2FF"></path>
                    <path d="M66.1679688,0.083984375 L66.1679688,15.6293945 C66.1679688,17.2862488 67.5111145,18.6293945 69.1679688,18.6293945 L81.0048828,18.6293945 L66.1679688,0.083984375 Z" id="Rectangle-2-Copy" fill="#AEC3DA"></path>
                    <rect id="Rectangle-3" fill="#4A4A4A" x="0" y="53" width="66" height="32" rx="3"></rect>
                    <path d="M3.44,59.84 L8.12,59.84 C9.253339,59.84 10.3299949,59.9666654 11.35,60.22 C12.3700051,60.4733346 13.2599962,60.8833305 14.02,61.45 C14.7800038,62.0166695 15.3833311,62.7533288 15.83,63.66 C16.2766689,64.5666712 16.5,65.6666602 16.5,66.96 C16.5,68.1066724 16.2833355,69.1166623 15.85,69.99 C15.4166645,70.8633377 14.833337,71.5966637 14.1,72.19 C13.366663,72.7833363 12.5200048,73.2333318 11.56,73.54 C10.5999952,73.8466682 9.5933386,74 8.54,74 L3.44,74 L3.44,59.84 Z M6.56,71.12 L8.18,71.12 C8.9000036,71.12 9.5699969,71.0466674 10.19,70.9 C10.8100031,70.7533326 11.3466644,70.5100017 11.8,70.17 C12.2533356,69.8299983 12.6099987,69.3833361 12.87,68.83 C13.1300013,68.2766639 13.26,67.600004 13.26,66.8 C13.26,66.1066632 13.1300013,65.5033359 12.87,64.99 C12.6099987,64.4766641 12.2600022,64.053335 11.82,63.72 C11.3799978,63.386665 10.8633363,63.1366675 10.27,62.97 C9.6766637,62.8033325 9.0533366,62.72 8.4,62.72 L6.56,62.72 L6.56,71.12 Z M18.62,59.84 L24.1,59.84 C24.8200036,59.84 25.5033301,59.9099993 26.15,60.05 C26.7966699,60.1900007 27.3633309,60.4233317 27.85,60.75 C28.3366691,61.0766683 28.7233319,61.5166639 29.01,62.07 C29.2966681,62.6233361 29.44,63.3133292 29.44,64.14 C29.44,65.140005 29.1800026,65.9899965 28.66,66.69 C28.1399974,67.3900035 27.380005,67.8333324 26.38,68.02 L29.98,74 L26.24,74 L23.28,68.34 L21.74,68.34 L21.74,74 L18.62,74 L18.62,59.84 Z M21.74,65.7 L23.58,65.7 C23.8600014,65.7 24.1566651,65.6900001 24.47,65.67 C24.7833349,65.6499999 25.0666654,65.5900005 25.32,65.49 C25.5733346,65.3899995 25.7833325,65.2333344 25.95,65.02 C26.1166675,64.8066656 26.2,64.5066686 26.2,64.12 C26.2,63.7599982 26.1266674,63.4733344 25.98,63.26 C25.8333326,63.0466656 25.6466678,62.8833339 25.42,62.77 C25.1933322,62.6566661 24.9333348,62.5800002 24.64,62.54 C24.3466652,62.4999998 24.0600014,62.48 23.78,62.48 L21.74,62.48 L21.74,65.7 Z M36.24,59.84 L38.82,59.84 L44.98,74 L41.46,74 L40.24,71 L34.74,71 L33.56,74 L30.12,74 L36.24,59.84 Z M37.44,63.96 L35.72,68.36 L39.18,68.36 L37.44,63.96 Z M44.42,59.84 L47.82,59.84 L50.08,68.92 L50.12,68.92 L53.08,59.84 L55.98,59.84 L58.92,69.16 L58.96,69.16 L61.34,59.84 L64.5,59.84 L60.36,74 L57.58,74 L54.46,64.2 L54.42,64.2 L51.3,74 L48.62,74 L44.42,59.84 Z" id="DRAW" fill="#4A90E2"></path>
                </g>
            </g>
        </g>
    </g>
</svg>