<?xml version="1.0" encoding="UTF-8"?>
<svg width="81px" height="93px" viewBox="0 0 81 93" version="1.1" xmlns="http://www.w3.org/2000/svg" xmlns:xlink="http://www.w3.org/1999/xlink">
    <!-- Generator: Sketch 49.3 (51167) - http://www.bohemiancoding.com/sketch -->
    <title>erl</title>
    <desc>Created with Sketch.</desc>
    <defs></defs>
    <g id="Page-1" stroke="none" stroke-width="1" fill="none" fill-rule="evenodd">
        <g id="png" transform="translate(-378.000000, -552.000000)">
            <g id="files" transform="translate(43.000000, 230.000000)">
                <g id="erl" transform="translate(335.000000, 322.000000)">
                    <path d="M13,0 L65.7339131,0 L81,18.640625 L81,90 C81,91.6568542 79.6568542,93 78,93 L13,93 C11.3431458,93 10,91.6568542 10,90 L10,3 C10,1.34314575 11.3431458,3.04359188e-16 13,0 Z" id="Rectangle-2" fill="#E6F2FF"></path>
                    <path d="M66.1679688,0.083984375 L66.1679688,15.6293945 C66.1679688,17.2862488 67.5111145,18.6293945 69.1679688,18.6293945 L81.0048828,18.6293945 L66.1679688,0.083984375 Z" id="Rectangle-2-Copy" fill="#AEC3DA"></path>
                    <rect id="Rectangle-3" fill="#3B006E" x="0" y="53" width="66" height="32" rx="3"></rect>
                    <path d="M16.721,71.572 C16.312998,72.0933359 15.7973364,72.4956653 15.174,72.779 C14.5506636,73.0623347 13.90467,73.204 13.236,73.204 C12.6013302,73.204 12.0035028,73.102001 11.4425,72.898 C10.8814972,72.693999 10.3941687,72.4021686 9.9805,72.0225 C9.56683127,71.6428314 9.24100119,71.1866693 9.003,70.654 C8.76499881,70.1213307 8.646,69.5263366 8.646,68.869 C8.646,68.2116634 8.76499881,67.6166693 9.003,67.084 C9.24100119,66.5513307 9.56683127,66.0951686 9.9805,65.7155 C10.3941687,65.3358314 10.8814972,65.044001 11.4425,64.84 C12.0035028,64.635999 12.6013302,64.534 13.236,64.534 C13.8253363,64.534 14.3608309,64.635999 14.8425,64.84 C15.3241691,65.044001 15.732165,65.3358314 16.0665,65.7155 C16.400835,66.0951686 16.6586658,66.5513307 16.84,67.084 C17.0213342,67.6166693 17.112,68.2116634 17.112,68.869 L17.112,69.668 L11.196,69.668 C11.2980005,70.1553358 11.5189983,70.5434986 11.859,70.8325 C12.1990017,71.1215014 12.6183308,71.266 13.117,71.266 C13.5363354,71.266 13.8904986,71.1725009 14.1795,70.9855 C14.4685014,70.7984991 14.7206656,70.5576681 14.936,70.263 L16.721,71.572 Z M14.562,67.934 C14.5733334,67.5033312 14.4316681,67.1350015 14.137,66.829 C13.8423319,66.5229985 13.462669,66.37 12.998,66.37 C12.7146652,66.37 12.4653344,66.4153329 12.25,66.506 C12.0346656,66.5966671 11.8505008,66.7128326 11.6975,66.8545 C11.5444992,66.9961674 11.4255004,67.1604991 11.3405,67.3475 C11.2554996,67.5345009 11.2073334,67.729999 11.196,67.934 L14.562,67.934 Z M18.659,64.738 L21.209,64.738 L21.209,66.064 L21.243,66.064 C21.5150014,65.5539974 21.8379981,65.1715013 22.212,64.9165 C22.5860019,64.6614987 23.0563305,64.534 23.623,64.534 C23.7703341,64.534 23.9176659,64.5396666 24.065,64.551 C24.2123341,64.5623334 24.3483327,64.5849998 24.473,64.619 L24.473,66.948 C24.2916658,66.8913331 24.1131675,66.8488335 23.9375,66.8205 C23.7618325,66.7921665 23.5776676,66.778 23.385,66.778 C22.8976642,66.778 22.5123348,66.8459993 22.229,66.982 C21.9456653,67.1180007 21.7275008,67.3078321 21.5745,67.5515 C21.4214992,67.7951679 21.3223336,68.0869983 21.277,68.427 C21.2316664,68.7670017 21.209,69.140998 21.209,69.549 L21.209,73 L18.659,73 L18.659,64.738 Z M25.612,60.148 L28.162,60.148 L28.162,73 L25.612,73 L25.612,60.148 Z M35.183,71.963 L35.149,71.963 C34.8656652,72.4050022 34.4888357,72.7223324 34.0185,72.915 C33.5481643,73.1076676 33.0523359,73.204 32.531,73.204 C32.1456647,73.204 31.7745018,73.1501672 31.4175,73.0425 C31.0604982,72.9348328 30.7460014,72.7733344 30.474,72.558 C30.2019986,72.3426656 29.9866675,72.0763349 29.828,71.759 C29.6693325,71.4416651 29.59,71.0733354 29.59,70.654 C29.59,70.1779976 29.6778325,69.7756683 29.8535,69.447 C30.0291675,69.1183317 30.2671652,68.8463344 30.5675,68.631 C30.8678348,68.4156656 31.2106647,68.2485006 31.596,68.1295 C31.9813353,68.0104994 32.3808313,67.922667 32.7945,67.866 C33.2081687,67.809333 33.6218313,67.7753334 34.0355,67.764 C34.4491687,67.7526666 34.8316649,67.747 35.183,67.747 C35.183,67.2936644 35.0215016,66.9338347 34.6985,66.6675 C34.3754984,66.4011653 33.9930022,66.268 33.551,66.268 C33.1316646,66.268 32.7491684,66.3558325 32.4035,66.5315 C32.0578316,66.7071675 31.7490014,66.9479985 31.477,67.254 L30.117,65.86 C30.5930024,65.4179978 31.1483302,65.0865011 31.783,64.8655 C32.4176698,64.6444989 33.0749966,64.534 33.755,64.534 C34.5030037,64.534 35.1178309,64.6274991 35.5995,64.8145 C36.0811691,65.0015009 36.4664986,65.2763315 36.7555,65.639 C37.0445014,66.0016685 37.2456661,66.4464974 37.359,66.9735 C37.4723339,67.5005026 37.529,68.1096632 37.529,68.801 L37.529,73 L35.183,73 L35.183,71.963 Z M34.554,69.379 C34.3613324,69.379 34.1205014,69.3874999 33.8315,69.4045 C33.5424986,69.4215001 33.2648347,69.4696663 32.9985,69.549 C32.7321653,69.6283337 32.5055009,69.7473325 32.3185,69.906 C32.1314991,70.0646675 32.038,70.2856652 32.038,70.569 C32.038,70.8750015 32.168332,71.1016659 32.429,71.249 C32.689668,71.3963341 32.9616652,71.47 33.245,71.47 C33.4943346,71.47 33.7351655,71.4360003 33.9675,71.368 C34.1998345,71.2999997 34.4066658,71.2036673 34.588,71.079 C34.7693342,70.9543327 34.9138328,70.7956676 35.0215,70.603 C35.1291672,70.4103324 35.183,70.183668 35.183,69.923 L35.183,69.379 L34.554,69.379 Z M39.127,64.738 L41.575,64.738 L41.575,65.86 L41.609,65.86 C41.6883337,65.7013325 41.8016659,65.5426675 41.949,65.384 C42.0963341,65.2253325 42.271999,65.0836673 42.476,64.959 C42.680001,64.8343327 42.912332,64.7323337 43.173,64.653 C43.433668,64.5736663 43.7169985,64.534 44.023,64.534 C44.6690032,64.534 45.1903314,64.6331657 45.587,64.8315 C45.9836687,65.0298343 46.2924989,65.3046649 46.5135,65.656 C46.7345011,66.0073351 46.8846663,66.4209976 46.964,66.897 C47.0433337,67.3730024 47.083,67.8886639 47.083,68.444 L47.083,73 L44.533,73 L44.533,68.954 C44.533,68.7159988 44.5245001,68.4695013 44.5075,68.2145 C44.4904999,67.9594987 44.4395004,67.7243344 44.3545,67.509 C44.2694996,67.2936656 44.1391675,67.1180007 43.9635,66.982 C43.7878325,66.8459993 43.5356683,66.778 43.207,66.778 C42.8783317,66.778 42.612001,66.8374994 42.408,66.9565 C42.203999,67.0755006 42.0481672,67.2341657 41.9405,67.4325 C41.8328328,67.6308343 41.7620002,67.8546654 41.728,68.104 C41.6939998,68.3533346 41.677,68.6139986 41.677,68.886 L41.677,73 L39.127,73 L39.127,64.738 Z M57.555,72.303 C57.555,73.8670078 57.1611706,75.0541626 56.3735,75.8645 C55.5858294,76.6748374 54.3873414,77.08 52.778,77.08 C52.0413297,77.08 51.3160036,76.9978342 50.602,76.8335 C49.8879964,76.6691658 49.2306697,76.3490024 48.63,75.873 L50.041,73.765 C50.4376687,74.0936683 50.8541645,74.3543324 51.2905,74.547 C51.7268355,74.7396676 52.2056641,74.836 52.727,74.836 C53.5090039,74.836 54.0841648,74.6461686 54.4525,74.2665 C54.8208352,73.8868314 55.005,73.4023363 55.005,72.813 L55.005,72.014 L54.971,72.014 C54.6763319,72.4106686 54.3108355,72.6911658 53.8745,72.8555 C53.4381645,73.0198342 53.0273353,73.102 52.642,73.102 C52.0299969,73.102 51.4746692,72.9971677 50.976,72.7875 C50.4773308,72.5778323 50.0495018,72.2831686 49.6925,71.9035 C49.3354982,71.5238314 49.0606676,71.0733359 48.868,70.552 C48.6753324,70.0306641 48.579,69.4583365 48.579,68.835 C48.579,68.2909973 48.6668325,67.7583359 48.8425,67.237 C49.0181675,66.7156641 49.2674984,66.2566686 49.5905,65.86 C49.9135016,65.4633314 50.307331,65.1431679 50.772,64.8995 C51.236669,64.6558321 51.7636637,64.534 52.353,64.534 C52.7156685,64.534 53.0471652,64.5736663 53.3475,64.653 C53.6478348,64.7323337 53.9169988,64.8343327 54.155,64.959 C54.3930012,65.0836673 54.5969992,65.2224992 54.767,65.3755 C54.9370009,65.5285008 55.0729995,65.6786659 55.175,65.826 L55.209,65.826 L55.209,64.738 L57.555,64.738 L57.555,72.303 Z M51.129,68.818 C51.129,69.0900014 51.1799995,69.3478321 51.282,69.5915 C51.3840005,69.8351679 51.5284991,70.0504991 51.7155,70.2375 C51.9025009,70.4245009 52.1178321,70.5746661 52.3615,70.688 C52.6051679,70.8013339 52.8743319,70.858 53.169,70.858 C53.4523347,70.858 53.7186654,70.8013339 53.968,70.688 C54.2173346,70.5746661 54.4354991,70.4245009 54.6225,70.2375 C54.8095009,70.0504991 54.9539995,69.8351679 55.056,69.5915 C55.1580005,69.3478321 55.209,69.0900014 55.209,68.818 C55.209,68.5459986 55.1580005,68.2881679 55.056,68.0445 C54.9539995,67.8008321 54.8095009,67.5855009 54.6225,67.3985 C54.4354991,67.2114991 54.2173346,67.0613339 53.968,66.948 C53.7186654,66.8346661 53.4523347,66.778 53.169,66.778 C52.8743319,66.778 52.6051679,66.8346661 52.3615,66.948 C52.1178321,67.0613339 51.9025009,67.2114991 51.7155,67.3985 C51.5284991,67.5855009 51.3840005,67.8008321 51.282,68.0445 C51.1799995,68.2881679 51.129,68.5459986 51.129,68.818 Z" id="erlang" fill="#FFFFFF"></path>
                </g>
            </g>
        </g>
    </g>
</svg>