<?xml version="1.0" encoding="UTF-8"?>
<svg width="81px" height="93px" viewBox="0 0 81 93" version="1.1" xmlns="http://www.w3.org/2000/svg" xmlns:xlink="http://www.w3.org/1999/xlink">
    <!-- Generator: Sketch 49.3 (51167) - http://www.bohemiancoding.com/sketch -->
    <title>go</title>
    <desc>Created with Sketch.</desc>
    <defs></defs>
    <g id="Page-1" stroke="none" stroke-width="1" fill="none" fill-rule="evenodd">
        <g id="png" transform="translate(-678.000000, -337.000000)">
            <g id="files" transform="translate(43.000000, 230.000000)">
                <g id="go" transform="translate(635.000000, 107.000000)">
                    <path d="M13,0 L65.7339131,0 L81,18.640625 L81,90 C81,91.6568542 79.6568542,93 78,93 L13,93 C11.3431458,93 10,91.6568542 10,90 L10,3 C10,1.34314575 11.3431458,3.04359188e-16 13,0 Z" id="Rectangle-2" fill="#E6F2FF"></path>
                    <path d="M66.1679688,0.083984375 L66.1679688,15.6293945 C66.1679688,17.2862488 67.5111145,18.6293945 69.1679688,18.6293945 L81.0048828,18.6293945 L66.1679688,0.083984375 Z" id="Rectangle-2-Copy" fill="#AEC3DA"></path>
                    <rect id="Rectangle-3" fill="#34CAA8" x="0" y="53" width="66" height="32" rx="3"></rect>
                    <path d="M12.26,73.18 C12.26,75.0200092 11.7966713,76.4166619 10.87,77.37 C9.9433287,78.3233381 8.5333428,78.8 6.64,78.8 C5.773329,78.8 4.9200042,78.7033343 4.08,78.51 C3.2399958,78.3166657 2.4666702,77.9400028 1.76,77.38 L3.42,74.9 C3.886669,75.2866686 4.3766641,75.5933322 4.89,75.82 C5.4033359,76.0466678 5.9666636,76.16 6.58,76.16 C7.5000046,76.16 8.1766645,75.9366689 8.61,75.49 C9.0433355,75.0433311 9.26,74.4733368 9.26,73.78 L9.26,72.84 L9.22,72.84 C8.8733316,73.306669 8.4433359,73.6366657 7.93,73.83 C7.4166641,74.0233343 6.9333356,74.12 6.48,74.12 C5.7599964,74.12 5.1066696,73.9966679 4.52,73.75 C3.9333304,73.5033321 3.4300021,73.1566689 3.01,72.71 C2.5899979,72.2633311 2.2666678,71.7333364 2.04,71.12 C1.8133322,70.5066636 1.7,69.833337 1.7,69.1 C1.7,68.4599968 1.8033323,67.8333364 2.01,67.22 C2.2166677,66.6066636 2.5099981,66.066669 2.89,65.6 C3.2700019,65.133331 3.7333306,64.7566681 4.28,64.47 C4.8266694,64.1833319 5.4466632,64.04 6.14,64.04 C6.5666688,64.04 6.9566649,64.0866662 7.31,64.18 C7.6633351,64.2733338 7.9799986,64.3933326 8.26,64.54 C8.5400014,64.6866674 8.779999,64.8499991 8.98,65.03 C9.180001,65.2100009 9.3399994,65.3866658 9.46,65.56 L9.5,65.56 L9.5,64.28 L12.26,64.28 L12.26,73.18 Z M4.7,69.08 C4.7,69.4000016 4.7599994,69.7033319 4.88,69.99 C5.0000006,70.2766681 5.1699989,70.5299989 5.39,70.75 C5.6100011,70.9700011 5.8633319,71.146666 6.15,71.28 C6.4366681,71.413334 6.7533316,71.48 7.1,71.48 C7.433335,71.48 7.7466652,71.413334 8.04,71.28 C8.3333348,71.146666 8.5899989,70.9700011 8.81,70.75 C9.0300011,70.5299989 9.1999994,70.2766681 9.32,69.99 C9.4400006,69.7033319 9.5,69.4000016 9.5,69.08 C9.5,68.7599984 9.4400006,68.4566681 9.32,68.17 C9.1999994,67.8833319 9.0300011,67.6300011 8.81,67.41 C8.5899989,67.1899989 8.3333348,67.013334 8.04,66.88 C7.7466652,66.746666 7.433335,66.68 7.1,66.68 C6.7533316,66.68 6.4366681,66.746666 6.15,66.88 C5.8633319,67.013334 5.6100011,67.1899989 5.39,67.41 C5.1699989,67.6300011 5.0000006,67.8833319 4.88,68.17 C4.7599994,68.4566681 4.7,68.7599984 4.7,69.08 Z M14.3,69.14 C14.3,68.3666628 14.4399986,67.6666698 14.72,67.04 C15.0000014,66.4133302 15.3833309,65.8766689 15.87,65.43 C16.3566691,64.9833311 16.9299967,64.6400012 17.59,64.4 C18.2500033,64.1599988 18.9533296,64.04 19.7,64.04 C20.4466704,64.04 21.1499967,64.1599988 21.81,64.4 C22.4700033,64.6400012 23.0433309,64.9833311 23.53,65.43 C24.0166691,65.8766689 24.3999986,66.4133302 24.68,67.04 C24.9600014,67.6666698 25.1,68.3666628 25.1,69.14 C25.1,69.9133372 24.9600014,70.6133302 24.68,71.24 C24.3999986,71.8666698 24.0166691,72.4033311 23.53,72.85 C23.0433309,73.2966689 22.4700033,73.6399988 21.81,73.88 C21.1499967,74.1200012 20.4466704,74.24 19.7,74.24 C18.9533296,74.24 18.2500033,74.1200012 17.59,73.88 C16.9299967,73.6399988 16.3566691,73.2966689 15.87,72.85 C15.3833309,72.4033311 15.0000014,71.8666698 14.72,71.24 C14.4399986,70.6133302 14.3,69.9133372 14.3,69.14 Z M17.3,69.14 C17.3,69.873337 17.5099979,70.4666644 17.93,70.92 C18.3500021,71.3733356 18.9399962,71.6 19.7,71.6 C20.4600038,71.6 21.0499979,71.3733356 21.47,70.92 C21.8900021,70.4666644 22.1,69.873337 22.1,69.14 C22.1,68.406663 21.8900021,67.8133356 21.47,67.36 C21.0499979,66.9066644 20.4600038,66.68 19.7,66.68 C18.9399962,66.68 18.3500021,66.9066644 17.93,67.36 C17.5099979,67.8133356 17.3,68.406663 17.3,69.14 Z M26.9,58.88 L29.9,58.88 L29.9,74 L26.9,74 L26.9,58.88 Z M38.16,72.78 L38.12,72.78 C37.786665,73.3000026 37.3433361,73.6733322 36.79,73.9 C36.2366639,74.1266678 35.6533364,74.24 35.04,74.24 C34.5866644,74.24 34.1500021,74.1766673 33.73,74.05 C33.3099979,73.9233327 32.9400016,73.7333346 32.62,73.48 C32.2999984,73.2266654 32.0466676,72.9133352 31.86,72.54 C31.6733324,72.1666648 31.58,71.7333358 31.58,71.24 C31.58,70.6799972 31.6833323,70.2066686 31.89,69.82 C32.0966677,69.4333314 32.3766649,69.1133346 32.73,68.86 C33.0833351,68.6066654 33.4866644,68.4100007 33.94,68.27 C34.3933356,68.1299993 34.8633309,68.026667 35.35,67.96 C35.8366691,67.893333 36.3233309,67.8533334 36.81,67.84 C37.2966691,67.8266666 37.7466646,67.82 38.16,67.82 C38.16,67.286664 37.9700019,66.8633349 37.59,66.55 C37.2099981,66.2366651 36.7600026,66.08 36.24,66.08 C35.7466642,66.08 35.2966687,66.1833323 34.89,66.39 C34.4833313,66.5966677 34.1200016,66.8799982 33.8,67.24 L32.2,65.6 C32.7600028,65.0799974 33.4133296,64.6900013 34.16,64.43 C34.9066704,64.1699987 35.679996,64.04 36.48,64.04 C37.3600044,64.04 38.0833305,64.1499989 38.65,64.37 C39.2166695,64.5900011 39.6699983,64.9133312 40.01,65.34 C40.3500017,65.7666688 40.586666,66.2899969 40.72,66.91 C40.853334,67.5300031 40.92,68.2466626 40.92,69.06 L40.92,74 L38.16,74 L38.16,72.78 Z M37.42,69.74 C37.1933322,69.74 36.9100017,69.7499999 36.57,69.77 C36.2299983,69.7900001 35.9033349,69.8466662 35.59,69.94 C35.2766651,70.0333338 35.0100011,70.1733324 34.79,70.36 C34.5699989,70.5466676 34.46,70.806665 34.46,71.14 C34.46,71.5000018 34.6133318,71.7666658 34.92,71.94 C35.2266682,72.1133342 35.546665,72.2 35.88,72.2 C36.1733348,72.2 36.4566653,72.1600004 36.73,72.08 C37.0033347,71.9999996 37.2466656,71.8866674 37.46,71.74 C37.6733344,71.5933326 37.8433327,71.4066678 37.97,71.18 C38.0966673,70.9533322 38.16,70.6866682 38.16,70.38 L38.16,69.74 L37.42,69.74 Z M42.8,64.28 L45.68,64.28 L45.68,65.6 L45.72,65.6 C45.8133338,65.4133324 45.9466658,65.2266676 46.12,65.04 C46.2933342,64.8533324 46.4999988,64.6866674 46.74,64.54 C46.9800012,64.3933326 47.2533318,64.2733338 47.56,64.18 C47.8666682,64.0866662 48.1999982,64.04 48.56,64.04 C49.3200038,64.04 49.933331,64.1566655 50.4,64.39 C50.866669,64.6233345 51.2299987,64.9466646 51.49,65.36 C51.7500013,65.7733354 51.9266662,66.2599972 52.02,66.82 C52.1133338,67.3800028 52.16,67.9866634 52.16,68.64 L52.16,74 L49.16,74 L49.16,69.24 C49.16,68.9599986 49.1500001,68.6700015 49.13,68.37 C49.1099999,68.0699985 49.0500005,67.7933346 48.95,67.54 C48.8499995,67.2866654 48.6966677,67.0800008 48.49,66.92 C48.2833323,66.7599992 47.9866686,66.68 47.6,66.68 C47.2133314,66.68 46.9000012,66.7499993 46.66,66.89 C46.4199988,67.0300007 46.2366673,67.2166655 46.11,67.45 C45.9833327,67.6833345 45.9000002,67.9466652 45.86,68.24 C45.8199998,68.5333348 45.8,68.8399984 45.8,69.16 L45.8,74 L42.8,74 L42.8,64.28 Z M64.48,73.18 C64.48,75.0200092 64.0166713,76.4166619 63.09,77.37 C62.1633287,78.3233381 60.7533428,78.8 58.86,78.8 C57.993329,78.8 57.1400042,78.7033343 56.3,78.51 C55.4599958,78.3166657 54.6866702,77.9400028 53.98,77.38 L55.64,74.9 C56.106669,75.2866686 56.5966641,75.5933322 57.11,75.82 C57.6233359,76.0466678 58.1866636,76.16 58.8,76.16 C59.7200046,76.16 60.3966645,75.9366689 60.83,75.49 C61.2633355,75.0433311 61.48,74.4733368 61.48,73.78 L61.48,72.84 L61.44,72.84 C61.0933316,73.306669 60.6633359,73.6366657 60.15,73.83 C59.6366641,74.0233343 59.1533356,74.12 58.7,74.12 C57.9799964,74.12 57.3266696,73.9966679 56.74,73.75 C56.1533304,73.5033321 55.6500021,73.1566689 55.23,72.71 C54.8099979,72.2633311 54.4866678,71.7333364 54.26,71.12 C54.0333322,70.5066636 53.92,69.833337 53.92,69.1 C53.92,68.4599968 54.0233323,67.8333364 54.23,67.22 C54.4366677,66.6066636 54.7299981,66.066669 55.11,65.6 C55.4900019,65.133331 55.9533306,64.7566681 56.5,64.47 C57.0466694,64.1833319 57.6666632,64.04 58.36,64.04 C58.7866688,64.04 59.1766649,64.0866662 59.53,64.18 C59.8833351,64.2733338 60.1999986,64.3933326 60.48,64.54 C60.7600014,64.6866674 60.999999,64.8499991 61.2,65.03 C61.400001,65.2100009 61.5599994,65.3866658 61.68,65.56 L61.72,65.56 L61.72,64.28 L64.48,64.28 L64.48,73.18 Z M56.92,69.08 C56.92,69.4000016 56.9799994,69.7033319 57.1,69.99 C57.2200006,70.2766681 57.3899989,70.5299989 57.61,70.75 C57.8300011,70.9700011 58.0833319,71.146666 58.37,71.28 C58.6566681,71.413334 58.9733316,71.48 59.32,71.48 C59.653335,71.48 59.9666652,71.413334 60.26,71.28 C60.5533348,71.146666 60.8099989,70.9700011 61.03,70.75 C61.2500011,70.5299989 61.4199994,70.2766681 61.54,69.99 C61.6600006,69.7033319 61.72,69.4000016 61.72,69.08 C61.72,68.7599984 61.6600006,68.4566681 61.54,68.17 C61.4199994,67.8833319 61.2500011,67.6300011 61.03,67.41 C60.8099989,67.1899989 60.5533348,67.013334 60.26,66.88 C59.9666652,66.746666 59.653335,66.68 59.32,66.68 C58.9733316,66.68 58.6566681,66.746666 58.37,66.88 C58.0833319,67.013334 57.8300011,67.1899989 57.61,67.41 C57.3899989,67.6300011 57.2200006,67.8833319 57.1,68.17 C56.9799994,68.4566681 56.92,68.7599984 56.92,69.08 Z" id="golang" fill="#FFFFFF"></path>
                </g>
            </g>
        </g>
    </g>
</svg>