<?xml version="1.0" encoding="UTF-8"?>
<svg width="79px" height="72px" viewBox="0 0 79 72" version="1.1" xmlns="http://www.w3.org/2000/svg" xmlns:xlink="http://www.w3.org/1999/xlink">
    <!-- Generator: Sketch 49.3 (51167) - http://www.bohemiancoding.com/sketch -->
    <title>gzip</title>
    <desc>Created with Sketch.</desc>
    <defs></defs>
    <g id="Page-1" stroke="none" stroke-width="1" fill="none" fill-rule="evenodd">
        <g id="png" transform="translate(-670.000000, -139.000000)">
            <g id="Archives-icons" transform="translate(43.000000, 139.000000)">
                <g id="gzip" transform="translate(627.000000, 0.000000)">
                    <g id="Group-3">
                        <rect id="Rectangle-6" fill="#CA8DFF" x="0" y="13.752809" width="58.6391753" height="58.247191"></rect>
                        <polygon id="Rectangle-6-Copy-2" fill="#B05DF8" points="58.6391753 13.752809 78.4013043 0.0578695576 78.4013043 56.5083392 58.6391753 72"></polygon>
                        <polygon id="Rectangle-6-Copy" fill="#DAAFFF" points="19.8772552 0 78.5164304 0 58.6391753 13.752809 0 13.752809"></polygon>
                    </g>
                    <g id="zip" transform="translate(8.958763, 14.325843)">
                        <rect id="Rectangle" fill="#3E3E3E" x="-8.8817842e-16" y="0" width="8.1443299" height="33.9775281"></rect>
                        <rect id="Path" fill="#F4F4F4" x="3.25773196" y="29.9325843" width="2.44329897" height="2.42696629"></rect>
                        <rect id="Path" fill="#F4F4F4" x="3.25773196" y="10.5168539" width="2.44329897" height="2.42696629"></rect>
                        <g id="Group" transform="translate(3.257732, 0.000000)" fill="#B1B1B1">
                            <rect id="Path" x="0" y="3.23595506" width="2.44329897" height="4.85393258"></rect>
                            <polygon id="Path" transform="translate(3.257732, 2.831461) rotate(25.000000) translate(-3.257732, -2.831461) " points="2.41926903 0.808988764 4.88659794 0.808988764 2.6349522 4.85393258 1.62886598 4.6995287"></polygon>
                        </g>
                        <rect id="Path" fill="#F4F4F4" x="3.25773196" y="15.3707865" width="2.44329897" height="2.42696629"></rect>
                        <rect id="Path" fill="#F4F4F4" x="3.25773196" y="20.2247191" width="2.44329897" height="2.42696629"></rect>
                        <rect id="Path" fill="#F4F4F4" x="3.25773196" y="25.0786517" width="2.44329897" height="2.42696629"></rect>
                    </g>
                    <path d="M32.695,28.25 C32.0049966,28.6100018 31.2850038,28.8699992 30.535,29.03 C29.7849962,29.1900008 29.0200039,29.27 28.24,29.27 C27.4099959,29.27 26.6450035,29.1400013 25.945,28.88 C25.2449965,28.6199987 24.6400025,28.2475024 24.13,27.7625 C23.6199974,27.2774976 23.2225014,26.6900034 22.9375,26 C22.6524986,25.3099966 22.51,24.5400043 22.51,23.69 C22.51,22.8399957 22.6524986,22.0700034 22.9375,21.38 C23.2225014,20.6899966 23.6199974,20.1025024 24.13,19.6175 C24.6400025,19.1324976 25.2449965,18.7600013 25.945,18.5 C26.6450035,18.2399987 27.4099959,18.11 28.24,18.11 C29.0900042,18.11 29.8724964,18.212499 30.5875,18.4175 C31.3025036,18.622501 31.9299973,18.9749975 32.47,19.475 L30.82,21.275 C30.4999984,20.9449984 30.140002,20.6950008 29.74,20.525 C29.339998,20.3549991 28.840003,20.27 28.24,20.27 C27.7399975,20.27 27.287502,20.3549991 26.8825,20.525 C26.477498,20.6950008 26.1300015,20.9324985 25.84,21.2375 C25.5499985,21.5425015 25.3275008,21.9049979 25.1725,22.325 C25.0174992,22.7450021 24.94,23.1999975 24.94,23.69 C24.94,24.1900025 25.0174992,24.6474979 25.1725,25.0625 C25.3275008,25.4775021 25.5499985,25.8374985 25.84,26.1425 C26.1300015,26.4475015 26.477498,26.6849991 26.8825,26.855 C27.287502,27.0250008 27.7399975,27.11 28.24,27.11 C28.7500026,27.11 29.1899982,27.0525006 29.56,26.9375 C29.9300019,26.8224994 30.2249989,26.7050006 30.445,26.585 L30.445,24.86 L28.54,24.86 L28.54,22.7 L32.695,22.7 L32.695,28.25 Z M34.195,26.84 L39.58,20.45 L34.39,20.45 L34.39,18.38 L42.415,18.38 L42.415,20.45 L37.135,26.84 L42.595,26.84 L42.595,29 L34.195,29 L34.195,26.84 Z M44.17,18.38 L46.51,18.38 L46.51,29 L44.17,29 L44.17,18.38 Z M48.64,18.38 L52.585,18.38 C53.1350027,18.38 53.6549975,18.4299995 54.145,18.53 C54.6350024,18.6300005 55.0624982,18.8024988 55.4275,19.0475 C55.7925018,19.2925012 56.0824989,19.6224979 56.2975,20.0375 C56.5125011,20.4525021 56.62,20.9749969 56.62,21.605 C56.62,22.2250031 56.520001,22.7449979 56.32,23.165 C56.119999,23.5850021 55.8450017,23.9199987 55.495,24.17 C55.1449983,24.4200012 54.7300024,24.5974995 54.25,24.7025 C53.7699976,24.8075005 53.2500028,24.86 52.69,24.86 L50.98,24.86 L50.98,29 L48.64,29 L48.64,18.38 Z M50.98,22.88 L52.54,22.88 C52.750001,22.88 52.952499,22.8600002 53.1475,22.82 C53.342501,22.7799998 53.5174992,22.7125005 53.6725,22.6175 C53.8275008,22.5224995 53.9524995,22.3925008 54.0475,22.2275 C54.1425005,22.0624992 54.19,21.8550013 54.19,21.605 C54.19,21.3349986 54.1275006,21.1175008 54.0025,20.9525 C53.8774994,20.7874992 53.717501,20.6600004 53.5225,20.57 C53.327499,20.4799995 53.1100012,20.4225001 52.87,20.3975 C52.6299988,20.3724999 52.4000011,20.36 52.18,20.36 L50.98,20.36 L50.98,22.88 Z" id="GZIP" fill="#613B81"></path>
                </g>
            </g>
        </g>
    </g>
</svg>