<?xml version="1.0" encoding="UTF-8"?>
<svg width="81px" height="93px" viewBox="0 0 81 93" version="1.1" xmlns="http://www.w3.org/2000/svg" xmlns:xlink="http://www.w3.org/1999/xlink">
    <!-- Generator: Sketch 49.3 (51167) - http://www.bohemiancoding.com/sketch -->
    <title>js</title>
    <desc>Created with Sketch.</desc>
    <defs></defs>
    <g id="Page-1" stroke="none" stroke-width="1" fill="none" fill-rule="evenodd">
        <g id="png" transform="translate(-678.000000, -444.000000)">
            <g id="files" transform="translate(43.000000, 230.000000)">
                <g id="js" transform="translate(635.000000, 214.000000)">
                    <path d="M13,0 L65.7339131,0 L81,18.640625 L81,90 C81,91.6568542 79.6568542,93 78,93 L13,93 C11.3431458,93 10,91.6568542 10,90 L10,3 C10,1.34314575 11.3431458,3.04359188e-16 13,0 Z" id="Rectangle-2" fill="#E6F2FF"></path>
                    <path d="M66.1679688,0.083984375 L66.1679688,15.6293945 C66.1679688,17.2862488 67.5111145,18.6293945 69.1679688,18.6293945 L81.0048828,18.6293945 L66.1679688,0.083984375 Z" id="Rectangle-2-Copy" fill="#AEC3DA"></path>
                    <rect id="Rectangle-3" fill="#F7DF1E" x="0" y="53" width="66" height="32" rx="3"></rect>
                    <path d="M30.76,69.26 C30.76,69.9133366 30.7033339,70.5466636 30.59,71.16 C30.4766661,71.7733364 30.2600016,72.3166643 29.94,72.79 C29.6199984,73.2633357 29.1633363,73.6433319 28.57,73.93 C27.9766637,74.2166681 27.2000048,74.36 26.24,74.36 C25.1199944,74.36 24.1733372,74.093336 23.4,73.56 C22.6266628,73.026664 22.1266678,72.193339 21.9,71.06 L24.76,70.36 C24.8000002,70.7066684 24.9566653,70.9999988 25.23,71.24 C25.5033347,71.4800012 25.8133316,71.6 26.16,71.6 C26.5200018,71.6 26.799999,71.5100009 27,71.33 C27.200001,71.1499991 27.3466662,70.926668 27.44,70.66 C27.5333338,70.393332 27.5899999,70.1033349 27.61,69.79 C27.6300001,69.4766651 27.64,69.186668 27.64,68.92 L27.64,59.84 L30.76,59.84 L30.76,69.26 Z M40.44,63.3 C40.1866654,62.9799984 39.8433355,62.7433341 39.41,62.59 C38.9766645,62.4366659 38.5666686,62.36 38.18,62.36 C37.9533322,62.36 37.7200012,62.3866664 37.48,62.44 C37.2399988,62.4933336 37.0133344,62.5766661 36.8,62.69 C36.5866656,62.8033339 36.413334,62.9533324 36.28,63.14 C36.146666,63.3266676 36.08,63.553332 36.08,63.82 C36.08,64.2466688 36.2399984,64.5733322 36.56,64.8 C36.8800016,65.0266678 37.2833309,65.2199992 37.77,65.38 C38.2566691,65.5400008 38.7799972,65.6999992 39.34,65.86 C39.9000028,66.0200008 40.4233309,66.2466652 40.91,66.54 C41.3966691,66.8333348 41.7999984,67.2266642 42.12,67.72 C42.4400016,68.2133358 42.6,68.8733292 42.6,69.7 C42.6,70.4866706 42.4533348,71.1733304 42.16,71.76 C41.8666652,72.3466696 41.4700025,72.8333314 40.97,73.22 C40.4699975,73.6066686 39.8900033,73.8933324 39.23,74.08 C38.5699967,74.2666676 37.873337,74.36 37.14,74.36 C36.2199954,74.36 35.3666706,74.2200014 34.58,73.94 C33.7933294,73.6599986 33.0600034,73.2066698 32.38,72.58 L34.6,70.14 C34.9200016,70.5666688 35.3233309,70.8966655 35.81,71.13 C36.2966691,71.3633345 36.7999974,71.48 37.32,71.48 C37.5733346,71.48 37.8299987,71.4500003 38.09,71.39 C38.3500013,71.3299997 38.5833323,71.2400006 38.79,71.12 C38.9966677,70.9999994 39.1633327,70.8466676 39.29,70.66 C39.4166673,70.4733324 39.48,70.2533346 39.48,70 C39.48,69.5733312 39.3166683,69.2366679 38.99,68.99 C38.6633317,68.7433321 38.2533358,68.5333342 37.76,68.36 C37.2666642,68.1866658 36.7333362,68.0133342 36.16,67.84 C35.5866638,67.6666658 35.0533358,67.4333348 34.56,67.14 C34.0666642,66.8466652 33.6566683,66.4600024 33.33,65.98 C33.0033317,65.4999976 32.84,64.8666706 32.84,64.08 C32.84,63.3199962 32.9899985,62.6533362 33.29,62.08 C33.5900015,61.5066638 33.9899975,61.0266686 34.49,60.64 C34.9900025,60.2533314 35.5666634,59.9633343 36.22,59.77 C36.8733366,59.5766657 37.5466632,59.48 38.24,59.48 C39.040004,59.48 39.8133296,59.5933322 40.56,59.82 C41.3066704,60.0466678 41.979997,60.426664 42.58,60.96 L40.44,63.3 Z" id="JS" fill="#1F1F1F"></path>
                </g>
            </g>
        </g>
    </g>
</svg>