<?xml version="1.0" encoding="UTF-8"?>
<svg width="81px" height="93px" viewBox="0 0 81 93" version="1.1" xmlns="http://www.w3.org/2000/svg" xmlns:xlink="http://www.w3.org/1999/xlink">
    <!-- Generator: Sketch 49.3 (51167) - http://www.bohemiancoding.com/sketch -->
    <title>json</title>
    <desc>Created with Sketch.</desc>
    <defs></defs>
    <g id="Page-1" stroke="none" stroke-width="1" fill="none" fill-rule="evenodd">
        <g id="png" transform="translate(-775.000000, -444.000000)">
            <g id="files" transform="translate(43.000000, 230.000000)">
                <g id="json" transform="translate(732.000000, 214.000000)">
                    <path d="M13,0 L65.7339131,0 L81,18.640625 L81,90 C81,91.6568542 79.6568542,93 78,93 L13,93 C11.3431458,93 10,91.6568542 10,90 L10,3 C10,1.34314575 11.3431458,3.04359188e-16 13,0 Z" id="Rectangle-2" fill="#E6F2FF"></path>
                    <path d="M66.1679688,0.083984375 L66.1679688,15.6293945 C66.1679688,17.2862488 67.5111145,18.6293945 69.1679688,18.6293945 L81.0048828,18.6293945 L66.1679688,0.083984375 Z" id="Rectangle-2-Copy" fill="#AEC3DA"></path>
                    <rect id="Rectangle-3" fill="#162448" x="0" y="53" width="66" height="32" rx="3"></rect>
                    <path d="M14.052,75.652 L12.267,75.652 C11.9609985,75.652 11.6748347,75.6066671 11.4085,75.516 C11.1421653,75.4253329 10.9098343,75.278001 10.7115,75.074 C10.5131657,74.869999 10.3573339,74.6121682 10.244,74.3005 C10.1306661,73.9888318 10.074,73.6120022 10.074,73.17 L10.074,70.246 C10.074,69.985332 9.99750076,69.7756675 9.8445,69.617 C9.69149924,69.4583325 9.51300102,69.3393337 9.309,69.26 C9.10499898,69.1806663 8.90100102,69.1296668 8.697,69.107 C8.49299898,69.0843332 8.34000051,69.073 8.238,69.073 L8.238,67.135 C8.34000051,67.135 8.49299898,67.1236668 8.697,67.101 C8.90100102,67.0783332 9.10499898,67.0273337 9.309,66.948 C9.51300102,66.8686663 9.69149924,66.7496675 9.8445,66.591 C9.99750076,66.4323325 10.074,66.222668 10.074,65.962 L10.074,63.021 C10.074,62.5789978 10.1278328,62.2021682 10.2355,61.8905 C10.3431672,61.5788318 10.4961657,61.3238343 10.6945,61.1255 C10.8928343,60.9271657 11.1251653,60.7826671 11.3915,60.692 C11.6578347,60.6013329 11.9496651,60.556 12.267,60.556 L14.052,60.556 L14.052,62.494 L13.219,62.494 C12.958332,62.494 12.7543341,62.5279997 12.607,62.596 C12.4596659,62.6640003 12.349167,62.7518328 12.2755,62.8595 C12.201833,62.9671672 12.1565001,63.086166 12.1395,63.2165 C12.1224999,63.346834 12.114,63.4686661 12.114,63.582 L12.114,66.319 C12.114,66.7156686 12.0573339,67.0273322 11.944,67.254 C11.8306661,67.4806678 11.6918342,67.6534994 11.5275,67.7725 C11.3631658,67.8915006 11.1818343,67.9708331 10.9835,68.0105 C10.7851657,68.0501669 10.5953342,68.0756666 10.414,68.087 L10.414,68.121 C10.5953342,68.1323334 10.7851657,68.1549998 10.9835,68.189 C11.1818343,68.2230002 11.3631658,68.2994994 11.5275,68.4185 C11.6918342,68.5375006 11.8306661,68.7103322 11.944,68.937 C12.0573339,69.1636678 12.114,69.4753314 12.114,69.872 L12.114,72.626 C12.114,72.7393339 12.1224999,72.861166 12.1395,72.9915 C12.1565001,73.121834 12.201833,73.2408328 12.2755,73.3485 C12.349167,73.4561672 12.4596659,73.5439997 12.607,73.612 C12.7543341,73.6800003 12.958332,73.714 13.219,73.714 L14.052,73.714 L14.052,75.652 Z M14.528,60.556 L16.364,60.556 C16.6473347,60.556 16.919332,60.6013329 17.18,60.692 C17.440668,60.7826671 17.6701657,60.929999 17.8685,61.134 C18.0668343,61.338001 18.2226661,61.5958318 18.336,61.9075 C18.4493339,62.2191682 18.506,62.5959978 18.506,63.038 L18.506,65.962 C18.506,66.222668 18.5796659,66.4323325 18.727,66.591 C18.8743341,66.7496675 19.0471657,66.8686663 19.2455,66.948 C19.4438343,67.0273337 19.644999,67.0783332 19.849,67.101 C20.053001,67.1236668 20.2173327,67.135 20.342,67.135 L20.342,69.073 C20.2173327,69.073 20.053001,69.0843332 19.849,69.107 C19.644999,69.1296668 19.4438343,69.1806663 19.2455,69.26 C19.0471657,69.3393337 18.8743341,69.4583325 18.727,69.617 C18.5796659,69.7756675 18.506,69.985332 18.506,70.246 L18.506,73.187 C18.506,73.6290022 18.4493339,74.0058318 18.336,74.3175 C18.2226661,74.6291682 18.0696676,74.8841657 17.877,75.0825 C17.6843324,75.2808343 17.4548347,75.4253329 17.1885,75.516 C16.9221653,75.6066671 16.6303349,75.652 16.313,75.652 L14.528,75.652 L14.528,73.714 L15.361,73.714 C15.621668,73.714 15.8256659,73.6800003 15.973,73.612 C16.1203341,73.5439997 16.230833,73.4561672 16.3045,73.3485 C16.378167,73.2408328 16.4234999,73.121834 16.4405,72.9915 C16.4575001,72.861166 16.466,72.7393339 16.466,72.626 L16.466,69.889 C16.466,69.4923314 16.5226661,69.1806678 16.636,68.954 C16.7493339,68.7273322 16.8881658,68.5545006 17.0525,68.4355 C17.2168342,68.3164994 17.3981657,68.2400002 17.5965,68.206 C17.7948343,68.1719998 17.9846658,68.1436668 18.166,68.121 L18.166,68.087 C17.9846658,68.0756666 17.7948343,68.0530002 17.5965,68.019 C17.3981657,67.9849998 17.2168342,67.9085006 17.0525,67.7895 C16.8881658,67.6704994 16.7493339,67.4976678 16.636,67.271 C16.5226661,67.0443322 16.466,66.7326686 16.466,66.336 L16.466,63.582 C16.466,63.4686661 16.4575001,63.346834 16.4405,63.2165 C16.4234999,63.086166 16.378167,62.9671672 16.3045,62.8595 C16.230833,62.7518328 16.1203341,62.6640003 15.973,62.596 C15.8256659,62.5279997 15.621668,62.494 15.361,62.494 L14.528,62.494 L14.528,60.556 Z M29.097,73.612 C29.097,74.1446693 29.0460005,74.6234979 28.944,75.0485 C28.8419995,75.4735021 28.6720012,75.8361652 28.434,76.1365 C28.1959988,76.4368348 27.881502,76.6691658 27.4905,76.8335 C27.099498,76.9978342 26.6150029,77.08 26.037,77.08 C25.8443324,77.08 25.646001,77.0715001 25.442,77.0545 C25.237999,77.0374999 25.0396676,77.0006669 24.847,76.944 L24.983,74.683 C25.187001,74.7850005 25.4079988,74.836 25.646,74.836 C25.8613344,74.836 26.0313327,74.7793339 26.156,74.666 C26.2806673,74.5526661 26.3713331,74.4110008 26.428,74.241 C26.484667,74.0709992 26.5186666,73.8896676 26.53,73.697 C26.5413334,73.5043324 26.547,73.3286675 26.547,73.17 L26.547,64.738 L29.097,64.738 L29.097,73.612 Z M26.343,62.137 C26.343,61.728998 26.4874986,61.3805014 26.7765,61.0915 C27.0655014,60.8024986 27.413998,60.658 27.822,60.658 C28.230002,60.658 28.5784986,60.8024986 28.8675,61.0915 C29.1565014,61.3805014 29.301,61.728998 29.301,62.137 C29.301,62.545002 29.1565014,62.8934986 28.8675,63.1825 C28.5784986,63.4715014 28.230002,63.616 27.822,63.616 C27.413998,63.616 27.0655014,63.4715014 26.7765,63.1825 C26.4874986,62.8934986 26.343,62.545002 26.343,62.137 Z M35.608,67.169 C35.2339981,66.704331 34.7410031,66.472 34.129,66.472 C33.9136656,66.472 33.704001,66.5229995 33.5,66.625 C33.295999,66.7270005 33.194,66.9026654 33.194,67.152 C33.194,67.356001 33.2988323,67.5061662 33.5085,67.6025 C33.7181677,67.6988338 33.9844984,67.783833 34.3075,67.8575 C34.6305016,67.931167 34.9761648,68.0104996 35.3445,68.0955 C35.7128352,68.1805004 36.0584984,68.3136658 36.3815,68.495 C36.7045016,68.6763342 36.9708323,68.9228318 37.1805,69.2345 C37.3901677,69.5461682 37.495,69.9626641 37.495,70.484 C37.495,71.0166693 37.3788345,71.4558316 37.1465,71.8015 C36.9141655,72.1471684 36.6166685,72.4248323 36.254,72.6345 C35.8913315,72.8441677 35.4833356,72.9914996 35.03,73.0765 C34.5766644,73.1615004 34.1290022,73.204 33.687,73.204 C33.1089971,73.204 32.5253363,73.1218342 31.936,72.9575 C31.3466637,72.7931658 30.848002,72.5013354 30.44,72.082 L31.987,70.365 C32.2250012,70.6596681 32.4884986,70.8834992 32.7775,71.0365 C33.0665014,71.1895008 33.4036647,71.266 33.789,71.266 C34.0836681,71.266 34.3499988,71.2235004 34.588,71.1385 C34.8260012,71.0534996 34.945,70.8976678 34.945,70.671 C34.945,70.4556656 34.8401677,70.2941672 34.6305,70.1865 C34.4208323,70.0788328 34.1545016,69.988167 33.8315,69.9145 C33.5084984,69.840833 33.1628352,69.7615004 32.7945,69.6765 C32.4261648,69.5914996 32.0805016,69.4640009 31.7575,69.294 C31.4344984,69.1239992 31.1681677,68.8831682 30.9585,68.5715 C30.7488323,68.2598318 30.644,67.8433359 30.644,67.322 C30.644,66.8346642 30.7431657,66.4153351 30.9415,66.064 C31.1398343,65.7126649 31.4004984,65.4236678 31.7235,65.197 C32.0465016,64.9703322 32.4176646,64.8031672 32.837,64.6955 C33.2563354,64.5878328 33.6813312,64.534 34.112,64.534 C34.6560027,64.534 35.2056639,64.6133325 35.761,64.772 C36.3163361,64.9306675 36.7866647,65.213998 37.172,65.622 L35.608,67.169 Z M38.498,68.869 C38.498,68.2116634 38.6169988,67.6166693 38.855,67.084 C39.0930012,66.5513307 39.4188313,66.0951686 39.8325,65.7155 C40.2461687,65.3358314 40.7334972,65.044001 41.2945,64.84 C41.8555028,64.635999 42.4533302,64.534 43.088,64.534 C43.7226698,64.534 44.3204972,64.635999 44.8815,64.84 C45.4425028,65.044001 45.9298313,65.3358314 46.3435,65.7155 C46.7571687,66.0951686 47.0829988,66.5513307 47.321,67.084 C47.5590012,67.6166693 47.678,68.2116634 47.678,68.869 C47.678,69.5263366 47.5590012,70.1213307 47.321,70.654 C47.0829988,71.1866693 46.7571687,71.6428314 46.3435,72.0225 C45.9298313,72.4021686 45.4425028,72.693999 44.8815,72.898 C44.3204972,73.102001 43.7226698,73.204 43.088,73.204 C42.4533302,73.204 41.8555028,73.102001 41.2945,72.898 C40.7334972,72.693999 40.2461687,72.4021686 39.8325,72.0225 C39.4188313,71.6428314 39.0930012,71.1866693 38.855,70.654 C38.6169988,70.1213307 38.498,69.5263366 38.498,68.869 Z M41.048,68.869 C41.048,69.4923364 41.2264982,69.9966647 41.5835,70.382 C41.9405018,70.7673353 42.4419968,70.96 43.088,70.96 C43.7340032,70.96 44.2354982,70.7673353 44.5925,70.382 C44.9495018,69.9966647 45.128,69.4923364 45.128,68.869 C45.128,68.2456636 44.9495018,67.7413353 44.5925,67.356 C44.2354982,66.9706647 43.7340032,66.778 43.088,66.778 C42.4419968,66.778 41.9405018,66.9706647 41.5835,67.356 C41.2264982,67.7413353 41.048,68.2456636 41.048,68.869 Z M49.174,64.738 L51.622,64.738 L51.622,65.86 L51.656,65.86 C51.7353337,65.7013325 51.8486659,65.5426675 51.996,65.384 C52.1433341,65.2253325 52.318999,65.0836673 52.523,64.959 C52.727001,64.8343327 52.959332,64.7323337 53.22,64.653 C53.480668,64.5736663 53.7639985,64.534 54.07,64.534 C54.7160032,64.534 55.2373314,64.6331657 55.634,64.8315 C56.0306687,65.0298343 56.3394989,65.3046649 56.5605,65.656 C56.7815011,66.0073351 56.9316663,66.4209976 57.011,66.897 C57.0903337,67.3730024 57.13,67.8886639 57.13,68.444 L57.13,73 L54.58,73 L54.58,68.954 C54.58,68.7159988 54.5715001,68.4695013 54.5545,68.2145 C54.5374999,67.9594987 54.4865004,67.7243344 54.4015,67.509 C54.3164996,67.2936656 54.1861675,67.1180007 54.0105,66.982 C53.8348325,66.8459993 53.5826683,66.778 53.254,66.778 C52.9253317,66.778 52.659001,66.8374994 52.455,66.9565 C52.250999,67.0755006 52.0951672,67.2341657 51.9875,67.4325 C51.8798328,67.6308343 51.8090002,67.8546654 51.775,68.104 C51.7409998,68.3533346 51.724,68.6139986 51.724,68.886 L51.724,73 L49.174,73 L49.174,64.738 Z" id="{}-json" fill="#FFFFFF"></path>
                </g>
            </g>
        </g>
    </g>
</svg>