<?xml version="1.0" encoding="UTF-8"?>
<svg width="81px" height="93px" viewBox="0 0 81 93" version="1.1" xmlns="http://www.w3.org/2000/svg" xmlns:xlink="http://www.w3.org/1999/xlink">
    <!-- Generator: Sketch 49.3 (51167) - http://www.bohemiancoding.com/sketch -->
    <title>markdown</title>
    <desc>Created with Sketch.</desc>
    <defs></defs>
    <g id="Page-1" stroke="none" stroke-width="1" fill="none" fill-rule="evenodd">
        <g id="png" transform="translate(-378.000000, -444.000000)">
            <g id="files" transform="translate(43.000000, 230.000000)">
                <g id="markdown" transform="translate(335.000000, 214.000000)">
                    <path d="M13,0 L65.7339131,0 L81,18.640625 L81,90 C81,91.6568542 79.6568542,93 78,93 L13,93 C11.3431458,93 10,91.6568542 10,90 L10,3 C10,1.34314575 11.3431458,3.04359188e-16 13,0 Z" id="Rectangle-2" fill="#E6F2FF"></path>
                    <path d="M66.1679688,0.083984375 L66.1679688,15.6293945 C66.1679688,17.2862488 67.5111145,18.6293945 69.1679688,18.6293945 L81.0048828,18.6293945 L66.1679688,0.083984375 Z" id="Rectangle-2-Copy" fill="#AEC3DA"></path>
                    <rect id="Rectangle-3" fill="#CFBBE4" x="0" y="53" width="66" height="32" rx="3"></rect>
                    <path d="M17.44,60.84 L22.16,60.84 L25.42,70.08 L25.46,70.08 L28.74,60.84 L33.44,60.84 L33.44,75 L30.32,75 L30.32,64.14 L30.28,64.14 L26.56,75 L24.18,75 L20.6,64.14 L20.56,64.14 L20.56,75 L17.44,75 L17.44,60.84 Z M36.32,60.84 L41,60.84 C42.133339,60.84 43.2099949,60.9666654 44.23,61.22 C45.2500051,61.4733346 46.1399962,61.8833305 46.9,62.45 C47.6600038,63.0166695 48.2633311,63.7533288 48.71,64.66 C49.1566689,65.5666712 49.38,66.6666602 49.38,67.96 C49.38,69.1066724 49.1633355,70.1166623 48.73,70.99 C48.2966645,71.8633377 47.713337,72.5966637 46.98,73.19 C46.246663,73.7833363 45.4000048,74.2333318 44.44,74.54 C43.4799952,74.8466682 42.4733386,75 41.42,75 L36.32,75 L36.32,60.84 Z M39.44,72.12 L41.06,72.12 C41.7800036,72.12 42.4499969,72.0466674 43.07,71.9 C43.6900031,71.7533326 44.2266644,71.5100017 44.68,71.17 C45.1333356,70.8299983 45.4899987,70.3833361 45.75,69.83 C46.0100013,69.2766639 46.14,68.600004 46.14,67.8 C46.14,67.1066632 46.0100013,66.5033359 45.75,65.99 C45.4899987,65.4766641 45.1400022,65.053335 44.7,64.72 C44.2599978,64.386665 43.7433363,64.1366675 43.15,63.97 C42.5566637,63.8033325 41.9333366,63.72 41.28,63.72 L39.44,63.72 L39.44,72.12 Z" id="MD" fill="#585858"></path>
                </g>
            </g>
        </g>
    </g>
</svg>