<?xml version="1.0" encoding="UTF-8"?>
<svg width="81px" height="93px" viewBox="0 0 81 93" version="1.1" xmlns="http://www.w3.org/2000/svg" xmlns:xlink="http://www.w3.org/1999/xlink">
    <!-- Generator: Sketch 49.3 (51167) - http://www.bohemiancoding.com/sketch -->
    <title>pres</title>
    <desc>Created with Sketch.</desc>
    <defs></defs>
    <g id="Page-1" stroke="none" stroke-width="1" fill="none" fill-rule="evenodd">
        <g id="png" transform="translate(-378.000000, -766.000000)">
            <g id="files" transform="translate(43.000000, 230.000000)">
                <g id="pres" transform="translate(335.000000, 536.000000)">
                    <path d="M13,0 L65.7339131,0 L81,18.640625 L81,90 C81,91.6568542 79.6568542,93 78,93 L13,93 C11.3431458,93 10,91.6568542 10,90 L10,3 C10,1.34314575 11.3431458,3.04359188e-16 13,0 Z" id="Rectangle-2" fill="#E6F2FF"></path>
                    <path d="M66.1679688,0.083984375 L66.1679688,15.6293945 C66.1679688,17.2862488 67.5111145,18.6293945 69.1679688,18.6293945 L81.0048828,18.6293945 L66.1679688,0.083984375 Z" id="Rectangle-2-Copy" fill="#AEC3DA"></path>
                    <rect id="Rectangle-3" fill="#F5A623" x="0" y="53" width="66" height="32" rx="3"></rect>
                    <path d="M7.584,59.424 L13.37,59.424 C14.1766707,59.424 14.9393297,59.4973326 15.658,59.644 C16.3766703,59.7906674 17.003664,60.0436649 17.539,60.403 C18.074336,60.7623351 18.4996651,61.2463303 18.815,61.855 C19.1303349,62.4636697 19.288,63.2299954 19.288,64.154 C19.288,65.0633379 19.1413348,65.8259969 18.848,66.442 C18.5546652,67.0580031 18.1513359,67.5493315 17.638,67.916 C17.1246641,68.2826685 16.5160035,68.5429992 15.812,68.697 C15.1079965,68.8510008 14.3453374,68.928 13.524,68.928 L11.016,68.928 L11.016,75 L7.584,75 L7.584,59.424 Z M11.016,66.024 L13.304,66.024 C13.6120015,66.024 13.9089986,65.994667 14.195,65.936 C14.4810014,65.877333 14.7376655,65.778334 14.965,65.639 C15.1923345,65.499666 15.375666,65.3090012 15.515,65.067 C15.654334,64.8249988 15.724,64.5206685 15.724,64.154 C15.724,63.757998 15.6323342,63.4390012 15.449,63.197 C15.2656658,62.9549988 15.0310014,62.7680007 14.745,62.636 C14.4589986,62.5039993 14.1400018,62.4196668 13.788,62.383 C13.4359982,62.3463332 13.0986683,62.328 12.776,62.328 L11.016,62.328 L11.016,66.024 Z M21.444,59.424 L27.472,59.424 C28.264004,59.424 29.0156631,59.5009992 29.727,59.655 C30.4383369,59.8090008 31.061664,60.0656649 31.597,60.425 C32.132336,60.7843351 32.5576651,61.2683303 32.873,61.877 C33.1883349,62.4856697 33.346,63.2446621 33.346,64.154 C33.346,65.2540055 33.0600029,66.1889962 32.488,66.959 C31.9159971,67.7290038 31.0800055,68.2166656 29.98,68.422 L33.94,75 L29.826,75 L26.57,68.774 L24.876,68.774 L24.876,75 L21.444,75 L21.444,59.424 Z M24.876,65.87 L26.9,65.87 C27.2080015,65.87 27.5343316,65.8590001 27.879,65.837 C28.2236684,65.8149999 28.5353319,65.7490006 28.814,65.639 C29.0926681,65.5289995 29.3236657,65.3566678 29.507,65.122 C29.6903342,64.8873322 29.782,64.5573355 29.782,64.132 C29.782,63.735998 29.7013341,63.4206678 29.54,63.186 C29.3786659,62.9513322 29.1733346,62.7716673 28.924,62.647 C28.6746654,62.5223327 28.3886683,62.4380002 28.066,62.394 C27.7433317,62.3499998 27.4280015,62.328 27.12,62.328 L24.876,62.328 L24.876,65.87 Z M35.832,59.424 L46.414,59.424 L46.414,62.592 L39.264,62.592 L39.264,65.496 L46.018,65.496 L46.018,68.664 L39.264,68.664 L39.264,71.832 L46.81,71.832 L46.81,75 L35.832,75 L35.832,59.424 Z M57.26,63.23 C56.9813319,62.8779982 56.603669,62.6176675 56.127,62.449 C55.6503309,62.2803325 55.1993355,62.196 54.774,62.196 C54.5246654,62.196 54.2680013,62.225333 54.004,62.284 C53.7399987,62.342667 53.4906678,62.4343327 53.256,62.559 C53.0213322,62.6836673 52.8306674,62.8486656 52.684,63.054 C52.5373326,63.2593344 52.464,63.5086652 52.464,63.802 C52.464,64.2713357 52.6399982,64.6306654 52.992,64.88 C53.3440018,65.1293346 53.787664,65.3419991 54.323,65.518 C54.858336,65.6940009 55.4339969,65.8699991 56.05,66.046 C56.6660031,66.2220009 57.241664,66.4713317 57.777,66.794 C58.312336,67.1166683 58.7559982,67.5493306 59.108,68.092 C59.4600018,68.6346694 59.636,69.3606621 59.636,70.27 C59.636,71.1353377 59.4746683,71.8906634 59.152,72.536 C58.8293317,73.1813366 58.3930027,73.7166645 57.843,74.142 C57.2929972,74.5673355 56.6550036,74.8826656 55.929,75.088 C55.2029964,75.2933344 54.4366707,75.396 53.63,75.396 C52.6179949,75.396 51.6793377,75.2420015 50.814,74.934 C49.9486623,74.6259985 49.1420037,74.1273368 48.394,73.438 L50.836,70.754 C51.1880018,71.2233357 51.631664,71.586332 52.167,71.843 C52.702336,72.0996679 53.2559971,72.228 53.828,72.228 C54.1066681,72.228 54.3889986,72.1950003 54.675,72.129 C54.9610014,72.0629997 55.2176655,71.9640007 55.445,71.832 C55.6723345,71.6999993 55.855666,71.5313344 55.995,71.326 C56.134334,71.1206656 56.204,70.8786681 56.204,70.6 C56.204,70.1306643 56.0243351,69.7603347 55.665,69.489 C55.3056649,69.2176653 54.8546694,68.9866676 54.312,68.796 C53.7693306,68.6053324 53.1826698,68.4146676 52.552,68.224 C51.9213302,68.0333324 51.3346694,67.7766683 50.792,67.454 C50.2493306,67.1313317 49.7983351,66.7060026 49.439,66.178 C49.0796649,65.6499974 48.9,64.9533377 48.9,64.088 C48.9,63.2519958 49.0649983,62.5186698 49.395,61.888 C49.7250016,61.2573302 50.1649972,60.7293355 50.715,60.304 C51.2650027,59.8786645 51.8993297,59.5596677 52.618,59.347 C53.3366703,59.1343323 54.0773295,59.028 54.84,59.028 C55.7200044,59.028 56.5706626,59.1526654 57.392,59.402 C58.2133374,59.6513346 58.9539967,60.0693304 59.614,60.656 L57.26,63.23 Z" id="PRES" fill="#FFFFFF"></path>
                </g>
            </g>
        </g>
    </g>
</svg>