<?xml version="1.0" encoding="UTF-8"?>
<svg width="81px" height="93px" viewBox="0 0 81 93" version="1.1" xmlns="http://www.w3.org/2000/svg" xmlns:xlink="http://www.w3.org/1999/xlink">
    <!-- Generator: Sketch 49.3 (51167) - http://www.bohemiancoding.com/sketch -->
    <title>rb</title>
    <desc>Created with Sketch.</desc>
    <defs></defs>
    <g id="Page-1" stroke="none" stroke-width="1" fill="none" fill-rule="evenodd">
        <g id="png" transform="translate(-478.000000, -337.000000)">
            <g id="files" transform="translate(43.000000, 230.000000)">
                <g id="rb" transform="translate(435.000000, 107.000000)">
                    <path d="M13,0 L65.7339131,0 L81,18.640625 L81,90 C81,91.6568542 79.6568542,93 78,93 L13,93 C11.3431458,93 10,91.6568542 10,90 L10,3 C10,1.34314575 11.3431458,3.04359188e-16 13,0 Z" id="Rectangle-2" fill="#E6F2FF"></path>
                    <path d="M66.1679688,0.083984375 L66.1679688,15.6293945 C66.1679688,17.2862488 67.5111145,18.6293945 69.1679688,18.6293945 L81.0048828,18.6293945 L66.1679688,0.083984375 Z" id="Rectangle-2-Copy" fill="#AEC3DA"></path>
                    <rect id="Rectangle-3" fill="#D0021B" x="0" y="53" width="66" height="32" rx="3"></rect>
                    <path d="M23.06,65.28 L26.06,65.28 L26.06,66.84 L26.1,66.84 C26.4200016,66.239997 26.7999978,65.7900015 27.24,65.49 C27.6800022,65.1899985 28.23333,65.04 28.9,65.04 C29.0733342,65.04 29.2466658,65.0466666 29.42,65.06 C29.5933342,65.0733334 29.7533326,65.0999998 29.9,65.14 L29.9,67.88 C29.6866656,67.813333 29.4766677,67.7633335 29.27,67.73 C29.0633323,67.6966665 28.8466678,67.68 28.62,67.68 C28.0466638,67.68 27.593335,67.7599992 27.26,67.92 C26.926665,68.0800008 26.6700009,68.3033319 26.49,68.59 C26.3099991,68.8766681 26.1933336,69.219998 26.14,69.62 C26.0866664,70.020002 26.06,70.4599976 26.06,70.94 L26.06,75 L23.06,75 L23.06,65.28 Z M31.48,59.88 L34.48,59.88 L34.48,66.32 L34.52,66.32 C34.8666684,65.853331 35.3099973,65.5233343 35.85,65.33 C36.3900027,65.1366657 36.9733302,65.04 37.6,65.04 C38.2933368,65.04 38.9133306,65.1833319 39.46,65.47 C40.0066694,65.7566681 40.4699981,66.1399976 40.85,66.62 C41.2300019,67.1000024 41.5233323,67.6499969 41.73,68.27 C41.9366677,68.8900031 42.04,69.5399966 42.04,70.22 C42.04,70.953337 41.9266678,71.6266636 41.7,72.24 C41.4733322,72.8533364 41.1500021,73.3833311 40.73,73.83 C40.3099979,74.2766689 39.8066696,74.6233321 39.22,74.87 C38.6333304,75.1166679 37.9800036,75.24 37.26,75.24 C36.9133316,75.24 36.5866682,75.1933338 36.28,75.1 C35.9733318,75.0066662 35.6900013,74.8866674 35.43,74.74 C35.1699987,74.5933326 34.9433343,74.4300009 34.75,74.25 C34.5566657,74.0699991 34.4000006,73.8933342 34.28,73.72 L34.24,73.72 L34.24,75 L31.48,75 L31.48,59.88 Z M34.24,70.14 C34.24,70.873337 34.4499979,71.4666644 34.87,71.92 C35.2900021,72.3733356 35.8799962,72.6 36.64,72.6 C37.4000038,72.6 37.9899979,72.3733356 38.41,71.92 C38.8300021,71.4666644 39.04,70.873337 39.04,70.14 C39.04,69.406663 38.8300021,68.8133356 38.41,68.36 C37.9899979,67.9066644 37.4000038,67.68 36.64,67.68 C35.8799962,67.68 35.2900021,67.9066644 34.87,68.36 C34.4499979,68.8133356 34.24,69.406663 34.24,70.14 Z" fill="#FFADB7"></path>
                </g>
            </g>
        </g>
    </g>
</svg>