<?xml version="1.0" encoding="UTF-8"?>
<svg width="81px" height="93px" viewBox="0 0 81 93" version="1.1" xmlns="http://www.w3.org/2000/svg" xmlns:xlink="http://www.w3.org/1999/xlink">
    <!-- Generator: Sketch 49.3 (51167) - http://www.bohemiancoding.com/sketch -->
    <title>readme</title>
    <desc>Created with Sketch.</desc>
    <defs></defs>
    <g id="Page-1" stroke="none" stroke-width="1" fill="none" fill-rule="evenodd">
        <g id="png" transform="translate(-378.000000, -873.000000)">
            <g id="files" transform="translate(43.000000, 230.000000)">
                <g id="readme" transform="translate(335.000000, 643.000000)">
                    <path d="M13,0 L65.7339131,0 L81,18.640625 L81,90 C81,91.6568542 79.6568542,93 78,93 L13,93 C11.3431458,93 10,91.6568542 10,90 L10,3 C10,1.34314575 11.3431458,3.04359188e-16 13,0 Z" id="Rectangle-2" fill="#E6F2FF"></path>
                    <path d="M66.1679688,0.083984375 L66.1679688,15.6293945 C66.1679688,17.2862488 67.5111145,18.6293945 69.1679688,18.6293945 L81.0048828,18.6293945 L66.1679688,0.083984375 Z" id="Rectangle-2-Copy" fill="#AEC3DA"></path>
                    <rect id="Rectangle-3" fill="#D4D4D4" x="0" y="53" width="71" height="32" rx="3"></rect>
                    <path d="M1.008,68.088 L4.844,68.088 C5.34800252,68.088 5.82633107,68.1369995 6.279,68.235 C6.73166893,68.3330005 7.12833163,68.4963322 7.469,68.725 C7.80966837,68.9536678 8.08033233,69.2616647 8.281,69.649 C8.48166767,70.0363353 8.582,70.5193304 8.582,71.098 C8.582,71.7980035 8.40000182,72.3929976 8.036,72.883 C7.67199818,73.3730025 7.1400035,73.6833327 6.44,73.814 L8.96,78 L6.342,78 L4.27,74.038 L3.192,74.038 L3.192,78 L1.008,78 L1.008,68.088 Z M3.192,72.19 L4.48,72.19 C4.67600098,72.19 4.88366557,72.1830001 5.103,72.169 C5.32233443,72.1549999 5.52066578,72.1130003 5.698,72.043 C5.87533422,71.9729996 6.02233275,71.8633341 6.139,71.714 C6.25566725,71.5646659 6.314,71.354668 6.314,71.084 C6.314,70.8319987 6.26266718,70.6313341 6.16,70.482 C6.05733282,70.3326659 5.92666746,70.2183337 5.768,70.139 C5.60933254,70.0596663 5.42733436,70.0060001 5.222,69.978 C5.01666564,69.9499999 4.81600098,69.936 4.62,69.936 L3.192,69.936 L3.192,72.19 Z M10.164,68.088 L16.898,68.088 L16.898,70.104 L12.348,70.104 L12.348,71.952 L16.646,71.952 L16.646,73.968 L12.348,73.968 L12.348,75.984 L17.15,75.984 L17.15,78 L10.164,78 L10.164,68.088 Z M22.162,68.088 L23.968,68.088 L28.28,78 L25.816,78 L24.962,75.9 L21.112,75.9 L20.286,78 L17.878,78 L22.162,68.088 Z M23.002,70.972 L21.798,74.052 L24.22,74.052 L23.002,70.972 Z M29.274,68.088 L32.55,68.088 C33.3433373,68.088 34.0969964,68.1766658 34.811,68.354 C35.5250036,68.5313342 36.1479973,68.8183313 36.68,69.215 C37.2120027,69.6116686 37.6343318,70.1273302 37.947,70.762 C38.2596682,71.3966698 38.416,72.1666621 38.416,73.072 C38.416,73.8746707 38.2643349,74.5816636 37.961,75.193 C37.6576652,75.8043364 37.2493359,76.3176646 36.736,76.733 C36.2226641,77.1483354 35.6300034,77.4633323 34.958,77.678 C34.2859966,77.8926677 33.581337,78 32.844,78 L29.274,78 L29.274,68.088 Z M31.458,75.984 L32.592,75.984 C33.0960025,75.984 33.5649978,75.9326672 33.999,75.83 C34.4330022,75.7273328 34.8086651,75.5570012 35.126,75.319 C35.4433349,75.0809988 35.6929991,74.7683353 35.875,74.381 C36.0570009,73.9936647 36.148,73.5200028 36.148,72.96 C36.148,72.4746642 36.0570009,72.0523351 35.875,71.693 C35.6929991,71.3336649 35.4480015,71.0373345 35.14,70.804 C34.8319985,70.5706655 34.4703354,70.3956673 34.055,70.279 C33.6396646,70.1623328 33.2033356,70.104 32.746,70.104 L31.458,70.104 L31.458,75.984 Z M40.332,63.84 L45.052,63.84 L48.312,73.08 L48.352,73.08 L51.632,63.84 L56.332,63.84 L56.332,78 L53.212,78 L53.212,67.14 L53.172,67.14 L49.452,78 L47.072,78 L43.492,67.14 L43.452,67.14 L43.452,78 L40.332,78 L40.332,63.84 Z M59.332,63.84 L68.952,63.84 L68.952,66.72 L62.452,66.72 L62.452,69.36 L68.592,69.36 L68.592,72.24 L62.452,72.24 L62.452,75.12 L69.312,75.12 L69.312,78 L59.332,78 L59.332,63.84 Z" id="README" fill="#3D3D3D"></path>
                </g>
            </g>
        </g>
    </g>
</svg>