<?xml version="1.0" encoding="UTF-8"?>
<svg width="81px" height="93px" viewBox="0 0 81 93" version="1.1" xmlns="http://www.w3.org/2000/svg" xmlns:xlink="http://www.w3.org/1999/xlink">
    <!-- Generator: Sketch 49.3 (51167) - http://www.bohemiancoding.com/sketch -->
    <title>rss</title>
    <desc>Created with Sketch.</desc>
    <defs></defs>
    <g id="Page-1" stroke="none" stroke-width="1" fill="none" fill-rule="evenodd">
        <g id="png" transform="translate(-678.000000, -659.000000)">
            <g id="files" transform="translate(43.000000, 230.000000)">
                <g id="rss" transform="translate(635.000000, 429.000000)">
                    <path d="M13,0 L65.7339131,0 L81,18.640625 L81,90 C81,91.6568542 79.6568542,93 78,93 L13,93 C11.3431458,93 10,91.6568542 10,90 L10,3 C10,1.34314575 11.3431458,3.04359188e-16 13,0 Z" id="Rectangle-2" fill="#E6F2FF"></path>
                    <path d="M66.1679688,0.083984375 L66.1679688,15.6293945 C66.1679688,17.2862488 67.5111145,18.6293945 69.1679688,18.6293945 L81.0048828,18.6293945 L66.1679688,0.083984375 Z" id="Rectangle-2-Copy" fill="#AEC3DA"></path>
                    <rect id="Rectangle-3" fill="#FFA500" x="0" y="53" width="66" height="32" rx="3"></rect>
                    <path d="M14.584,59.424 L20.612,59.424 C21.404004,59.424 22.1556631,59.5009992 22.867,59.655 C23.5783369,59.8090008 24.201664,60.0656649 24.737,60.425 C25.272336,60.7843351 25.6976651,61.2683303 26.013,61.877 C26.3283349,62.4856697 26.486,63.2446621 26.486,64.154 C26.486,65.2540055 26.2000029,66.1889962 25.628,66.959 C25.0559971,67.7290038 24.2200055,68.2166656 23.12,68.422 L27.08,75 L22.966,75 L19.71,68.774 L18.016,68.774 L18.016,75 L14.584,75 L14.584,59.424 Z M18.016,65.87 L20.04,65.87 C20.3480015,65.87 20.6743316,65.8590001 21.019,65.837 C21.3636684,65.8149999 21.6753319,65.7490006 21.954,65.639 C22.2326681,65.5289995 22.4636658,65.3566678 22.647,65.122 C22.8303342,64.8873322 22.922,64.5573355 22.922,64.132 C22.922,63.735998 22.8413341,63.4206678 22.68,63.186 C22.5186659,62.9513322 22.3133346,62.7716673 22.064,62.647 C21.8146654,62.5223327 21.5286683,62.4380002 21.206,62.394 C20.8833317,62.3499998 20.5680015,62.328 20.26,62.328 L18.016,62.328 L18.016,65.87 Z M36.54,63.23 C36.2613319,62.8779982 35.883669,62.6176675 35.407,62.449 C34.9303309,62.2803325 34.4793355,62.196 34.054,62.196 C33.8046654,62.196 33.5480013,62.225333 33.284,62.284 C33.0199987,62.342667 32.7706678,62.4343327 32.536,62.559 C32.3013322,62.6836673 32.1106674,62.8486656 31.964,63.054 C31.8173326,63.2593344 31.744,63.5086652 31.744,63.802 C31.744,64.2713357 31.9199982,64.6306654 32.272,64.88 C32.6240018,65.1293346 33.067664,65.3419991 33.603,65.518 C34.138336,65.6940009 34.7139969,65.8699991 35.33,66.046 C35.9460031,66.2220009 36.521664,66.4713317 37.057,66.794 C37.592336,67.1166683 38.0359982,67.5493306 38.388,68.092 C38.7400018,68.6346694 38.916,69.3606621 38.916,70.27 C38.916,71.1353377 38.7546683,71.8906634 38.432,72.536 C38.1093317,73.1813366 37.6730028,73.7166645 37.123,74.142 C36.5729973,74.5673355 35.9350036,74.8826656 35.209,75.088 C34.4829964,75.2933344 33.7166707,75.396 32.91,75.396 C31.8979949,75.396 30.9593377,75.2420015 30.094,74.934 C29.2286623,74.6259985 28.4220037,74.1273368 27.674,73.438 L30.116,70.754 C30.4680018,71.2233357 30.911664,71.586332 31.447,71.843 C31.982336,72.0996679 32.5359971,72.228 33.108,72.228 C33.3866681,72.228 33.6689986,72.1950003 33.955,72.129 C34.2410014,72.0629997 34.4976655,71.9640007 34.725,71.832 C34.9523345,71.6999993 35.135666,71.5313344 35.275,71.326 C35.414334,71.1206656 35.484,70.8786681 35.484,70.6 C35.484,70.1306643 35.3043351,69.7603347 34.945,69.489 C34.5856649,69.2176653 34.1346694,68.9866676 33.592,68.796 C33.0493306,68.6053324 32.4626698,68.4146676 31.832,68.224 C31.2013302,68.0333324 30.6146694,67.7766683 30.072,67.454 C29.5293306,67.1313317 29.0783351,66.7060026 28.719,66.178 C28.3596649,65.6499974 28.18,64.9533377 28.18,64.088 C28.18,63.2519958 28.3449983,62.5186698 28.675,61.888 C29.0050016,61.2573302 29.4449973,60.7293355 29.995,60.304 C30.5450027,59.8786645 31.1793297,59.5596677 31.898,59.347 C32.6166703,59.1343323 33.3573295,59.028 34.12,59.028 C35.0000044,59.028 35.8506626,59.1526654 36.672,59.402 C37.4933374,59.6513346 38.2339967,60.0693304 38.894,60.656 L36.54,63.23 Z M49.168,63.23 C48.8893319,62.8779982 48.5116691,62.6176675 48.035,62.449 C47.5583309,62.2803325 47.1073355,62.196 46.682,62.196 C46.4326654,62.196 46.1760013,62.225333 45.912,62.284 C45.6479987,62.342667 45.3986678,62.4343327 45.164,62.559 C44.9293322,62.6836673 44.7386674,62.8486656 44.592,63.054 C44.4453326,63.2593344 44.372,63.5086652 44.372,63.802 C44.372,64.2713357 44.5479982,64.6306654 44.9,64.88 C45.2520018,65.1293346 45.695664,65.3419991 46.231,65.518 C46.766336,65.6940009 47.3419969,65.8699991 47.958,66.046 C48.5740031,66.2220009 49.149664,66.4713317 49.685,66.794 C50.220336,67.1166683 50.6639982,67.5493306 51.016,68.092 C51.3680018,68.6346694 51.544,69.3606621 51.544,70.27 C51.544,71.1353377 51.3826683,71.8906634 51.06,72.536 C50.7373317,73.1813366 50.3010027,73.7166645 49.751,74.142 C49.2009973,74.5673355 48.5630036,74.8826656 47.837,75.088 C47.1109964,75.2933344 46.3446707,75.396 45.538,75.396 C44.5259949,75.396 43.5873377,75.2420015 42.722,74.934 C41.8566623,74.6259985 41.0500037,74.1273368 40.302,73.438 L42.744,70.754 C43.0960018,71.2233357 43.539664,71.586332 44.075,71.843 C44.610336,72.0996679 45.1639971,72.228 45.736,72.228 C46.0146681,72.228 46.2969986,72.1950003 46.583,72.129 C46.8690014,72.0629997 47.1256655,71.9640007 47.353,71.832 C47.5803345,71.6999993 47.763666,71.5313344 47.903,71.326 C48.042334,71.1206656 48.112,70.8786681 48.112,70.6 C48.112,70.1306643 47.9323351,69.7603347 47.573,69.489 C47.2136649,69.2176653 46.7626694,68.9866676 46.22,68.796 C45.6773306,68.6053324 45.0906698,68.4146676 44.46,68.224 C43.8293302,68.0333324 43.2426694,67.7766683 42.7,67.454 C42.1573306,67.1313317 41.7063351,66.7060026 41.347,66.178 C40.9876649,65.6499974 40.808,64.9533377 40.808,64.088 C40.808,63.2519958 40.9729983,62.5186698 41.303,61.888 C41.6330016,61.2573302 42.0729973,60.7293355 42.623,60.304 C43.1730027,59.8786645 43.8073297,59.5596677 44.526,59.347 C45.2446703,59.1343323 45.9853295,59.028 46.748,59.028 C47.6280044,59.028 48.4786626,59.1526654 49.3,59.402 C50.1213374,59.6513346 50.8619967,60.0693304 51.522,60.656 L49.168,63.23 Z" id="RSS" fill="#FFFFFF"></path>
                </g>
            </g>
        </g>
    </g>
</svg>