<?xml version="1.0" encoding="UTF-8"?>
<svg width="81px" height="93px" viewBox="0 0 81 93" version="1.1" xmlns="http://www.w3.org/2000/svg" xmlns:xlink="http://www.w3.org/1999/xlink">
    <!-- Generator: Sketch 49.3 (51167) - http://www.bohemiancoding.com/sketch -->
    <title>source</title>
    <desc>Created with Sketch.</desc>
    <defs></defs>
    <g id="Page-1" stroke="none" stroke-width="1" fill="none" fill-rule="evenodd">
        <g id="png" transform="translate(-478.000000, -873.000000)">
            <g id="files" transform="translate(43.000000, 230.000000)">
                <g id="source" transform="translate(435.000000, 643.000000)">
                    <path d="M13,0 L65.7339131,0 L81,18.640625 L81,90 C81,91.6568542 79.6568542,93 78,93 L13,93 C11.3431458,93 10,91.6568542 10,90 L10,3 C10,1.34314575 11.3431458,3.04359188e-16 13,0 Z" id="Rectangle-2" fill="#E6F2FF"></path>
                    <path d="M66.1679688,0.083984375 L66.1679688,15.6293945 C66.1679688,17.2862488 67.5111145,18.6293945 69.1679688,18.6293945 L81.0048828,18.6293945 L66.1679688,0.083984375 Z" id="Rectangle-2-Copy" fill="#AEC3DA"></path>
                    <rect id="Rectangle-3" fill="#F5A623" x="0" y="53" width="71" height="32" rx="3"></rect>
                    <path d="M9.752,66.44 C9.54933232,66.1839987 9.2746684,65.9946673 8.928,65.872 C8.5813316,65.7493327 8.25333488,65.688 7.944,65.688 C7.76266576,65.688 7.57600096,65.7093331 7.384,65.752 C7.19199904,65.7946669 7.01066752,65.8613329 6.84,65.952 C6.66933248,66.0426671 6.5306672,66.1626659 6.424,66.312 C6.3173328,66.4613341 6.264,66.6426656 6.264,66.856 C6.264,67.197335 6.39199872,67.4586658 6.648,67.64 C6.90400128,67.8213342 7.22666472,67.9759994 7.616,68.104 C8.00533528,68.2320006 8.42399776,68.3599994 8.872,68.488 C9.32000224,68.6160006 9.73866472,68.7973322 10.128,69.032 C10.5173353,69.2666678 10.8399987,69.5813314 11.096,69.976 C11.3520013,70.3706686 11.48,70.8986634 11.48,71.56 C11.48,72.1893365 11.3626678,72.7386643 11.128,73.208 C10.8933322,73.6773357 10.576002,74.0666651 10.176,74.376 C9.775998,74.6853349 9.31200264,74.9146659 8.784,75.064 C8.25599736,75.2133341 7.6986696,75.288 7.112,75.288 C6.37599632,75.288 5.69333648,75.1760011 5.064,74.952 C4.43466352,74.7279989 3.84800272,74.3653358 3.304,73.864 L5.08,71.912 C5.33600128,72.253335 5.65866472,72.5173324 6.048,72.704 C6.43733528,72.8906676 6.83999792,72.984 7.256,72.984 C7.45866768,72.984 7.66399896,72.9600002 7.872,72.912 C8.08000104,72.8639998 8.26666584,72.7920005 8.432,72.696 C8.59733416,72.5999995 8.73066616,72.4773341 8.832,72.328 C8.93333384,72.1786659 8.984,72.0026677 8.984,71.8 C8.984,71.458665 8.85333464,71.1893343 8.592,70.992 C8.33066536,70.7946657 8.00266864,70.6266674 7.608,70.488 C7.21333136,70.3493326 6.78666896,70.2106674 6.328,70.072 C5.86933104,69.9333326 5.44266864,69.7466678 5.048,69.512 C4.65333136,69.2773322 4.32533464,68.9680019 4.064,68.584 C3.80266536,68.1999981 3.672,67.6933365 3.672,67.064 C3.672,66.455997 3.7919988,65.922669 4.032,65.464 C4.2720012,65.005331 4.591998,64.6213349 4.992,64.312 C5.392002,64.0026651 5.85333072,63.7706674 6.376,63.616 C6.89866928,63.4613326 7.43733056,63.384 7.992,63.384 C8.6320032,63.384 9.25066368,63.4746658 9.848,63.656 C10.4453363,63.8373342 10.9839976,64.1413312 11.464,64.568 L9.752,66.44 Z M12.728,69.336 C12.728,68.4293288 12.8799985,67.6080037 13.184,66.872 C13.4880015,66.1359963 13.9119973,65.5093359 14.456,64.992 C15.0000027,64.4746641 15.6453296,64.0773347 16.392,63.8 C17.1386704,63.5226653 17.9546622,63.384 18.84,63.384 C19.7253378,63.384 20.5413296,63.5226653 21.288,63.8 C22.0346704,64.0773347 22.6799973,64.4746641 23.224,64.992 C23.7680027,65.5093359 24.1919985,66.1359963 24.496,66.872 C24.8000015,67.6080037 24.952,68.4293288 24.952,69.336 C24.952,70.2426712 24.8000015,71.0639963 24.496,71.8 C24.1919985,72.5360037 23.7680027,73.1626641 23.224,73.68 C22.6799973,74.1973359 22.0346704,74.5946653 21.288,74.872 C20.5413296,75.1493347 19.7253378,75.288 18.84,75.288 C17.9546622,75.288 17.1386704,75.1493347 16.392,74.872 C15.6453296,74.5946653 15.0000027,74.1973359 14.456,73.68 C13.9119973,73.1626641 13.4880015,72.5360037 13.184,71.8 C12.8799985,71.0639963 12.728,70.2426712 12.728,69.336 Z M15.32,69.336 C15.32,69.869336 15.4026658,70.3573311 15.568,70.8 C15.7333342,71.2426689 15.9706651,71.626665 16.28,71.952 C16.5893349,72.277335 16.9599978,72.5306658 17.392,72.712 C17.8240022,72.8933342 18.306664,72.984 18.84,72.984 C19.373336,72.984 19.8559978,72.8933342 20.288,72.712 C20.7200022,72.5306658 21.0906651,72.277335 21.4,71.952 C21.7093349,71.626665 21.9466658,71.2426689 22.112,70.8 C22.2773342,70.3573311 22.36,69.869336 22.36,69.336 C22.36,68.8133307 22.2773342,68.3280022 22.112,67.88 C21.9466658,67.4319978 21.7093349,67.045335 21.4,66.72 C21.0906651,66.394665 20.7200022,66.1413342 20.288,65.96 C19.8559978,65.7786658 19.373336,65.688 18.84,65.688 C18.306664,65.688 17.8240022,65.7786658 17.392,65.96 C16.9599978,66.1413342 16.5893349,66.394665 16.28,66.72 C15.9706651,67.045335 15.7333342,67.4319978 15.568,67.88 C15.4026658,68.3280022 15.32,68.8133307 15.32,69.336 Z M36.2,70.632 C36.2,71.3040034 36.0986677,71.9226638 35.896,72.488 C35.6933323,73.0533362 35.392002,73.5439979 34.992,73.96 C34.591998,74.3760021 34.0933363,74.7013322 33.496,74.936 C32.8986637,75.1706678 32.2106706,75.288 31.432,75.288 C30.6426627,75.288 29.9493363,75.1706678 29.352,74.936 C28.7546637,74.7013322 28.256002,74.3760021 27.856,73.96 C27.455998,73.5439979 27.1546677,73.0533362 26.952,72.488 C26.7493323,71.9226638 26.648,71.3040034 26.648,70.632 L26.648,63.672 L29.144,63.672 L29.144,70.536 C29.144,70.8880018 29.1999994,71.2133318 29.312,71.512 C29.4240006,71.8106682 29.5813323,72.0693322 29.784,72.288 C29.9866677,72.5066678 30.2293319,72.6773327 30.512,72.8 C30.7946681,72.9226673 31.1013317,72.984 31.432,72.984 C31.7626683,72.984 32.0666653,72.9226673 32.344,72.8 C32.6213347,72.6773327 32.8613323,72.5066678 33.064,72.288 C33.2666677,72.0693322 33.4239994,71.8106682 33.536,71.512 C33.6480006,71.2133318 33.704,70.8880018 33.704,70.536 L33.704,63.672 L36.2,63.672 L36.2,70.632 Z M38.504,63.672 L42.888,63.672 C43.4640029,63.672 44.0106641,63.7279994 44.528,63.84 C45.0453359,63.9520006 45.4986647,64.1386654 45.888,64.4 C46.2773353,64.6613346 46.5866655,65.0133311 46.816,65.456 C47.0453345,65.8986689 47.16,66.4506634 47.16,67.112 C47.16,67.912004 46.9520021,68.5919972 46.536,69.152 C46.1199979,69.7120028 45.512004,70.0666659 44.712,70.216 L47.592,75 L44.6,75 L42.232,70.472 L41,70.472 L41,75 L38.504,75 L38.504,63.672 Z M41,68.36 L42.472,68.36 C42.6960011,68.36 42.9333321,68.3520001 43.184,68.336 C43.4346679,68.3199999 43.6613323,68.2720004 43.864,68.192 C44.0666677,68.1119996 44.234666,67.9866675 44.368,67.816 C44.501334,67.6453325 44.568,67.4053349 44.568,67.096 C44.568,66.8079986 44.5093339,66.5786675 44.392,66.408 C44.2746661,66.2373325 44.1253342,66.1066671 43.944,66.016 C43.7626658,65.9253329 43.5546678,65.8640002 43.32,65.832 C43.0853322,65.7999998 42.8560011,65.784 42.632,65.784 L41,65.784 L41,68.36 Z M56.28,66.616 C56.0346654,66.3173318 55.7333351,66.0880008 55.376,65.928 C55.0186649,65.7679992 54.6053357,65.688 54.136,65.688 C53.6666643,65.688 53.232002,65.7786658 52.832,65.96 C52.431998,66.1413342 52.0853348,66.394665 51.792,66.72 C51.4986652,67.045335 51.2693342,67.4319978 51.104,67.88 C50.9386658,68.3280022 50.856,68.8133307 50.856,69.336 C50.856,69.869336 50.9386658,70.3573311 51.104,70.8 C51.2693342,71.2426689 51.4959986,71.626665 51.784,71.952 C52.0720014,72.277335 52.4106647,72.5306658 52.8,72.712 C53.1893353,72.8933342 53.6079978,72.984 54.056,72.984 C54.5680026,72.984 55.0213314,72.8773344 55.416,72.664 C55.8106686,72.4506656 56.1359987,72.1520019 56.392,71.768 L58.472,73.32 C57.9919976,73.9920034 57.3840037,74.4879984 56.648,74.808 C55.9119963,75.1280016 55.1546706,75.288 54.376,75.288 C53.4906622,75.288 52.6746704,75.1493347 51.928,74.872 C51.1813296,74.5946653 50.5360027,74.1973359 49.992,73.68 C49.4479973,73.1626641 49.0240015,72.5360037 48.72,71.8 C48.4159985,71.0639963 48.264,70.2426712 48.264,69.336 C48.264,68.4293288 48.4159985,67.6080037 48.72,66.872 C49.0240015,66.1359963 49.4479973,65.5093359 49.992,64.992 C50.5360027,64.4746641 51.1813296,64.0773347 51.928,63.8 C52.6746704,63.5226653 53.4906622,63.384 54.376,63.384 C54.6960016,63.384 55.0293316,63.413333 55.376,63.472 C55.7226684,63.530667 56.0639983,63.6239994 56.4,63.752 C56.7360017,63.8800006 57.0586651,64.0506656 57.368,64.264 C57.6773349,64.4773344 57.9546654,64.7386651 58.2,65.048 L56.28,66.616 Z M59.928,63.672 L67.624,63.672 L67.624,65.976 L62.424,65.976 L62.424,68.088 L67.336,68.088 L67.336,70.392 L62.424,70.392 L62.424,72.696 L67.912,72.696 L67.912,75 L59.928,75 L59.928,63.672 Z" id="SOURCE" fill="#218982"></path>
                </g>
            </g>
        </g>
    </g>
</svg>