<?xml version="1.0" encoding="UTF-8"?>
<svg width="81px" height="93px" viewBox="0 0 81 93" version="1.1" xmlns="http://www.w3.org/2000/svg" xmlns:xlink="http://www.w3.org/1999/xlink">
    <!-- Generator: Sketch 49.3 (51167) - http://www.bohemiancoding.com/sketch -->
    <title>sql</title>
    <desc>Created with Sketch.</desc>
    <defs></defs>
    <g id="Page-1" stroke="none" stroke-width="1" fill="none" fill-rule="evenodd">
        <g id="png" transform="translate(-775.000000, -337.000000)">
            <g id="files" transform="translate(43.000000, 230.000000)">
                <g id="sql" transform="translate(732.000000, 107.000000)">
                    <path d="M13,0 L65.7339131,0 L81,18.640625 L81,90 C81,91.6568542 79.6568542,93 78,93 L13,93 C11.3431458,93 10,91.6568542 10,90 L10,3 C10,1.34314575 11.3431458,3.04359188e-16 13,0 Z" id="Rectangle-2" fill="#E6F2FF"></path>
                    <path d="M66.1679688,0.083984375 L66.1679688,15.6293945 C66.1679688,17.2862488 67.5111145,18.6293945 69.1679688,18.6293945 L81.0048828,18.6293945 L66.1679688,0.083984375 Z" id="Rectangle-2-Copy" fill="#AEC3DA"></path>
                    <rect id="Rectangle-3" fill="#CA3488" x="0" y="53" width="66" height="32" rx="3"></rect>
                    <path d="M24.56,67.14 C24.1199978,66.5933306 23.5400036,66.32 22.82,66.32 C22.5666654,66.32 22.3200012,66.3799994 22.08,66.5 C21.8399988,66.6200006 21.72,66.8266652 21.72,67.12 C21.72,67.3600012 21.8433321,67.5366661 22.09,67.65 C22.3366679,67.7633339 22.6499981,67.8633329 23.03,67.95 C23.4100019,68.0366671 23.8166645,68.1299995 24.25,68.23 C24.6833355,68.3300005 25.0899981,68.4866656 25.47,68.7 C25.8500019,68.9133344 26.1633321,69.2033315 26.41,69.57 C26.6566679,69.9366685 26.78,70.4266636 26.78,71.04 C26.78,71.6666698 26.6433347,72.1833313 26.37,72.59 C26.0966653,72.9966687 25.7466688,73.3233321 25.32,73.57 C24.8933312,73.8166679 24.413336,73.9899995 23.88,74.09 C23.346664,74.1900005 22.8200026,74.24 22.3,74.24 C21.6199966,74.24 20.9333368,74.1433343 20.24,73.95 C19.5466632,73.7566657 18.9600024,73.4133358 18.48,72.92 L20.3,70.9 C20.5800014,71.2466684 20.8899983,71.5099991 21.23,71.69 C21.5700017,71.8700009 21.9666644,71.96 22.42,71.96 C22.7666684,71.96 23.0799986,71.9100005 23.36,71.81 C23.6400014,71.7099995 23.78,71.526668 23.78,71.26 C23.78,71.0066654 23.6566679,70.8166673 23.41,70.69 C23.1633321,70.5633327 22.8500019,70.4566671 22.47,70.37 C22.0899981,70.2833329 21.6833355,70.1900005 21.25,70.09 C20.8166645,69.9899995 20.4100019,69.840001 20.03,69.64 C19.6499981,69.439999 19.3366679,69.1566685 19.09,68.79 C18.8433321,68.4233315 18.72,67.9333364 18.72,67.32 C18.72,66.7466638 18.8366655,66.2533354 19.07,65.84 C19.3033345,65.4266646 19.6099981,65.086668 19.99,64.82 C20.3700019,64.553332 20.8066642,64.3566673 21.3,64.23 C21.7933358,64.1033327 22.2933308,64.04 22.8,64.04 C23.4400032,64.04 24.0866634,64.1333324 24.74,64.32 C25.3933366,64.5066676 25.9466644,64.8399976 26.4,65.32 L24.56,67.14 Z M38.52,78.56 L35.52,78.56 L35.52,72.96 L35.48,72.96 C35.1333316,73.426669 34.6900027,73.7566657 34.15,73.95 C33.6099973,74.1433343 33.0266698,74.24 32.4,74.24 C31.7066632,74.24 31.0866694,74.0966681 30.54,73.81 C29.9933306,73.5233319 29.5300019,73.1400024 29.15,72.66 C28.7699981,72.1799976 28.4766677,71.6300031 28.27,71.01 C28.0633323,70.3899969 27.96,69.7400034 27.96,69.06 C27.96,68.326663 28.0733322,67.6533364 28.3,67.04 C28.5266678,66.4266636 28.8499979,65.8966689 29.27,65.45 C29.6900021,65.0033311 30.1933304,64.6566679 30.78,64.41 C31.3666696,64.1633321 32.0199964,64.04 32.74,64.04 C33.073335,64.04 33.3966651,64.0866662 33.71,64.18 C34.0233349,64.2733338 34.3099987,64.3933326 34.57,64.54 C34.8300013,64.6866674 35.0566657,64.8499991 35.25,65.03 C35.4433343,65.2100009 35.5999994,65.3866658 35.72,65.56 L35.76,65.56 L35.76,64.28 L38.52,64.28 L38.52,78.56 Z M35.76,69.14 C35.76,68.406663 35.5500021,67.8133356 35.13,67.36 C34.7099979,66.9066644 34.1200038,66.68 33.36,66.68 C32.5999962,66.68 32.0100021,66.9066644 31.59,67.36 C31.1699979,67.8133356 30.96,68.406663 30.96,69.14 C30.96,69.873337 31.1699979,70.4666644 31.59,70.92 C32.0100021,71.3733356 32.5999962,71.6 33.36,71.6 C34.1200038,71.6 34.7099979,71.3733356 35.13,70.92 C35.5500021,70.4666644 35.76,69.873337 35.76,69.14 Z M40.96,58.88 L43.96,58.88 L43.96,74 L40.96,74 L40.96,58.88 Z" fill="#FFFFFF"></path>
                </g>
            </g>
        </g>
    </g>
</svg>