<?xml version="1.0" encoding="UTF-8"?>
<svg width="81px" height="93px" viewBox="0 0 81 93" version="1.1" xmlns="http://www.w3.org/2000/svg" xmlns:xlink="http://www.w3.org/1999/xlink">
    <!-- Generator: Sketch 49.3 (51167) - http://www.bohemiancoding.com/sketch -->
    <title>tex</title>
    <desc>Created with Sketch.</desc>
    <defs></defs>
    <g id="Page-1" stroke="none" stroke-width="1" fill="none" fill-rule="evenodd">
        <g id="png" transform="translate(-775.000000, -552.000000)">
            <g id="files" transform="translate(43.000000, 230.000000)">
                <g id="tex" transform="translate(732.000000, 322.000000)">
                    <path d="M13,0 L65.7339131,0 L81,18.640625 L81,90 C81,91.6568542 79.6568542,93 78,93 L13,93 C11.3431458,93 10,91.6568542 10,90 L10,3 C10,1.34314575 11.3431458,3.04359188e-16 13,0 Z" id="Rectangle-2" fill="#E6F2FF"></path>
                    <path d="M66.1679688,0.083984375 L66.1679688,15.6293945 C66.1679688,17.2862488 67.5111145,18.6293945 69.1679688,18.6293945 L81.0048828,18.6293945 L66.1679688,0.083984375 Z" id="Rectangle-2-Copy" fill="#AEC3DA"></path>
                    <rect id="Rectangle-3" fill="#C1C1C1" x="0" y="53" width="66" height="32" rx="3"></rect>
                    <path d="M20.553,64.31 L17.119,64.31 L17.119,61.964 L26.639,61.964 L26.639,64.31 L23.205,64.31 L23.205,74 L20.553,74 L20.553,64.31 Z M33.592,72.572 C33.183998,73.0933359 32.6683364,73.4956653 32.045,73.779 C31.4216636,74.0623347 30.77567,74.204 30.107,74.204 C29.4723302,74.204 28.8745028,74.102001 28.3135,73.898 C27.7524972,73.693999 27.2651687,73.4021686 26.8515,73.0225 C26.4378313,72.6428314 26.1120012,72.1866693 25.874,71.654 C25.6359988,71.1213307 25.517,70.5263366 25.517,69.869 C25.517,69.2116634 25.6359988,68.6166693 25.874,68.084 C26.1120012,67.5513307 26.4378313,67.0951686 26.8515,66.7155 C27.2651687,66.3358314 27.7524972,66.044001 28.3135,65.84 C28.8745028,65.635999 29.4723302,65.534 30.107,65.534 C30.6963363,65.534 31.2318309,65.635999 31.7135,65.84 C32.1951691,66.044001 32.603165,66.3358314 32.9375,66.7155 C33.271835,67.0951686 33.5296658,67.5513307 33.711,68.084 C33.8923342,68.6166693 33.983,69.2116634 33.983,69.869 L33.983,70.668 L28.067,70.668 C28.1690005,71.1553358 28.3899983,71.5434986 28.73,71.8325 C29.0700017,72.1215014 29.4893308,72.266 29.988,72.266 C30.4073354,72.266 30.7614986,72.1725009 31.0505,71.9855 C31.3395014,71.7984991 31.5916656,71.5576681 31.807,71.263 L33.592,72.572 Z M31.433,68.934 C31.4443334,68.5033312 31.3026681,68.1350015 31.008,67.829 C30.7133319,67.5229985 30.333669,67.37 29.869,67.37 C29.5856652,67.37 29.3363344,67.4153329 29.121,67.506 C28.9056656,67.5966671 28.7215008,67.7128326 28.5685,67.8545 C28.4154992,67.9961674 28.2965004,68.1604991 28.2115,68.3475 C28.1264996,68.5345009 28.0783334,68.729999 28.067,68.934 L31.433,68.934 Z M38.845,67.71 L34.867,61.964 L38.199,61.964 L40.766,66.18 L43.231,61.964 L46.444,61.964 L42.551,67.659 L46.903,74 L43.571,74 L40.63,69.155 L37.774,74 L34.629,74 L38.845,67.71 Z" id="TeX" fill="#FFFFFF"></path>
                </g>
            </g>
        </g>
    </g>
</svg>