<?xml version="1.0" encoding="UTF-8"?>
<svg width="81px" height="93px" viewBox="0 0 81 93" version="1.1" xmlns="http://www.w3.org/2000/svg" xmlns:xlink="http://www.w3.org/1999/xlink">
    <!-- Generator: Sketch 49.3 (51167) - http://www.bohemiancoding.com/sketch -->
    <title>ts</title>
    <desc>Created with Sketch.</desc>
    <defs></defs>
    <g id="Page-1" stroke="none" stroke-width="1" fill="none" fill-rule="evenodd">
        <g id="png" transform="translate(-578.000000, -552.000000)">
            <g id="files" transform="translate(43.000000, 230.000000)">
                <g id="ts" transform="translate(535.000000, 322.000000)">
                    <path d="M13,0 L65.7339131,0 L81,18.640625 L81,90 C81,91.6568542 79.6568542,93 78,93 L13,93 C11.3431458,93 10,91.6568542 10,90 L10,3 C10,1.34314575 11.3431458,3.04359188e-16 13,0 Z" id="Rectangle-2" fill="#E6F2FF"></path>
                    <path d="M66.1679688,0.083984375 L66.1679688,15.6293945 C66.1679688,17.2862488 67.5111145,18.6293945 69.1679688,18.6293945 L81.0048828,18.6293945 L66.1679688,0.083984375 Z" id="Rectangle-2-Copy" fill="#AEC3DA"></path>
                    <rect id="Rectangle-3" fill="#007ACC" x="0" y="53" width="66" height="32" rx="3"></rect>
                    <path d="M26.553,64.31 L23.119,64.31 L23.119,61.964 L32.639,61.964 L32.639,64.31 L29.205,64.31 L29.205,74 L26.553,74 L26.553,64.31 Z M39.932,64.905 C39.7166656,64.6329986 39.4248352,64.431834 39.0565,64.3015 C38.6881648,64.171166 38.3396683,64.106 38.011,64.106 C37.8183324,64.106 37.620001,64.1286664 37.416,64.174 C37.211999,64.2193336 37.0193342,64.2901662 36.838,64.3865 C36.6566658,64.4828338 36.5093339,64.6103325 36.396,64.769 C36.2826661,64.9276675 36.226,65.1203322 36.226,65.347 C36.226,65.7096685 36.3619986,65.9873324 36.634,66.18 C36.9060014,66.3726676 37.2488313,66.5369993 37.6625,66.673 C38.0761687,66.8090007 38.5209976,66.9449993 38.997,67.081 C39.4730024,67.2170007 39.9178313,67.4096654 40.3315,67.659 C40.7451687,67.9083346 41.0879986,68.2426646 41.36,68.662 C41.6320014,69.0813354 41.768,69.6423298 41.768,70.345 C41.768,71.01367 41.6433346,71.5973308 41.394,72.096 C41.1446654,72.5946692 40.8075021,73.0083317 40.3825,73.337 C39.9574979,73.6656683 39.4645028,73.9093325 38.9035,74.068 C38.3424972,74.2266675 37.7503364,74.306 37.127,74.306 C36.3449961,74.306 35.61967,74.1870012 34.951,73.949 C34.28233,73.7109988 33.6590029,73.3256693 33.081,72.793 L34.968,70.719 C35.2400014,71.0816685 35.5828313,71.3621657 35.9965,71.5605 C36.4101687,71.7588343 36.8379978,71.858 37.28,71.858 C37.4953344,71.858 37.7134989,71.8325003 37.9345,71.7815 C38.1555011,71.7304997 38.3538325,71.6540005 38.5295,71.552 C38.7051675,71.4499995 38.8468328,71.3196675 38.9545,71.161 C39.0621672,71.0023325 39.116,70.8153344 39.116,70.6 C39.116,70.2373315 38.9771681,69.9511677 38.6995,69.7415 C38.4218319,69.5318323 38.0733354,69.3533341 37.654,69.206 C37.2346646,69.0586659 36.7813358,68.9113341 36.294,68.764 C35.8066642,68.6166659 35.3533354,68.4183346 34.934,68.169 C34.5146646,67.9196654 34.1661681,67.591002 33.8885,67.183 C33.6108319,66.774998 33.472,66.23667 33.472,65.568 C33.472,64.9219968 33.5994987,64.3553358 33.8545,63.868 C34.1095013,63.3806642 34.4494979,62.9726683 34.8745,62.644 C35.2995021,62.3153317 35.7896639,62.0688342 36.345,61.9045 C36.9003361,61.7401658 37.4726637,61.658 38.062,61.658 C38.7420034,61.658 39.3993302,61.7543324 40.034,61.947 C40.6686698,62.1396676 41.2409975,62.4626644 41.751,62.916 L39.932,64.905 Z" id="TS" fill="#FFFFFF"></path>
                </g>
            </g>
        </g>
    </g>
</svg>