<?xml version="1.0" encoding="UTF-8"?>
<svg width="67px" height="70px" viewBox="0 0 67 70" version="1.1" xmlns="http://www.w3.org/2000/svg" xmlns:xlink="http://www.w3.org/1999/xlink">
    <!-- Generator: Sketch 49.3 (51167) - http://www.bohemiancoding.com/sketch -->
    <title>video</title>
    <desc>Created with Sketch.</desc>
    <defs></defs>
    <g id="Page-1" stroke="none" stroke-width="1" fill="none" fill-rule="evenodd">
        <g id="png" transform="translate(-482.000000, -1460.000000)">
            <g id="icons" transform="translate(386.000000, 1460.000000)">
                <g id="video" transform="translate(96.000000, 0.000000)">
                    <rect id="Rectangle" fill="#D8D8D8" x="7" y="0" width="54" height="70"></rect>
                    <g id="Group">
                        <rect id="Rectangle" fill="#4A4A4A" x="0" y="0" width="6.64615385" height="70"></rect>
                        <rect id="Rectangle" fill="#4A4A4A" x="13.2923077" y="0" width="6.64615385" height="70"></rect>
                        <rect id="Rectangle" fill="#4A4A4A" x="6.64615385" y="0" width="6.64615385" height="70"></rect>
                        <rect id="Rectangle-2" fill="#FFFFFF" x="6.64615385" y="7" width="6.64615385" height="7"></rect>
                        <rect id="Rectangle-2" fill="#FFFFFF" x="6.64615385" y="21" width="6.64615385" height="7"></rect>
                        <rect id="Rectangle-2" fill="#FFFFFF" x="6.64615385" y="35" width="6.64615385" height="7"></rect>
                        <rect id="Rectangle-2" fill="#FFFFFF" x="6.64615385" y="49" width="6.64615385" height="7"></rect>
                        <rect id="Rectangle-2" fill="#FFFFFF" x="6.64615385" y="63" width="6.64615385" height="7"></rect>
                    </g>
                    <g id="Group" transform="translate(47.000000, 0.000000)">
                        <rect id="Rectangle" fill="#4A4A4A" x="0" y="0" width="6.64615385" height="70"></rect>
                        <rect id="Rectangle" fill="#4A4A4A" x="13.2923077" y="0" width="6.64615385" height="70"></rect>
                        <rect id="Rectangle" fill="#4A4A4A" x="6.64615385" y="0" width="6.64615385" height="70"></rect>
                        <rect id="Rectangle-2" fill="#FFFFFF" x="6.64615385" y="7" width="6.64615385" height="7"></rect>
                        <rect id="Rectangle-2" fill="#FFFFFF" x="6.64615385" y="21" width="6.64615385" height="7"></rect>
                        <rect id="Rectangle-2" fill="#FFFFFF" x="6.64615385" y="35" width="6.64615385" height="7"></rect>
                        <rect id="Rectangle-2" fill="#FFFFFF" x="6.64615385" y="49" width="6.64615385" height="7"></rect>
                        <rect id="Rectangle-2" fill="#FFFFFF" x="6.64615385" y="63" width="6.64615385" height="7"></rect>
                    </g>
                </g>
            </g>
        </g>
    </g>
</svg>