<?xml version="1.0" encoding="UTF-8"?>
<svg width="81px" height="93px" viewBox="0 0 81 93" version="1.1" xmlns="http://www.w3.org/2000/svg" xmlns:xlink="http://www.w3.org/1999/xlink">
    <!-- Generator: Sketch 49.3 (51167) - http://www.bohemiancoding.com/sketch -->
    <title>vue</title>
    <desc>Created with Sketch.</desc>
    <defs></defs>
    <g id="Page-1" stroke="none" stroke-width="1" fill="none" fill-rule="evenodd">
        <g id="png" transform="translate(-478.000000, -552.000000)">
            <g id="files" transform="translate(43.000000, 230.000000)">
                <g id="vue" transform="translate(435.000000, 322.000000)">
                    <path d="M13,0 L65.7339131,0 L81,18.640625 L81,90 C81,91.6568542 79.6568542,93 78,93 L13,93 C11.3431458,93 10,91.6568542 10,90 L10,3 C10,1.34314575 11.3431458,3.04359188e-16 13,0 Z" id="Rectangle-2" fill="#E6F2FF"></path>
                    <path d="M66.1679688,0.083984375 L66.1679688,15.6293945 C66.1679688,17.2862488 67.5111145,18.6293945 69.1679688,18.6293945 L81.0048828,18.6293945 L66.1679688,0.083984375 Z" id="Rectangle-2-Copy" fill="#AEC3DA"></path>
                    <rect id="Rectangle-3" fill="#8AB858" x="0" y="53" width="66" height="32" rx="3"></rect>
                    <path d="M15.034,60.964 L18.06,60.964 L21.035,68.852 L21.069,68.852 L24.095,60.964 L26.934,60.964 L21.97,73 L19.845,73 L15.034,60.964 Z M38.341,68.359 C38.341,69.0730036 38.2333344,69.7303303 38.018,70.331 C37.8026656,70.9316697 37.4825021,71.4529978 37.0575,71.895 C36.6324979,72.3370022 36.1026698,72.6826654 35.468,72.932 C34.8333302,73.1813346 34.1023375,73.306 33.275,73.306 C32.4363291,73.306 31.6996698,73.1813346 31.065,72.932 C30.4303302,72.6826654 29.9005021,72.3370022 29.4755,71.895 C29.0504979,71.4529978 28.7303344,70.9316697 28.515,70.331 C28.2996656,69.7303303 28.192,69.0730036 28.192,68.359 L28.192,60.964 L30.844,60.964 L30.844,68.257 C30.844,68.6310019 30.9034994,68.9766651 31.0225,69.294 C31.1415006,69.6113349 31.3086656,69.8861655 31.524,70.1185 C31.7393344,70.3508345 31.9971652,70.532166 32.2975,70.6625 C32.5978348,70.792834 32.9236649,70.858 33.275,70.858 C33.6263351,70.858 33.9493319,70.792834 34.244,70.6625 C34.5386681,70.532166 34.7936656,70.3508345 35.009,70.1185 C35.2243344,69.8861655 35.3914994,69.6113349 35.5105,69.294 C35.6295006,68.9766651 35.689,68.6310019 35.689,68.257 L35.689,60.964 L38.341,60.964 L38.341,68.359 Z M40.891,60.964 L49.068,60.964 L49.068,63.412 L43.543,63.412 L43.543,65.656 L48.762,65.656 L48.762,68.104 L43.543,68.104 L43.543,70.552 L49.374,70.552 L49.374,73 L40.891,73 L40.891,60.964 Z" id="VUE" fill="#273F4D"></path>
                </g>
            </g>
        </g>
    </g>
</svg>