<?xml version="1.0" encoding="UTF-8"?>
<svg width="79px" height="72px" viewBox="0 0 79 72" version="1.1" xmlns="http://www.w3.org/2000/svg" xmlns:xlink="http://www.w3.org/1999/xlink">
    <!-- Generator: Sketch 49.3 (51167) - http://www.bohemiancoding.com/sketch -->
    <title>zip</title>
    <desc>Created with Sketch.</desc>
    <defs></defs>
    <g id="Page-1" stroke="none" stroke-width="1" fill="none" fill-rule="evenodd">
        <g id="png" transform="translate(-486.000000, -139.000000)">
            <g id="Archives-icons" transform="translate(43.000000, 139.000000)">
                <g id="zip" transform="translate(443.000000, 0.000000)">
                    <g id="Group-3">
                        <rect id="Rectangle-6" fill="#6D819C" x="0" y="13.752809" width="58.6391753" height="58.247191"></rect>
                        <polygon id="Rectangle-6-Copy-2" fill="#5F7189" points="58.6391753 13.752809 78.4013043 0.0578695576 78.4013043 56.5083392 58.6391753 72"></polygon>
                        <polygon id="Rectangle-6-Copy" fill="#8AA5C9" points="19.8772552 0 78.5164304 0 58.6391753 13.752809 0 13.752809"></polygon>
                    </g>
                    <g transform="translate(8.958763, 14.325843)">
                        <rect id="Rectangle" fill="#3E3E3E" x="-8.8817842e-16" y="0" width="8.1443299" height="33.9775281"></rect>
                        <rect id="Path" fill="#F4F4F4" x="3.25773196" y="29.9325843" width="2.44329897" height="2.42696629"></rect>
                        <rect id="Path" fill="#F4F4F4" x="3.25773196" y="10.5168539" width="2.44329897" height="2.42696629"></rect>
                        <g id="Group" transform="translate(3.257732, 0.000000)" fill="#B1B1B1">
                            <rect id="Path" x="0" y="3.23595506" width="2.44329897" height="4.85393258"></rect>
                            <polygon id="Path" transform="translate(3.257732, 2.831461) rotate(25.000000) translate(-3.257732, -2.831461) " points="2.41926903 0.808988764 4.88659794 0.808988764 2.6349522 4.85393258 1.62886598 4.6995287"></polygon>
                        </g>
                        <rect id="Path" fill="#F4F4F4" x="3.25773196" y="15.3707865" width="2.44329897" height="2.42696629"></rect>
                        <rect id="Path" fill="#F4F4F4" x="3.25773196" y="20.2247191" width="2.44329897" height="2.42696629"></rect>
                        <rect id="Path" fill="#F4F4F4" x="3.25773196" y="25.0786517" width="2.44329897" height="2.42696629"></rect>
                    </g>
                    <path d="M27.665,35.264 L34.486,27.17 L27.912,27.17 L27.912,24.548 L38.077,24.548 L38.077,27.17 L31.389,35.264 L38.305,35.264 L38.305,38 L27.665,38 L27.665,35.264 Z M40.3,24.548 L43.264,24.548 L43.264,38 L40.3,38 L40.3,24.548 Z M45.962,24.548 L50.959,24.548 C51.6556701,24.548 52.3143302,24.6113327 52.935,24.738 C53.5556698,24.8646673 54.0971644,25.0831651 54.5595,25.3935 C55.0218356,25.7038349 55.3891653,26.1218307 55.6615,26.6475 C55.9338347,27.1731693 56.07,27.834996 56.07,28.633 C56.07,29.4183373 55.9433346,30.0769973 55.69,30.609 C55.4366654,31.1410027 55.0883355,31.5653317 54.645,31.882 C54.2016644,32.1986682 53.676003,32.4234993 53.068,32.5565 C52.459997,32.6895007 51.8013369,32.756 51.092,32.756 L48.926,32.756 L48.926,38 L45.962,38 L45.962,24.548 Z M48.926,30.248 L50.902,30.248 C51.1680013,30.248 51.4244988,30.2226669 51.6715,30.172 C51.9185012,30.1213331 52.1401657,30.0358339 52.3365,29.9155 C52.5328343,29.7951661 52.6911661,29.630501 52.8115,29.4215 C52.9318339,29.212499 52.992,28.9496683 52.992,28.633 C52.992,28.2909983 52.9128341,28.015501 52.7545,27.8065 C52.5961659,27.597499 52.3935012,27.4360006 52.1465,27.322 C51.8994988,27.2079994 51.6240015,27.1351668 51.32,27.1035 C51.0159985,27.0718332 50.7246681,27.056 50.446,27.056 L48.926,27.056 L48.926,30.248 Z" id="ZIP" fill="#38414C"></path>
                </g>
            </g>
        </g>
    </g>
</svg>